<svg width="14" height="12" viewBox="0 0 14 12" fill="none" xmlns="http://www.w3.org/2000/svg">
<path d="M7.44249 1.42383C7.44249 1.17945 7.24438 0.981338 7 0.981338C6.75562 0.981338 6.55751 1.17945 6.55751 1.42383H7H7.44249ZM6.68711 8.64579C6.85992 8.8186 7.14008 8.8186 7.31289 8.64579L10.1289 5.8298C10.3017 5.657 10.3017 5.37683 10.1289 5.20403C9.95607 5.03122 9.67591 5.03122 9.5031 5.20403L7 7.70713L4.4969 5.20403C4.32409 5.03122 4.04393 5.03122 3.87112 5.20403C3.69832 5.37683 3.69832 5.657 3.87112 5.8298L6.68711 8.64579ZM7 1.42383H6.55751V8.3329H7H7.44249V1.42383H7Z" fill="white"/>
<path d="M1 5.24219V9.90884C1 10.277 1.29848 10.5755 1.66667 10.5755H12.3333C12.7015 10.5755 13 10.277 13 9.90884V5.24219" stroke="white" stroke-width="0.88498" stroke-linecap="round"/>
</svg>
