<svg width="16" height="16" viewBox="0 0 16 16" fill="none" xmlns="http://www.w3.org/2000/svg">
<path d="M11.6035 1.17773C12.2129 1.17773 12.707 1.67187 12.707 2.28125V13.7188C12.707 14.3281 12.2129 14.8223 11.6035 14.8223H4.10352C3.49414 14.8223 3 14.3281 3 13.7188V2.28125C3 1.67187 3.49414 1.17774 4.10352 1.17773H11.6035ZM4.10352 1.88477C3.88447 1.88477 3.70703 2.0622 3.70703 2.28125V13.7188C3.70703 13.9378 3.88447 14.1152 4.10352 14.1152H11.6035C11.8226 14.1152 12 13.9378 12 13.7188V2.28125C12 2.0622 11.8226 1.88477 11.6035 1.88477H4.10352ZM8.04102 7.55273C8.23618 7.55273 8.39453 7.71108 8.39453 7.90625C8.39453 8.10142 8.23618 8.25977 8.04102 8.25977H5.41602C5.22085 8.25977 5.0625 8.10142 5.0625 7.90625C5.0625 7.71108 5.22085 7.55273 5.41602 7.55273H8.04102ZM10.291 5.67773C10.4862 5.67773 10.6445 5.83608 10.6445 6.03125C10.6445 6.22642 10.4862 6.38477 10.291 6.38477H5.41602C5.22085 6.38477 5.0625 6.22642 5.0625 6.03125C5.0625 5.83608 5.22085 5.67773 5.41602 5.67773H10.291ZM10.291 3.61523C10.4862 3.61523 10.6445 3.77358 10.6445 3.96875C10.6445 4.16392 10.4862 4.32227 10.291 4.32227H5.41602C5.22085 4.32227 5.0625 4.16392 5.0625 3.96875C5.0625 3.77358 5.22085 3.61523 5.41602 3.61523H10.291Z" fill="white"/>
</svg>
