<svg width="16" height="17" viewBox="0 0 16 17" fill="none" xmlns="http://www.w3.org/2000/svg">
<path d="M8.44249 5.12891C8.44249 4.88453 8.24438 4.68642 8 4.68642C7.75562 4.68642 7.55751 4.88453 7.55751 5.12891H8H8.44249ZM7.68711 12.3509C7.85992 12.5237 8.14008 12.5237 8.31289 12.3509L11.1289 9.53488C11.3017 9.36208 11.3017 9.08191 11.1289 8.9091C10.9561 8.7363 10.6759 8.7363 10.5031 8.9091L8 11.4122L5.4969 8.9091C5.32409 8.7363 5.04393 8.7363 4.87112 8.9091C4.69832 9.08191 4.69832 9.36208 4.87112 9.53488L7.68711 12.3509ZM8 5.12891H7.55751V12.038H8H8.44249V5.12891H8Z" fill="white"/>
<path d="M2 8.94727V13.6139C2 13.9821 2.29848 14.2806 2.66667 14.2806H13.3333C13.7015 14.2806 14 13.9821 14 13.6139V8.94727" stroke="white" stroke-width="0.88498" stroke-linecap="round"/>
</svg>
