<svg width="25" height="25" viewBox="0 0 25 25" fill="none" xmlns="http://www.w3.org/2000/svg">
<rect x="0.5" y="0.5" width="24" height="24" rx="12" stroke="#2C251D"/>
<path d="M12 17.25C12 17.5261 12.2239 17.75 12.5 17.75C12.7761 17.75 13 17.5261 13 17.25H12ZM12.8536 7.39645C12.6583 7.20118 12.3417 7.20118 12.1464 7.39645L8.96447 10.5784C8.7692 10.7737 8.7692 11.0903 8.96447 11.2855C9.15973 11.4808 9.47631 11.4808 9.67157 11.2855L12.5 8.45711L15.3284 11.2855C15.5237 11.4808 15.8403 11.4808 16.0355 11.2855C16.2308 11.0903 16.2308 10.7737 16.0355 10.5784L12.8536 7.39645ZM12.5 17.25H13V7.75H12.5H12V17.25H12.5Z" fill="#2C251D"/>
</svg>
