<svg width="28" height="28" viewBox="0 0 28 28" fill="none" xmlns="http://www.w3.org/2000/svg">
<rect width="28" height="28" rx="6" fill="#F1494B" fill-opacity="0.3"/>
<path d="M18.9995 11.9375H8.99951C8.87519 11.9375 8.75596 11.8881 8.66806 11.8002C8.58015 11.7123 8.53076 11.5931 8.53076 11.4688C8.53076 11.3444 8.58015 11.2252 8.66806 11.1373C8.75596 11.0494 8.87519 11 8.99951 11H18.9995C19.1238 11 19.2431 11.0494 19.331 11.1373C19.4189 11.2252 19.4683 11.3444 19.4683 11.4688C19.4683 11.5931 19.4189 11.7123 19.331 11.8002C19.2431 11.8881 19.1238 11.9375 18.9995 11.9375Z" fill="#F1494B"/>
<path d="M16.7755 19.4688H11.2255C11.0274 19.4824 10.8286 19.4564 10.6407 19.3926C10.4527 19.3287 10.2792 19.2282 10.1304 19.0968C9.98158 18.9654 9.86031 18.8058 9.77364 18.6272C9.68696 18.4486 9.63661 18.2545 9.62549 18.0563V11.5001C9.62549 11.3757 9.67487 11.2565 9.76278 11.1686C9.85069 11.0807 9.96992 11.0313 10.0942 11.0313C10.2186 11.0313 10.3378 11.0807 10.4257 11.1686C10.5136 11.2565 10.563 11.3757 10.563 11.5001V18.0563C10.563 18.3126 10.8567 18.5313 11.188 18.5313H16.738C17.088 18.5313 17.363 18.3126 17.363 18.0563V11.5001C17.363 11.3658 17.4163 11.237 17.5113 11.1421C17.6062 11.0471 17.735 10.9938 17.8692 10.9938C18.0035 10.9938 18.1323 11.0471 18.2272 11.1421C18.3222 11.237 18.3755 11.3658 18.3755 11.5001V18.0563C18.3644 18.2545 18.314 18.4486 18.2273 18.6272C18.1407 18.8058 18.0194 18.9654 17.8706 19.0968C17.7217 19.2282 17.5483 19.3287 17.3603 19.3926C17.1723 19.4564 16.9736 19.4824 16.7755 19.4688ZM16.8505 11.3438C16.7887 11.3447 16.7274 11.3331 16.6701 11.3098C16.6129 11.2866 16.5609 11.2521 16.5172 11.2084C16.4735 11.1647 16.439 11.1127 16.4157 11.0554C16.3924 10.9982 16.3809 10.9368 16.3817 10.8751V9.94381C16.3817 9.68756 16.0817 9.46881 15.7567 9.46881H12.263C11.9192 9.46881 11.638 9.68756 11.638 9.94381V10.8751C11.638 10.9994 11.5886 11.1186 11.5007 11.2065C11.4128 11.2944 11.2936 11.3438 11.1692 11.3438C11.0449 11.3438 10.9257 11.2944 10.8378 11.2065C10.7499 11.1186 10.7005 10.9994 10.7005 10.8751V9.94381C10.7247 9.55088 10.9018 9.18304 11.1938 8.91904C11.4858 8.65504 11.8696 8.51586 12.263 8.53131H15.738C16.1345 8.5108 16.5231 8.6477 16.8192 8.91222C17.1154 9.17674 17.2951 9.54748 17.3192 9.94381V10.8751C17.3201 10.9371 17.3086 10.9988 17.2854 11.0564C17.2622 11.114 17.2278 11.1664 17.1842 11.2106C17.1406 11.2548 17.0886 11.2898 17.0313 11.3138C16.974 11.3377 16.9126 11.3501 16.8505 11.3501V11.3438Z" fill="#F1494B"/>
<path d="M12.8879 17.1242C12.7641 17.1226 12.6458 17.0727 12.5583 16.9851C12.4707 16.8976 12.4208 16.7793 12.4192 16.6555V13.8242C12.4192 13.6999 12.4686 13.5807 12.5565 13.4928C12.6444 13.4049 12.7636 13.3555 12.8879 13.3555C13.0123 13.3555 13.1315 13.4049 13.2194 13.4928C13.3073 13.5807 13.3567 13.6999 13.3567 13.8242V16.6492C13.3575 16.7113 13.346 16.7729 13.3228 16.8305C13.2996 16.8881 13.2652 16.9405 13.2216 16.9847C13.178 17.0289 13.1261 17.064 13.0688 17.0879C13.0115 17.1119 12.95 17.1242 12.8879 17.1242ZM15.1129 17.1242C14.9886 17.1242 14.8694 17.0748 14.7815 16.9869C14.6936 16.899 14.6442 16.7798 14.6442 16.6555V13.8242C14.6442 13.6999 14.6936 13.5807 14.7815 13.4928C14.8694 13.4049 14.9886 13.3555 15.1129 13.3555C15.2373 13.3555 15.3565 13.4049 15.4444 13.4928C15.5323 13.5807 15.5817 13.6999 15.5817 13.8242V16.6492C15.5817 16.7741 15.5325 16.894 15.4448 16.9829C15.357 17.0718 15.2378 17.1226 15.1129 17.1242Z" fill="#F1494B"/>
</svg>
