<svg width="28" height="28" viewBox="0 0 28 28" fill="none" xmlns="http://www.w3.org/2000/svg">
<rect width="28" height="28" rx="6" fill="#423C35"/>
<path d="M13.7 17.0804L17.398 13.3824C16.7759 13.1225 16.2109 12.743 15.735 12.2654C15.2572 11.7894 14.8775 11.2242 14.6175 10.6019L10.9195 14.2999C10.631 14.5884 10.4865 14.7329 10.3625 14.8919C10.2162 15.0796 10.0906 15.2826 9.98801 15.4974C9.90151 15.6794 9.83701 15.8734 9.70801 16.2604L9.02701 18.3019C8.99567 18.3953 8.99102 18.4957 9.01358 18.5917C9.03615 18.6876 9.08503 18.7754 9.15475 18.8451C9.22446 18.9148 9.31223 18.9637 9.4082 18.9863C9.50417 19.0089 9.60454 19.0042 9.69801 18.9729L11.7395 18.2919C12.127 18.1629 12.3205 18.0984 12.5025 18.0119C12.7182 17.9092 12.92 17.7844 13.108 17.6374C13.267 17.5134 13.4115 17.3689 13.7 17.0804ZM18.424 12.3564C18.7927 11.9876 18.9999 11.4876 18.9999 10.9661C18.9999 10.4447 18.7927 9.94458 18.424 9.57586C18.0553 9.20714 17.5552 9 17.0338 9C16.5123 9 16.0122 9.20714 15.6435 9.57586L15.2 10.0194L15.219 10.0749C15.4375 10.7002 15.7952 11.2679 16.265 11.7349C16.746 12.2188 17.3335 12.5835 17.9805 12.7999L18.424 12.3564Z" fill="white"/>
</svg>
