<svg width="34" height="34" viewBox="0 0 34 34" fill="none" xmlns="http://www.w3.org/2000/svg">
<rect width="34" height="34" rx="6.84211" fill="#2C251D"/>
<path d="M16.5359 21.7593L22.251 16.0442C21.2895 15.6426 20.4163 15.0561 19.6809 14.3179C18.9424 13.5823 18.3556 12.7089 17.9538 11.7471L12.2388 17.4622C11.7929 17.908 11.5696 18.1314 11.3779 18.3771C11.1518 18.6672 10.9578 18.981 10.7992 19.3129C10.6655 19.5941 10.5658 19.8939 10.3664 20.492L9.31398 23.6471C9.26554 23.7915 9.25835 23.9466 9.29323 24.095C9.3281 24.2433 9.40365 24.3789 9.51139 24.4867C9.61913 24.5944 9.75478 24.67 9.9031 24.7048C10.0514 24.7397 10.2065 24.7325 10.351 24.6841L13.506 23.6316C14.1049 23.4323 14.4039 23.3326 14.6852 23.1989C15.0185 23.0402 15.3304 22.8473 15.621 22.6201C15.8667 22.4285 16.09 22.2052 16.5359 21.7593ZM23.8366 14.4586C24.4065 13.8888 24.7266 13.1159 24.7266 12.31C24.7266 11.5041 24.4065 10.7313 23.8366 10.1615C23.2668 9.59161 22.4939 9.27148 21.688 9.27148C20.8822 9.27148 20.1093 9.59161 19.5395 10.1615L18.8541 10.8469L18.8834 10.9326C19.2211 11.8991 19.7739 12.7764 20.5 13.4981C21.2433 14.2459 22.1512 14.8096 23.1512 15.144L23.8366 14.4586Z" fill="white"/>
</svg>
