<svg width="33" height="39" viewBox="0 0 33 39" fill="none" xmlns="http://www.w3.org/2000/svg">
<path d="M24.5998 12.1058L29.5305 7.17518C28.701 6.82866 27.9477 6.32264 27.3132 5.68585C26.6761 5.05121 26.1698 4.29761 25.8232 3.46785L20.8925 8.39851C20.5079 8.78318 20.3152 8.97585 20.1498 9.18785C19.9548 9.43816 19.7874 9.70885 19.6505 9.99518C19.5352 10.2378 19.4492 10.4965 19.2772 11.0125L18.3692 13.7345C18.3274 13.8591 18.3212 13.993 18.3513 14.1209C18.3814 14.2489 18.4465 14.3659 18.5395 14.4589C18.6324 14.5518 18.7495 14.617 18.8774 14.6471C19.0054 14.6772 19.1392 14.671 19.2638 14.6292L21.9859 13.7212C22.5025 13.5492 22.7605 13.4632 23.0032 13.3478C23.2907 13.211 23.5598 13.0445 23.8105 12.8485C24.0225 12.6832 24.2152 12.4905 24.5998 12.1058ZM30.8985 5.80718C31.3901 5.31556 31.6663 4.64877 31.6663 3.95351C31.6663 3.25825 31.3901 2.59147 30.8985 2.09985C30.4069 1.60822 29.7401 1.33203 29.0448 1.33203C28.3496 1.33203 27.6828 1.60822 27.1912 2.09985L26.5998 2.69118L26.6252 2.76518C26.9165 3.59903 27.3934 4.35584 28.0199 4.97851C28.6611 5.62372 29.4444 6.11001 30.3072 6.39851L30.8985 5.80718Z" fill="white"/>
<path d="M17 15H8" stroke="white" stroke-linecap="round"/>
<path d="M10.0449 24.1094V32.791H9.29297V28.2988H8.04297V32.3418H7.32031V24.3047H8.04297V27.6445H9.29297V24.1094H10.0449ZM3.83398 25.1738V29.8613C4.69824 29.8516 5.61621 29.793 6.67578 29.5781L6.77344 30.2617C5.5625 30.4766 4.56641 30.5449 3.60938 30.5449H3.07227V25.1738H3.83398ZM20.5723 24.1094V26.2383H21.8809V26.873H20.5723V29.041H19.8105V24.1094H20.5723ZM18.1992 24.6758C18.1895 26.8633 16.6562 28.4258 14.0879 29.1289L13.7754 28.5137C15.9141 27.9375 17.2178 26.7803 17.3789 25.3105H14.166V24.6758H18.1992ZM20.5723 29.4414V32.6738H15.0742V29.4414H20.5723ZM15.8359 30.0762V32.0488H19.8105V30.0762H15.8359ZM25.3281 25.5156C25.3281 26.6973 26.2266 27.7812 27.4863 28.2109L27.0664 28.8164C26.1045 28.4648 25.3477 27.7471 24.9668 26.8438C24.5957 27.8643 23.8242 28.6699 22.8086 29.0605L22.3984 28.4453C23.6973 27.957 24.5664 26.7949 24.5762 25.457V24.5586H25.3281V25.5156ZM29.2148 24.1094V26.375H30.5234V27.0195H29.2148V29.3926H28.4531V24.1094H29.2148ZM26.4316 29.6172C28.2188 29.6172 29.293 30.1934 29.293 31.1895C29.293 32.2051 28.2188 32.7715 26.4316 32.7715C24.6445 32.7715 23.5508 32.2051 23.5508 31.1895C23.5508 30.1934 24.6445 29.6172 26.4316 29.6172ZM26.4316 30.2324C25.123 30.2324 24.3125 30.5938 24.3223 31.1895C24.3125 31.8047 25.123 32.1562 26.4316 32.166C27.75 32.1562 28.5508 31.8047 28.5508 31.1895C28.5508 30.5938 27.75 30.2324 26.4316 30.2324Z" fill="white"/>
</svg>
