<svg width="32" height="32" viewBox="0 0 32 32" fill="none" xmlns="http://www.w3.org/2000/svg">
<path d="M16 0C24.8366 0 32 7.16344 32 16C32 24.8366 24.8366 32 16 32C12.5564 32 9.36734 30.9114 6.75684 29.0605L2.64941 30.335C2.10656 30.5032 1.59753 29.994 1.76562 29.4512L3.0293 25.3682C1.12398 22.7347 0 19.4989 0 16C0 7.16344 7.16344 0 16 0ZM16 4.23828C9.50436 4.23835 4.23835 9.50436 4.23828 16C4.23835 22.4956 9.50436 27.7617 16 27.7617C18.5305 27.7617 20.8724 26.9593 22.791 25.5996L25.8145 26.5371C26.2135 26.6607 26.5875 26.2867 26.4639 25.8877L25.5342 22.8838C26.9341 20.9483 27.7617 18.5713 27.7617 16C27.7617 9.50435 22.4956 4.23835 16 4.23828Z" fill="#7ABFC9"/>
<circle cx="9" cy="16.5" r="1.5" fill="#7ABFC9"/>
<circle cx="16" cy="16.5" r="1.5" fill="#7ABFC9"/>
<circle cx="23" cy="16.5" r="1.5" fill="#7ABFC9"/>
</svg>
