<svg width="28" height="28" viewBox="0 0 28 28" fill="none" xmlns="http://www.w3.org/2000/svg">
<rect width="28" height="28" rx="6" fill="#423C35"/>
<path d="M6.69342 12.7782C6.69342 16.9453 13.1386 19.7234 12.1385 18.8344C11.4043 18.1818 10.9571 16.8556 10.7882 16.1264C10.7746 16.0677 10.8134 16.011 10.8723 15.9984C11.8962 15.7786 13.7498 14.8168 13.7498 12.5004C13.7498 9.50004 11.305 9 10.3049 9C9.30482 9 6.69342 9.33337 6.69342 12.7782Z" fill="white"/>
<path d="M14.2498 12.7782C14.2498 16.9453 20.695 19.7234 19.6949 18.8344C18.9607 18.1818 18.5135 16.8556 18.3446 16.1264C18.331 16.0677 18.3698 16.011 18.4287 15.9984C19.4526 15.7786 21.3062 14.8168 21.3062 12.5004C21.3062 9.50004 18.8614 9 17.8613 9C16.8612 9 14.2498 9.33337 14.2498 12.7782Z" fill="white"/>
</svg>
