<svg width="20" height="20" viewBox="0 0 20 20" fill="none" xmlns="http://www.w3.org/2000/svg">
<path d="M12.0575 15.4433C11.9993 15.3853 11.9531 15.3163 11.9216 15.2404C11.8901 15.1644 11.8739 15.083 11.8739 15.0008C11.8739 14.9186 11.8901 14.8372 11.9216 14.7613C11.9531 14.6854 11.9993 14.6164 12.0575 14.5583L15.3662 11.2508H9.37498C7.55162 11.2508 5.80293 10.5265 4.51362 9.2372C3.22431 7.94788 2.49998 6.1992 2.49998 4.37584C2.49998 4.21008 2.56583 4.0511 2.68304 3.93389C2.80025 3.81668 2.95922 3.75084 3.12498 3.75084C3.29074 3.75084 3.44971 3.81668 3.56692 3.93389C3.68413 4.0511 3.74998 4.21008 3.74998 4.37584C3.74998 5.86768 4.34261 7.29842 5.39751 8.35331C6.4524 9.4082 7.88314 10.0008 9.37498 10.0008H15.3662L12.0575 6.69334C11.9994 6.63523 11.9533 6.56624 11.9218 6.49032C11.8904 6.41439 11.8742 6.33302 11.8742 6.25084C11.8742 6.16866 11.8904 6.08728 11.9218 6.01136C11.9533 5.93543 11.9994 5.86645 12.0575 5.80834C12.1156 5.75023 12.1846 5.70413 12.2605 5.67268C12.3364 5.64123 12.4178 5.62505 12.5 5.62505C12.5822 5.62505 12.6635 5.64123 12.7395 5.67268C12.8154 5.70413 12.8844 5.75023 12.9425 5.80834L17.3175 10.1833C17.3757 10.2414 17.4219 10.3104 17.4534 10.3863C17.4849 10.4622 17.5011 10.5436 17.5011 10.6258C17.5011 10.708 17.4849 10.7894 17.4534 10.8654C17.4219 10.9413 17.3757 11.0103 17.3175 11.0683L12.9425 15.4433C12.8844 15.5015 12.8155 15.5477 12.7395 15.5792C12.6636 15.6107 12.5822 15.627 12.5 15.627C12.4178 15.627 12.3364 15.6107 12.2604 15.5792C12.1845 15.5477 12.1155 15.5015 12.0575 15.4433Z" fill="white"/>
</svg>
