<svg width="24" height="24" viewBox="0 0 24 24" fill="none" xmlns="http://www.w3.org/2000/svg">
<rect x="0.5" y="0.5" width="23" height="23" rx="11.5" stroke="#423C35"/>
<path d="M11.5 16.75C11.5 17.0261 11.7239 17.25 12 17.25C12.2761 17.25 12.5 17.0261 12.5 16.75H11.5ZM12.3536 6.89645C12.1583 6.70118 11.8417 6.70118 11.6464 6.89645L8.46447 10.0784C8.2692 10.2737 8.2692 10.5903 8.46447 10.7855C8.65973 10.9808 8.97631 10.9808 9.17157 10.7855L12 7.95711L14.8284 10.7855C15.0237 10.9808 15.3403 10.9808 15.5355 10.7855C15.7308 10.5903 15.7308 10.2737 15.5355 10.0784L12.3536 6.89645ZM12 16.75H12.5V7.25H12H11.5V16.75H12Z" fill="#423C35"/>
</svg>
