<svg width="24" height="24" viewBox="0 0 24 24" fill="none" xmlns="http://www.w3.org/2000/svg">
<path d="M5.73667 3.25C6.11877 3.25 6.48522 3.40365 6.75541 3.67714C7.02559 3.95063 7.17738 4.32156 7.17738 4.70833V19.2917C7.17738 19.6784 7.02559 20.0494 6.75541 20.3229C6.48522 20.5964 6.11877 20.75 5.73667 20.75H3.81571C3.43361 20.75 3.06716 20.5964 2.79698 20.3229C2.52679 20.0494 2.375 19.6784 2.375 19.2917V4.70833C2.375 4.32156 2.52679 3.95063 2.79698 3.67714C3.06716 3.40365 3.43361 3.25 3.81571 3.25H5.73667ZM11.4995 3.25C11.8816 3.25 12.2481 3.40365 12.5183 3.67714C12.7885 3.95063 12.9402 4.32156 12.9402 4.70833V19.2917C12.9402 19.6784 12.7885 20.0494 12.5183 20.3229C12.2481 20.5964 11.8816 20.75 11.4995 20.75H9.57857C9.19647 20.75 8.83002 20.5964 8.55983 20.3229C8.28965 20.0494 8.13786 19.6784 8.13786 19.2917V4.70833C8.13786 4.32156 8.28965 3.95063 8.55983 3.67714C8.83002 3.40365 9.19647 3.25 9.57857 3.25H11.4995ZM18.4928 6.28722L21.5797 18.4585C21.6268 18.644 21.6373 18.8371 21.6106 19.0267C21.584 19.2163 21.5207 19.3987 21.4243 19.5636C21.328 19.7285 21.2005 19.8725 21.0492 19.9875C20.8979 20.1025 20.7257 20.1861 20.5424 20.2338L18.7406 20.7004C18.5573 20.7481 18.3665 20.7587 18.1792 20.7317C17.9919 20.7047 17.8116 20.6406 17.6488 20.5431C17.4859 20.4456 17.3436 20.3166 17.23 20.1634C17.1164 20.0103 17.0338 19.8359 16.9867 19.6504L13.8998 7.48306C13.8527 7.29754 13.8422 7.10447 13.8689 6.91485C13.8955 6.72523 13.9588 6.54278 14.0551 6.37793C14.1515 6.21308 14.2789 6.06905 14.4303 5.95406C14.5816 5.83907 14.7538 5.75539 14.9371 5.70778L16.7389 5.23819C16.9222 5.19056 17.1129 5.17993 17.3003 5.20692C17.4876 5.2339 17.6678 5.29798 17.8307 5.39548C17.9936 5.49299 18.1359 5.62201 18.2494 5.77518C18.363 5.92835 18.4457 6.1017 18.4928 6.28722Z" fill="#ECECEC"/>
</svg>
