<svg width="24" height="24" viewBox="0 0 24 24" fill="none" xmlns="http://www.w3.org/2000/svg">
<path fill-rule="evenodd" clip-rule="evenodd" d="M20.9487 16.8349C20.9474 16.884 20.9426 16.9331 20.9343 16.9815C20.9559 17.0929 20.9527 17.2076 20.9247 17.3176C20.8968 17.4275 20.8449 17.5299 20.7728 17.6174C20.7006 17.705 20.61 17.7755 20.5075 17.8239C20.4049 17.8723 20.2929 17.8974 20.1794 17.8974H5.82045C5.65209 17.8974 5.48538 17.9306 5.32983 17.995C5.17429 18.0595 5.03295 18.1539 4.9139 18.2729C4.79486 18.392 4.70042 18.5333 4.63599 18.6889C4.57156 18.8444 4.5384 19.0111 4.5384 19.1795C4.5384 19.3478 4.57156 19.4206 4.63599 19.5762C4.70042 19.7317 4.79486 19.7935 4.9139 19.9125C5.03295 20.0316 5.17429 20.126 5.32983 20.1904C5.48538 20.2548 5.65209 20.288 5.82045 20.288H20.1794C20.3834 20.288 20.5791 20.369 20.7234 20.5133C20.8676 20.6576 20.9487 21.0268 20.9487 21.2308C20.9487 21.4348 20.8676 21.6304 20.7234 21.7747C20.5791 21.919 20.3834 22 20.1794 22H5.82045C5.07241 22 4.355 21.7028 3.82605 21.1739C3.2971 20.6449 2.99994 19.9275 2.99994 19.1795V4.82051C2.99994 4.07247 3.2971 3.35506 3.82605 2.82611C4.355 2.29716 5.07241 2 5.82045 2H19.564C20.3292 2 20.9487 2.61949 20.9487 3.38462V16.8349ZM8.89737 6.10256C8.69336 6.10256 8.49771 6.18361 8.35345 6.32787C8.20919 6.47213 8.12814 6.66778 8.12814 6.8718C8.12814 7.07581 8.20919 7.27146 8.35345 7.41572C8.49771 7.55998 8.69336 7.64103 8.89737 7.64103H15.0512C15.2552 7.64103 15.4509 7.55998 15.5951 7.41572C15.7394 7.27146 15.8205 7.07581 15.8205 6.8718C15.8205 6.66778 15.7394 6.47213 15.5951 6.32787C15.4509 6.18361 15.2552 6.10256 15.0512 6.10256H8.89737Z" fill="#ECECEC"/>
</svg>
