<svg width="24" height="24" viewBox="0 0 24 24" fill="none" xmlns="http://www.w3.org/2000/svg">
<path d="M13.9492 3.22461C14.2078 3.22466 14.4559 3.32788 14.6387 3.51074L17.2783 6.14941H19.7998C20.8751 6.14954 21.75 7.02428 21.75 8.09961V18.8242C21.75 19.8995 20.8751 20.7743 19.7998 20.7744H4.2002C3.12478 20.7744 2.25 19.8996 2.25 18.8242V8.09961C2.25 7.0242 3.12478 6.14941 4.2002 6.14941H6.7207L9.36035 3.51074C9.54316 3.32788 9.79124 3.22466 10.0498 3.22461H13.9492ZM12 8.09961C9.35778 8.09961 7.125 10.3324 7.125 12.9746C7.12509 15.6167 9.35783 17.8496 12 17.8496C14.642 17.8494 16.8749 15.6166 16.875 12.9746C16.875 10.3325 14.6421 8.0998 12 8.09961ZM12 10.0488C13.5853 10.0488 14.9247 11.3884 14.9248 12.9736C14.9248 14.559 13.5853 15.8984 12 15.8984C10.4147 15.8983 9.0752 14.5589 9.0752 12.9736C9.07528 11.3884 10.4148 10.0489 12 10.0488Z" fill="#ECECEC"/>
</svg>
