<svg width="24" height="24" viewBox="0 0 24 24" fill="none" xmlns="http://www.w3.org/2000/svg">
<g clip-path="url(#clip0_181_4150)">
<path d="M19.4697 3.46973C19.7626 3.17689 20.2374 3.17695 20.5303 3.46973C20.8231 3.76256 20.8231 4.23736 20.5303 4.53028L13.0635 12L20.5303 19.4697C20.8231 19.7627 20.8231 20.2374 20.5303 20.5303C20.2374 20.8231 19.7626 20.8231 19.4697 20.5303L12.0029 13.0605L4.53028 20.5303C4.23736 20.8231 3.76256 20.8231 3.46973 20.5303C3.17695 20.2374 3.17689 19.7626 3.46973 19.4697L10.9424 12L3.46973 4.53028C3.17689 4.23744 3.17695 3.76265 3.46973 3.46973C3.76256 3.17689 4.23736 3.17695 4.53028 3.46973L12.0029 10.9395L19.4697 3.46973Z" fill="#ECECEC"/>
</g>
<defs>
<clipPath id="clip0_181_4150">
<rect width="24" height="24" fill="white"/>
</clipPath>
</defs>
</svg>
