<svg width="24" height="24" viewBox="0 0 24 24" fill="none" xmlns="http://www.w3.org/2000/svg">
<g clip-path="url(#clip0_181_4186)">
<path d="M20.6857 18.4211C21.1353 18.4211 21.4998 18.7859 21.5 19.2354C21.5 19.6852 21.1354 20.0497 20.6857 20.0497H3.31429C2.86457 20.0497 2.5 19.6852 2.5 19.2354C2.50019 18.7859 2.86469 18.4211 3.31429 18.4211H20.6857ZM20.6857 11.1838C21.1354 11.1838 21.5 11.5483 21.5 11.998C21.4998 12.4476 21.1353 12.8123 20.6857 12.8123H3.31429C2.86469 12.8123 2.50019 12.4476 2.5 11.998C2.5 11.5483 2.86457 11.1838 3.31429 11.1838H20.6857ZM20.6857 3.94531C21.1354 3.94531 21.5 4.30988 21.5 4.7596C21.5 5.20932 21.1354 5.57388 20.6857 5.57388H3.31429C2.86457 5.57388 2.5 5.20932 2.5 4.7596C2.5 4.30988 2.86457 3.94531 3.31429 3.94531H20.6857Z" fill="#ECECEC"/>
</g>
<defs>
<clipPath id="clip0_181_4186">
<rect width="24" height="24" fill="white"/>
</clipPath>
</defs>
</svg>
