<svg width="24" height="24" viewBox="0 0 24 24" fill="none" xmlns="http://www.w3.org/2000/svg">
<path d="M18.2292 2.25C19.163 2.25 20.0585 2.62094 20.7188 3.28123C21.3791 3.94151 21.75 4.83705 21.75 5.77083V13.0833H16.6042C15.6704 13.0833 14.7748 13.4543 14.1146 14.1146C13.4543 14.7748 13.0833 15.6704 13.0833 16.6042V21.75H5.77083C4.83705 21.75 3.94151 21.3791 3.28123 20.7188C2.62094 20.0585 2.25 19.163 2.25 18.2292V5.77083C2.25 4.83705 2.62094 3.94151 3.28123 3.28123C3.94151 2.62094 4.83705 2.25 5.77083 2.25H18.2292ZM21.2733 14.7083L14.7083 21.2733V16.6042C14.7083 15.5577 15.5577 14.7083 16.6042 14.7083H21.2733Z" fill="#ECECEC"/>
</svg>
