<svg width="24" height="24" viewBox="0 0 24 24" fill="none" xmlns="http://www.w3.org/2000/svg">
<g clip-path="url(#clip0_181_4160)">
<path d="M18.2501 11.0001C18.2501 9.07729 17.4857 7.23276 16.1261 5.87314C14.7665 4.51379 12.9227 3.75011 11.0001 3.75009C9.07729 3.75009 7.23276 4.51351 5.87314 5.87314C4.51351 7.23276 3.75009 9.07729 3.75009 11.0001C3.75011 12.9227 4.51379 14.7665 5.87314 16.1261C7.23276 17.4857 9.07729 18.2501 11.0001 18.2501C12.9229 18.2501 14.7665 17.4857 16.1261 16.1261C17.4857 14.7665 18.2501 12.9229 18.2501 11.0001ZM19.7501 11.0001C19.7501 13.0693 19.0146 15.061 17.6925 16.6319L21.5304 20.4698C21.8231 20.7627 21.8232 21.2375 21.5304 21.5304C21.2375 21.8232 20.7627 21.8231 20.4698 21.5304L16.6319 17.6925C15.061 19.0146 13.0693 19.7501 11.0001 19.7501C8.6795 19.7501 6.45351 18.8285 4.81259 17.1876C3.17168 15.5467 2.25011 13.3207 2.25009 11.0001C2.25009 8.67947 3.17166 6.45352 4.81259 4.81259C6.45352 3.17166 8.67947 2.25009 11.0001 2.25009C13.3207 2.25011 15.5467 3.17168 17.1876 4.81259C18.8285 6.45351 19.7501 8.6795 19.7501 11.0001Z" fill="#ECECEC"/>
</g>
<defs>
<clipPath id="clip0_181_4160">
<rect width="24" height="24" fill="white"/>
</clipPath>
</defs>
</svg>
