<svg width="24" height="24" viewBox="0 0 24 24" fill="none" xmlns="http://www.w3.org/2000/svg">
<g clip-path="url(#clip0_636_1411)">
<path d="M19.4697 3.46961C19.7626 3.17677 20.2374 3.17682 20.5303 3.46961C20.8231 3.76244 20.8231 4.23723 20.5303 4.53015L13.0635 11.9999L20.5303 19.4696C20.8231 19.7625 20.8231 20.2373 20.5303 20.5302C20.2374 20.8229 19.7626 20.823 19.4697 20.5302L12.0029 13.0604L4.53028 20.5302C4.23736 20.8229 3.76256 20.823 3.46973 20.5302C3.17695 20.2372 3.17689 19.7624 3.46973 19.4696L10.9424 11.9999L3.46973 4.53015C3.17689 4.23732 3.17695 3.76253 3.46973 3.46961C3.76256 3.17677 4.23736 3.17682 4.53028 3.46961L12.0029 10.9393L19.4697 3.46961Z" fill="#ECECEC"/>
</g>
<defs>
<clipPath id="clip0_636_1411">
<rect width="24" height="24" fill="white"/>
</clipPath>
</defs>
</svg>
