<svg width="20" height="18" viewBox="0 0 20 18" fill="none" xmlns="http://www.w3.org/2000/svg">
<path d="M11.6992 0C11.9578 5.52205e-05 12.2059 0.103275 12.3887 0.286133L15.0283 2.9248H17.5498C18.6251 2.92493 19.5 3.79967 19.5 4.875V15.5996C19.5 16.6749 18.6251 17.5497 17.5498 17.5498H1.9502C0.874781 17.5498 0 16.675 0 15.5996V4.875C0 3.79959 0.874781 2.9248 1.9502 2.9248H4.4707L7.11035 0.286133C7.29316 0.103275 7.54124 5.52205e-05 7.7998 0H11.6992ZM9.75 4.875C7.10778 4.875 4.875 7.10779 4.875 9.75C4.87509 12.3921 7.10783 14.625 9.75 14.625C12.392 14.6248 14.6249 12.392 14.625 9.75C14.625 7.10791 12.3921 4.87519 9.75 4.875ZM9.75 6.82422C11.3353 6.82422 12.6747 8.16376 12.6748 9.74902C12.6748 11.3343 11.3353 12.6738 9.75 12.6738C8.16474 12.6737 6.8252 11.3343 6.8252 9.74902C6.82528 8.16382 8.16479 6.82431 9.75 6.82422Z" fill="#697198"/>
</svg>
