<svg width="11" height="11" viewBox="0 0 11 11" fill="none" xmlns="http://www.w3.org/2000/svg">
<path d="M9.46144 0.128105C9.63226 -0.0427174 9.90922 -0.0426856 10.0801 0.128105C10.2509 0.298925 10.2509 0.575887 10.0801 0.746757L5.72446 5.1041L10.0801 9.46144C10.2509 9.63231 10.2509 9.90927 10.0801 10.0801C9.90922 10.2509 9.63226 10.2509 9.46144 10.0801L5.10581 5.72275L0.746757 10.0801C0.575887 10.2509 0.298925 10.2509 0.128105 10.0801C-0.0426856 9.90922 -0.0427174 9.63226 0.128105 9.46144L4.48715 5.1041L0.128105 0.746757C-0.0427174 0.575937 -0.0426856 0.298975 0.128105 0.128105C0.298925 -0.0427174 0.575887 -0.0426856 0.746757 0.128105L5.10581 4.48544L9.46144 0.128105Z" fill="#8B94B2"/>
</svg>
