<svg width="13" height="12" viewBox="0 0 13 12" fill="none" xmlns="http://www.w3.org/2000/svg">
<path d="M2.24111 0C2.49585 0 2.74015 0.10243 2.92027 0.284757C3.1004 0.467084 3.20159 0.714373 3.20159 0.972222V10.6944C3.20159 10.9523 3.1004 11.1996 2.92027 11.3819C2.74015 11.5642 2.49585 11.6667 2.24111 11.6667H0.960476C0.705742 11.6667 0.461441 11.5642 0.281317 11.3819C0.101193 11.1996 0 10.9523 0 10.6944V0.972222C0 0.714373 0.101193 0.467084 0.281317 0.284757C0.461441 0.10243 0.705742 0 0.960476 0H2.24111ZM6.08302 0C6.33775 0 6.58205 0.10243 6.76218 0.284757C6.9423 0.467084 7.04349 0.714373 7.04349 0.972222V10.6944C7.04349 10.9523 6.9423 11.1996 6.76218 11.3819C6.58205 11.5642 6.33775 11.6667 6.08302 11.6667H4.80238C4.54765 11.6667 4.30335 11.5642 4.12322 11.3819C3.9431 11.1996 3.84191 10.9523 3.84191 10.6944V0.972222C3.84191 0.714373 3.9431 0.467084 4.12322 0.284757C4.30335 0.10243 4.54765 0 4.80238 0H6.08302ZM10.7452 2.02482L12.8032 10.139C12.8345 10.2627 12.8415 10.3914 12.8238 10.5178C12.806 10.6442 12.7638 10.7658 12.6996 10.8757C12.6353 10.9856 12.5504 11.0817 12.4495 11.1583C12.3486 11.235 12.2338 11.2908 12.1116 11.3225L10.9104 11.6336C10.7882 11.6654 10.661 11.6725 10.5361 11.6545C10.4113 11.6365 10.2911 11.5938 10.1825 11.5288C10.0739 11.4638 9.97909 11.3777 9.90336 11.2756C9.82763 11.1735 9.77251 11.0573 9.74115 10.9336L7.68317 2.82204C7.6518 2.69836 7.6448 2.56964 7.66257 2.44323C7.68035 2.31682 7.72255 2.19519 7.78676 2.08529C7.85098 1.97539 7.93596 1.87936 8.03684 1.80271C8.13772 1.72605 8.25253 1.67026 8.37471 1.63852L9.57595 1.32546C9.69813 1.2937 9.82529 1.28662 9.95018 1.30461C10.0751 1.3226 10.1952 1.36532 10.3038 1.43032C10.4124 1.49532 10.5072 1.58134 10.583 1.68345C10.6587 1.78557 10.7138 1.90114 10.7452 2.02482Z" fill="#697198"/>
</svg>
