<svg width="167" height="136" viewBox="0 0 167 136" fill="none" xmlns="http://www.w3.org/2000/svg">
<path d="M69.3135 0.644531C79.6786 0.644531 88.8609 5.70308 94.5312 13.4844C99.1808 6.26723 107.288 1.48828 116.512 1.48828C128.709 1.48844 138.953 9.84738 141.831 21.1494C143.789 20.4251 145.907 20.0293 148.117 20.0293C158.125 20.0293 166.238 28.1426 166.238 38.1504C166.238 47.4832 159.182 55.167 150.114 56.1611C148.891 69.9234 137.334 80.7139 123.254 80.7139C115.762 80.7138 108.984 77.6577 104.097 72.7256C99.6661 79.5609 91.9719 84.084 83.2197 84.084C76.3354 84.084 70.1047 81.2864 65.6025 76.7656C61.9083 80.7479 56.6318 83.2412 50.7715 83.2412C43.9729 83.2412 37.9575 79.8878 34.29 74.7441C28.4082 78.9818 21.9311 80.1814 17.291 77.2275C13.7339 74.963 11.9303 70.687 11.8906 65.6055C7.39963 62.7689 4.41602 57.7621 4.41602 52.0576C4.41611 45.0395 8.93116 39.0763 15.2148 36.9131C13.7035 34.153 12.8448 30.9849 12.8447 27.6162C12.8447 16.9102 21.5235 8.23145 32.2295 8.23145C36.9582 8.23151 41.2907 9.92512 44.6553 12.7383C50.3597 5.38103 59.2832 0.644539 69.3135 0.644531Z" fill="#72685C" fill-opacity="0.8"/>
<ellipse cx="14.3354" cy="92.5335" rx="7.5854" ry="5.05693" fill="#72685C" fill-opacity="0.8"/>
<ellipse cx="6.24382" cy="114.43" rx="6.04757" ry="5.05693" transform="rotate(-2.27836 6.24382 114.43)" fill="#72685C" fill-opacity="0.8"/>
<ellipse cx="18.3017" cy="130.176" rx="4.10589" ry="3.43331" transform="rotate(-54.6141 18.3017 130.176)" fill="#72685C" fill-opacity="0.8"/>
<path d="M51.7363 41.7441C51.7363 43.8223 54.1152 45.6816 56.2344 46.0781L55.7422 46.9805C53.9102 46.5566 51.9756 45.251 51.1895 43.4531C50.4033 45.2441 48.4756 46.5498 46.6367 46.9805L46.1445 46.0781C48.25 45.668 50.6152 43.8359 50.6152 41.7441V40.8145H51.7363V41.7441ZM56.8086 49.5645V50.4531H45.6797V49.5645H56.8086ZM67.623 46.2832V47.1582H63.8496V49.7012H68.9082V50.5898H57.7793V49.7012H62.7832V47.1582H59.2148V40.9512H67.4863V41.8398H60.3086V43.5762H67.2266V44.4512H60.3086V46.2832H67.623ZM79.9688 39.9531V52.1348H78.8887V44.8613H75.1016V43.9727H78.8887V39.9531H79.9688ZM71.6289 41.3203V48.2793C73.4814 48.2588 75.1357 48.1631 76.9609 47.7871L77.0977 48.6758C75.1562 49.0723 73.4473 49.1816 71.4785 49.1816H70.5488V41.3203H71.6289ZM96.5664 46.0234V46.8984H85.4922V46.0234H90.4961V44.5469H86.9004V40.4453H95.1992V41.334H87.9668V43.6582H95.3086V44.5469H91.5625V46.0234H96.5664ZM95.2129 48.0879V52.2031H94.1465V48.9629H86.7227V48.0879H95.2129ZM101.871 43.2207C101.871 45.4219 103.279 47.6367 105.043 48.4434L104.4 49.3184C103.02 48.6074 101.878 47.1514 101.338 45.4219C100.798 47.2402 99.6562 48.7988 98.2754 49.5371L97.5781 48.6758C99.3555 47.8008 100.777 45.4629 100.777 43.2207V41.0059H101.871V43.2207ZM107.668 39.9531V52.1348H106.602V44.9844H103.717V44.1094H106.602V39.9531H107.668ZM124.279 45.6406V46.5293H119.262V47.8281C121.559 47.9238 122.912 48.6758 122.926 49.9609C122.912 51.3145 121.354 52.0801 118.742 52.0801C116.104 52.0801 114.545 51.3145 114.545 49.9609C114.545 48.6758 115.892 47.9238 118.209 47.8281V46.5293H113.205V45.6406H124.279ZM118.742 48.6484C116.787 48.6621 115.625 49.1406 115.639 49.9609C115.625 50.7676 116.787 51.2461 118.742 51.2461C120.67 51.2461 121.846 50.7676 121.846 49.9609C121.846 49.1406 120.67 48.6621 118.742 48.6484ZM123.295 40.5273V41.4023H119.439C119.508 42.7695 121.518 43.8291 123.664 44.0547L123.268 44.9023C121.278 44.6631 119.412 43.7744 118.742 42.4141C118.079 43.7744 116.22 44.6631 114.217 44.9023L113.834 44.0547C115.939 43.8291 117.963 42.7695 118.045 41.4023H114.217V40.5273H123.295Z" fill="#1D160D"/>
</svg>
