<svg width="44" height="44" viewBox="0 0 44 44" fill="none" xmlns="http://www.w3.org/2000/svg">
<rect width="44" height="44" rx="8" fill="#F1494B" fill-opacity="0.2"/>
<path d="M33.9384 23.4094L33.6999 24.6544C33.4794 25.8184 32.3889 26.6014 31.1544 26.4814L28.6989 26.2444C27.6279 26.1409 26.8344 25.3594 26.4984 24.2494C26.0424 22.7419 25.7484 21.6244 25.7484 21.6244C24.5638 21.1173 23.2868 20.8619 21.9984 20.8744C20.4774 20.8744 19.3914 21.1969 18.2484 21.6244C18.2484 21.6244 17.9424 22.7434 17.4984 24.2494C17.2014 25.2544 16.7424 26.1349 15.6939 26.2399L13.2519 26.4859C12.6572 26.543 12.061 26.3938 11.5634 26.0633C11.0657 25.7328 10.6969 25.2412 10.5189 24.6709L10.1469 23.4289C9.96336 22.8343 9.94704 22.2007 10.0997 21.5975C10.2524 20.9942 10.5681 20.4446 11.0124 20.0089C13.1499 17.9314 16.9974 16.7614 21.9864 16.7539C26.9844 16.7494 30.3774 17.9134 32.7294 19.9894C33.7194 20.8624 34.1739 22.1764 33.9384 23.4094Z" fill="#F1494B"/>
</svg>
