<svg width="44" height="44" viewBox="0 0 44 44" fill="none" xmlns="http://www.w3.org/2000/svg">
<rect width="44" height="44" rx="8" fill="#FFCF5C" fill-opacity="0.2"/>
<path fill-rule="evenodd" clip-rule="evenodd" d="M20.138 11.816C20.5859 11.6816 21.059 11.6538 21.5196 11.7348C21.9802 11.8158 22.4154 12.0033 22.7906 12.2824C23.1658 12.5616 23.4706 12.9245 23.6805 13.3424C23.8905 13.7602 23.9999 14.2213 24 14.689V29.313C23.9999 29.7806 23.8905 30.2417 23.6805 30.6596C23.4706 31.0774 23.1658 31.4404 22.7906 31.7195C22.4154 31.9986 21.9802 32.1861 21.5196 32.2671C21.059 32.3481 20.5859 32.3203 20.138 32.186L14.138 30.386C13.5201 30.2006 12.9784 29.821 12.5933 29.3035C12.2082 28.7859 12.0001 28.1581 12 27.513V16.489C12.0001 15.8439 12.2082 15.216 12.5933 14.6984C12.9784 14.1809 13.5201 13.8013 14.138 13.616L20.138 11.816ZM25 14.001C25 13.7357 25.1054 13.4814 25.2929 13.2939C25.4804 13.1063 25.7348 13.001 26 13.001H29C29.7956 13.001 30.5587 13.317 31.1213 13.8796C31.6839 14.4423 32 15.2053 32 16.001V17.001C32 17.2662 31.8946 17.5205 31.7071 17.7081C31.5196 17.8956 31.2652 18.001 31 18.001C30.7348 18.001 30.4804 17.8956 30.2929 17.7081C30.1054 17.5205 30 17.2662 30 17.001V16.001C30 15.7357 29.8946 15.4814 29.7071 15.2939C29.5196 15.1063 29.2652 15.001 29 15.001H26C25.7348 15.001 25.4804 14.8956 25.2929 14.7081C25.1054 14.5205 25 14.2662 25 14.001ZM31 26.001C31.2652 26.001 31.5196 26.1063 31.7071 26.2939C31.8946 26.4814 32 26.7357 32 27.001V28.001C32 28.7966 31.6839 29.5597 31.1213 30.1223C30.5587 30.6849 29.7956 31.001 29 31.001H26C25.7348 31.001 25.4804 30.8956 25.2929 30.7081C25.1054 30.5205 25 30.2662 25 30.001C25 29.7357 25.1054 29.4814 25.2929 29.2939C25.4804 29.1063 25.7348 29.001 26 29.001H29C29.2652 29.001 29.5196 28.8956 29.7071 28.7081C29.8946 28.5205 30 28.2662 30 28.001V27.001C30 26.7357 30.1054 26.4814 30.2929 26.2939C30.4804 26.1063 30.7348 26.001 31 26.001ZM19 21.001C18.7348 21.001 18.4804 21.1063 18.2929 21.2939C18.1054 21.4814 18 21.7357 18 22.001C18 22.2662 18.1054 22.5205 18.2929 22.7081C18.4804 22.8956 18.7348 23.001 19 23.001H19.001C19.2662 23.001 19.5206 22.8956 19.7081 22.7081C19.8956 22.5205 20.001 22.2662 20.001 22.001C20.001 21.7357 19.8956 21.4814 19.7081 21.2939C19.5206 21.1063 19.2662 21.001 19.001 21.001H19Z" fill="#FFCF5C"/>
<path d="M26 22H31H26ZM31 22L29 20L31 22ZM31 22L29 24L31 22Z" fill="#FFCF5C"/>
<path d="M26 22H31M31 22L29 20M31 22L29 24" stroke="#FFCF5C" stroke-width="2" stroke-linecap="round" stroke-linejoin="round"/>
</svg>
