<svg width="44" height="44" viewBox="0 0 44 44" fill="none" xmlns="http://www.w3.org/2000/svg">
<rect width="44" height="44" rx="8" fill="#423C35"/>
<path d="M29.9995 23.9995C29.7332 24.0055 29.4683 23.9583 29.2205 23.8605C28.9726 23.7628 28.7468 23.6165 28.5563 23.4303C28.3658 23.2441 28.2144 23.0217 28.111 22.7761C28.0076 22.5306 27.9543 22.2669 27.9543 22.0005C27.9542 21.7341 28.0074 21.4704 28.1106 21.2248C28.2139 20.9792 28.3652 20.7567 28.5556 20.5704C28.746 20.3841 28.9718 20.2377 29.2195 20.1398C29.4673 20.042 29.7321 19.9946 29.9985 20.0005C30.5211 20.012 31.0183 20.2277 31.3839 20.6013C31.7494 20.9749 31.9541 21.4768 31.9543 21.9995C31.9544 22.5222 31.7499 23.0242 31.3846 23.398C31.0192 23.7718 30.522 23.9877 29.9995 23.9995ZM15.9995 21.9995C16.0055 22.2658 15.9583 22.5307 15.8605 22.7785C15.7628 23.0263 15.6165 23.2521 15.4303 23.4427C15.2441 23.6332 15.0217 23.7846 14.7761 23.888C14.5306 23.9913 14.2669 24.0446 14.0005 24.0447C13.7341 24.0448 13.4704 23.9916 13.2248 23.8884C12.9792 23.7851 12.7567 23.6338 12.5704 23.4434C12.3841 23.253 12.2377 23.0272 12.1398 22.7794C12.042 22.5317 11.9946 22.2668 12.0005 22.0005C12.012 21.4779 12.2277 20.9807 12.6013 20.6151C12.9749 20.2496 13.4768 20.0448 13.9995 20.0447C14.5222 20.0446 15.0242 20.2491 15.398 20.6144C15.7718 20.9798 15.9877 21.4769 15.9995 21.9995ZM23.9995 21.9995C24.0055 22.2658 23.9583 22.5307 23.8605 22.7785C23.7628 23.0263 23.6165 23.2521 23.4303 23.4427C23.2441 23.6332 23.0217 23.7846 22.7761 23.888C22.5306 23.9913 22.2669 24.0446 22.0005 24.0447C21.7341 24.0448 21.4704 23.9916 21.2248 23.8884C20.9792 23.7851 20.7567 23.6338 20.5704 23.4434C20.3841 23.253 20.2377 23.0272 20.1398 22.7794C20.042 22.5317 19.9946 22.2668 20.0005 22.0005C20.012 21.4779 20.2277 20.9807 20.6013 20.6151C20.9749 20.2496 21.4768 20.0448 21.9995 20.0447C22.5222 20.0446 23.0242 20.2491 23.398 20.6144C23.7718 20.9798 23.9877 21.4769 23.9995 21.9995Z" fill="white"/>
</svg>
