<svg width="44" height="44" viewBox="0 0 44 44" fill="none" xmlns="http://www.w3.org/2000/svg">
<rect width="44" height="44" rx="8" fill="#423C35"/>
<path d="M26.6464 18.6464C26.8417 18.4512 27.1583 18.4512 27.3536 18.6464L30 21.2929L32.6464 18.6464C32.8417 18.4512 33.1583 18.4512 33.3536 18.6464C33.5488 18.8417 33.5488 19.1583 33.3536 19.3536L30.7071 22L33.3536 24.6464C33.5488 24.8417 33.5488 25.1583 33.3536 25.3536C33.1583 25.5488 32.8417 25.5488 32.6464 25.3536L30 22.7071L27.3536 25.3536C27.1583 25.5488 26.8417 25.5488 26.6464 25.3536C26.4512 25.1583 26.4512 24.8417 26.6464 24.6464L29.2929 22L26.6464 19.3536C26.4512 19.1583 26.4512 18.8417 26.6464 18.6464Z" fill="white"/>
<path fill-rule="evenodd" clip-rule="evenodd" d="M21.787 13.2917C22.95 12.5247 24.5 13.3597 24.5 14.7527V29.0387C24.5 30.4327 22.95 31.2667 21.787 30.4997L15.787 26.5447C15.7464 26.5177 15.6988 26.5031 15.65 26.5027H12.75C12.0207 26.5027 11.3212 26.213 10.8055 25.6973C10.2897 25.1816 10 24.4821 10 23.7527V20.0387C10 19.6776 10.0711 19.32 10.2093 18.9864C10.3475 18.6527 10.5501 18.3496 10.8055 18.0942C11.0608 17.8388 11.364 17.6363 11.6976 17.4981C12.0313 17.3599 12.3889 17.2887 12.75 17.2887H15.65C15.699 17.2889 15.747 17.2746 15.788 17.2477L21.787 13.2917Z" fill="white"/>
</svg>
