<svg width="44" height="44" viewBox="0 0 44 44" fill="none" xmlns="http://www.w3.org/2000/svg">
<rect width="44" height="44" rx="8" fill="#423C35"/>
<path fill-rule="evenodd" clip-rule="evenodd" d="M26.9698 16.9693C27.1105 16.8289 27.3011 16.75 27.4998 16.75C27.6986 16.75 27.8892 16.8289 28.0298 16.9693L28.0318 16.9713L28.0348 16.9733L28.0418 16.9803L28.0618 17.0003L28.1238 17.0693C28.1738 17.1263 28.2438 17.2073 28.3248 17.3103C29.2488 18.5113 29.7498 19.9841 29.7498 21.4993C29.7498 23.0146 29.2488 24.4874 28.3248 25.6883C28.2411 25.7952 28.153 25.8986 28.0608 25.9983L28.0408 26.0183L28.0348 26.0253L28.0318 26.0273L28.0308 26.0283L27.5208 25.5203L28.0308 26.0303C27.8901 26.171 27.6993 26.2501 27.5003 26.2501C27.3014 26.2501 27.1105 26.171 26.9698 26.0303C26.8291 25.8896 26.7501 25.6988 26.7501 25.4998C26.7501 25.3009 26.8291 25.11 26.9698 24.9693L26.9688 24.9703L26.9668 24.9713L26.9718 24.9663L27.0048 24.9303C27.0368 24.8957 27.0832 24.84 27.1438 24.7633C27.7765 23.9375 28.1556 22.9456 28.2351 21.9083C28.3147 20.8711 28.0912 19.833 27.5918 18.9203C27.4615 18.6801 27.3116 18.451 27.1438 18.2353C27.0895 18.1652 27.0322 18.0974 26.9718 18.0323L26.9668 18.0273C26.8274 17.8864 26.7494 17.696 26.75 17.4977C26.7506 17.2995 26.8296 17.1095 26.9698 16.9693Z" fill="white"/>
<path fill-rule="evenodd" clip-rule="evenodd" d="M29.97 13.9693C30.1106 13.8288 30.3012 13.7499 30.5 13.7499C30.6988 13.7499 30.8894 13.8288 31.03 13.9693L31.033 13.9713L31.036 13.9743L31.045 13.9843C31.0884 14.027 31.1297 14.0717 31.169 14.1183C31.248 14.2073 31.357 14.3363 31.485 14.5033C31.742 14.8363 32.079 15.3263 32.414 15.9633C33.084 17.2373 33.75 19.1063 33.75 21.4993C33.75 23.8923 33.084 25.7613 32.414 27.0363C32.1471 27.5488 31.8363 28.0373 31.485 28.4963C31.3468 28.6759 31.2 28.8488 31.045 29.0143L31.035 29.0243L31.033 29.0273L31.031 29.0283L30.5 28.4993L31.03 29.0293C30.8886 29.1659 30.6992 29.2416 30.5025 29.24C30.3059 29.2384 30.1178 29.1596 29.9786 29.0206C29.8395 28.8816 29.7605 28.6936 29.7587 28.4969C29.7569 28.3003 29.8324 28.1108 29.969 27.9693L29.983 27.9553L30.046 27.8853C30.1053 27.8199 30.1887 27.7186 30.296 27.5813C30.508 27.3053 30.796 26.8883 31.086 26.3373C31.666 25.2373 32.25 23.6063 32.25 21.4993C32.25 19.3923 31.666 17.7613 31.086 16.6613C30.8583 16.225 30.594 15.8088 30.296 15.4173C30.1968 15.2884 30.0924 15.1636 29.983 15.0433L29.969 15.0293C29.8286 14.8886 29.7497 14.698 29.7497 14.4993C29.7497 14.3005 29.8295 14.1099 29.97 13.9693ZM22.037 13.3953C23.2 12.6283 24.75 13.4633 24.75 14.8563V29.1423C24.75 30.5363 23.2 31.3703 22.037 30.6033L16.037 26.6483C15.9964 26.6212 15.9488 26.6066 15.9 26.6063H13C12.2707 26.6063 11.5712 26.3165 11.0555 25.8008C10.5397 25.2851 10.25 24.5856 10.25 23.8563V20.1423C10.25 19.7811 10.3211 19.4235 10.4593 19.0899C10.5975 18.7562 10.8001 18.4531 11.0555 18.1977C11.3108 17.9423 11.614 17.7398 11.9476 17.6016C12.2813 17.4634 12.6389 17.3923 13 17.3923H15.9C15.949 17.3924 15.997 17.3782 16.038 17.3513L22.037 13.3953Z" fill="white"/>
</svg>
