<svg width="18" height="18" viewBox="0 0 18 18" fill="none" xmlns="http://www.w3.org/2000/svg">
<path d="M16.2196 0.219608C16.5124 -0.0732298 16.9872 -0.0731753 17.2802 0.219608C17.573 0.512442 17.5729 0.987234 17.2802 1.28015L9.81336 8.74988L17.2802 16.2196C17.5729 16.5125 17.573 16.9873 17.2802 17.2802C16.9872 17.5729 16.5124 17.573 16.2196 17.2802L8.75281 9.81043L1.28015 17.2802C0.987234 17.5729 0.512442 17.573 0.219608 17.2802C-0.0731754 16.9872 -0.0732298 16.5124 0.219608 16.2196L7.69226 8.74988L0.219608 1.28015C-0.0732298 0.98732 -0.0731754 0.512528 0.219608 0.219608C0.512442 -0.0732298 0.987234 -0.0731754 1.28015 0.219608L8.75281 7.68933L16.2196 0.219608Z" fill="#ECECEC"/>
</svg>
