<svg width="20" height="20" viewBox="0 0 20 20" fill="none" xmlns="http://www.w3.org/2000/svg">
<path d="M16 8.75C16 6.8272 15.2356 4.98267 13.876 3.62305C12.5164 2.2637 10.6726 1.50002 8.75 1.5C6.8272 1.5 4.98267 2.26342 3.62305 3.62305C2.26342 4.98267 1.5 6.8272 1.5 8.75C1.50002 10.6726 2.2637 12.5164 3.62305 13.876C4.98267 15.2356 6.8272 16 8.75 16C10.6728 16 12.5164 15.2356 13.876 13.876C15.2356 12.5164 16 10.6728 16 8.75ZM17.5 8.75C17.5 10.8192 16.7645 12.8109 15.4424 14.3818L19.2803 18.2197C19.573 18.5126 19.5731 18.9874 19.2803 19.2803C18.9874 19.5731 18.5126 19.573 18.2197 19.2803L14.3818 15.4424C12.8109 16.7645 10.8192 17.5 8.75 17.5C6.42941 17.5 4.20342 16.5784 2.5625 14.9375C0.921589 13.2966 2.04574e-05 11.0706 0 8.75C0 6.42938 0.921571 4.20343 2.5625 2.5625C4.20343 0.921571 6.42938 0 8.75 0C11.0706 2.04577e-05 13.2966 0.921589 14.9375 2.5625C16.5784 4.20342 17.5 6.42941 17.5 8.75Z" fill="#ECECEC"/>
</svg>
