<svg width="88" height="24" viewBox="0 0 88 24" fill="none" xmlns="http://www.w3.org/2000/svg">
<g clip-path="url(#clip0_280_1224)">
<path d="M1.83326 1.83998C2.28741 1.78027 2.78336 1.79456 3.2649 1.88979C3.29939 1.88405 3.33886 1.87993 3.38111 1.88197C4.0284 1.90903 4.67858 1.93097 5.25806 1.95912C8.41546 2.1124 11.4822 2.26442 14.6028 2.39076C15.2361 2.41643 15.8276 2.45914 16.4534 2.47475C16.5663 2.47733 16.4349 2.42816 16.5432 2.42982C16.8719 2.43552 17.1815 2.46495 17.5139 2.47279C17.6828 2.47666 17.5611 2.44382 17.8069 2.45131C18.5926 2.47509 19.6264 2.51737 20.4133 2.57338C20.7515 2.59767 20.6754 2.64282 20.844 2.67299C20.91 2.68464 20.9685 2.68743 21.0208 2.68764C21.2371 2.69326 21.4176 2.81164 21.4973 2.92689C21.6137 3.11767 21.4681 2.98353 21.511 3.07533C21.601 3.20872 21.5885 3.66126 21.5501 3.69154C21.4575 3.87424 21.4757 3.79955 21.5071 3.68959C21.5365 3.5797 21.5279 3.43055 21.5139 3.41811C21.4288 3.37443 21.3501 3.45232 21.2727 3.48256C21.2738 3.55426 21.2621 3.62607 21.2336 3.68764C21.2147 3.72839 21.1796 3.7813 21.135 3.84389C21.2247 3.76237 21.3024 3.69559 21.2854 3.72084C21.0973 4.14106 20.8138 4.26062 20.5354 4.57338C20.3782 4.74346 20.8282 4.3858 20.7004 4.51381C20.1884 4.97313 20.1936 4.90976 20.4309 4.61342C20.1937 4.82462 19.9641 4.98215 19.8313 4.96791L19.5266 4.93471C19.5161 4.94756 19.5011 4.95716 19.4876 4.95717C19.2946 4.95083 19.1732 4.91665 19.0852 4.88588L18.7424 4.84877C18.7198 4.8594 18.6944 4.87235 18.6663 4.88979C18.5789 4.84556 18.4576 4.8219 18.3186 4.80287L15.886 4.53725C15.9048 4.54886 15.9242 4.5621 15.8274 4.56068C15.627 4.5576 15.5099 4.50286 15.2463 4.52162C15.1775 4.52667 14.7762 4.5549 14.5422 4.48256C14.515 4.47423 14.5155 4.44222 14.4827 4.43373C14.3437 4.40027 14.2025 4.41163 14.0559 4.37904C14.02 4.3712 14.1034 4.34832 14.0295 4.3351L12.6077 4.17982C12.5924 4.17975 12.5769 4.18235 12.5618 4.18178C12.3707 4.17394 12.2367 4.15013 12.1116 4.12611L11.6477 4.07533C11.5977 4.08057 11.5709 4.09017 11.4524 4.07826C10.9166 4.0244 10.411 3.93919 9.85474 3.88881C9.72205 3.8766 9.61541 3.89951 9.42994 3.881C9.35359 3.87328 9.26291 3.83706 9.19263 3.80775L6.13306 3.47475L8.18091 5.13295C8.20329 5.14193 8.23016 5.15384 8.26002 5.17201C8.54814 5.34757 8.89823 5.70421 9.03443 5.81068C9.7766 6.39102 10.2877 6.7565 10.9563 7.32826C10.9698 7.34156 10.8893 7.32428 10.9758 7.3976L11.0344 7.44447C11.2414 7.61026 11.5098 7.81419 11.6985 7.96498C11.7352 7.99447 11.7651 8.02719 11.7903 8.05775L12.7112 8.80287C12.7397 8.81516 12.7652 8.82935 12.7893 8.83705C12.9782 8.8977 12.9927 9.01807 13.1419 9.08412C13.1874 9.10363 13.1756 9.06268 13.2063 9.07826C13.4368 9.19684 13.6395 9.44932 13.7307 9.53529C14.1079 9.89093 14.6828 10.2974 14.9739 10.5294C15.2623 10.7592 15.0879 10.5695 15.0989 10.5724C15.3009 10.6576 15.2846 10.7521 15.3049 10.7716C15.8819 11.3164 16.4468 11.6944 17.0715 12.2404C17.1288 12.2918 17.198 12.4521 17.4114 12.549C17.4232 12.5522 17.3896 12.4804 17.4817 12.5499C17.755 12.7565 18.0501 13.0016 18.3274 13.2218C18.3527 13.2669 18.392 13.3205 18.4387 13.3742L18.6428 13.5783C18.7428 13.6953 18.7569 13.8324 18.8157 13.8253C18.8208 13.9987 18.7482 14.1953 18.5794 14.3283C18.207 14.6086 17.9764 15.1064 17.8909 15.4279C17.8799 15.4653 17.8704 15.5017 17.8616 15.5353C17.7624 15.8424 17.5706 15.9174 17.4221 15.9747C17.2711 16.0163 17.0755 16.0621 16.8665 15.8888C16.8363 15.8608 16.8025 15.8305 16.7669 15.799C16.702 15.7416 16.7312 15.8223 16.7131 15.8087C16.2697 15.4384 16.4874 15.53 16.4338 15.381C16.4167 15.3352 16.222 15.1971 16.1799 15.1447C16.167 15.1283 16.1573 15.1114 16.1477 15.0978L15.3499 14.3517C15.2835 14.3281 15.2494 14.3448 15.2463 14.4005C15.1217 14.2265 15.1255 14.1767 15.0813 14.1017L14.6585 13.7062C14.6529 13.7185 14.6454 13.7317 14.595 13.6876C13.9298 13.1022 13.2546 12.4734 12.5862 11.8898C12.5028 11.8172 12.5425 11.907 12.5217 11.8908C12.1342 11.5641 12.3558 11.669 12.3001 11.5206C12.2959 11.51 12.2815 11.4931 12.2649 11.4699L11.5012 10.756C11.4456 10.7594 11.4876 10.9776 11.1829 10.6574C10.8627 10.3205 11.1029 10.4625 10.5442 9.96791C10.2343 9.69362 10.0691 9.53156 9.54615 9.05189C9.02156 8.57076 7.77135 7.48935 7.15845 6.84877C7.01678 6.70069 7.16693 6.7548 7.17994 6.71693L7.04908 6.59584C7.02011 6.59177 7.05757 6.66457 6.99439 6.6349C6.90474 6.59233 6.82788 6.45961 6.70533 6.3849C6.75925 6.50093 6.77799 6.56325 6.72193 6.56557L6.72974 6.58217C6.89507 6.81521 6.83862 6.46965 7.02759 6.87514C7.0329 6.89037 6.95859 6.83625 7.01685 6.95326C7.77557 8.47716 8.57391 9.88078 9.36939 11.4376C9.38746 11.4733 9.54754 11.8263 9.57935 11.922C9.58117 11.9343 9.49943 11.8606 9.59009 12.0392C9.68312 12.2224 9.9282 12.7011 10.0344 12.8829C10.1406 13.0645 10.0733 12.8668 10.1311 12.963C10.2609 13.1795 10.1089 13.0006 10.1936 13.1828C10.3088 13.4303 10.525 13.8335 10.6506 14.0538C10.7343 14.2004 10.7198 14.1021 10.7424 14.1281C10.9016 14.313 11.0001 14.6747 11.0286 14.7433C11.2027 15.1628 11.349 15.358 11.5217 15.7169C11.5645 15.8063 11.4968 15.7399 11.551 15.838C11.7533 16.203 12.0318 16.4604 12.1819 16.8956C12.2446 17.0789 11.9712 16.8525 12.2864 17.3497C12.3332 17.423 12.299 17.3039 12.3567 17.3849C12.4158 17.4683 12.6368 17.8099 12.6711 17.9191C12.6874 17.9729 12.6483 18.0032 12.6292 18.046L12.762 18.3048C12.889 18.4278 12.8538 18.3195 13.1194 18.7384C13.1245 18.7392 13.0999 18.6153 13.1965 18.7872C13.2514 18.885 13.375 19.1219 13.4885 19.341C13.631 19.605 13.5159 19.8905 13.4631 19.9669C13.3091 20.2015 13.1626 20.2031 13.1145 20.1984C13.0602 20.1886 13.0579 20.1566 13.0295 20.1613C12.9992 20.1662 12.9699 20.1689 12.9426 20.1701C12.5933 20.1861 12.5119 20.301 12.2854 20.3956C12.1796 20.4415 12.0647 20.4658 11.9602 20.5206C11.9274 20.5379 11.9927 20.551 11.9827 20.5568C11.577 20.7318 11.5288 20.535 11.2502 20.7413C11.2177 20.7671 11.3581 20.7542 11.2678 20.84C11.2405 20.8619 10.9812 21.1504 10.8704 21.2101C10.7762 21.258 10.7047 21.2916 10.6458 21.3175C10.5097 21.3814 10.4178 21.3834 10.2932 21.3742C10.1787 21.3559 9.96358 21.3334 9.81763 21.049C9.80995 21.0322 9.80148 21.0141 9.79322 20.9962C9.76707 20.9396 9.75083 21.0042 9.73755 20.9787C8.67729 18.7199 7.74892 16.3935 6.73169 14.0939C6.6669 13.6833 6.38344 13.2006 6.17212 12.6456C6.14564 12.5753 6.16322 12.4007 6.01294 12.2081C6.00354 12.1964 6.03733 12.3589 5.94263 12.1505C5.77707 11.7858 5.60943 11.4125 5.44263 11.0363C5.47492 11.4123 5.50473 11.7868 5.53345 12.1554C5.55076 12.3784 5.49225 12.2044 5.49732 12.2833C5.54228 12.951 5.66846 13.3859 5.7024 14.0783C5.70448 14.1341 5.63687 14.3255 5.71412 14.5314C5.72011 14.5419 5.75047 14.502 5.76002 14.5744C5.80653 14.9246 5.73809 15.0135 5.78834 15.379C5.79992 15.4603 5.82621 15.2993 5.84595 15.4728C5.9344 16.255 6.01041 17.0847 6.07252 17.8859C6.08411 18.0391 6.02036 17.8555 6.03443 18.0158C6.095 18.7069 6.12375 19.2512 6.23365 19.9894C6.24877 20.088 6.37109 20.5266 6.34302 20.799C6.33901 20.8305 6.30151 20.8049 6.30689 20.9171C6.32285 21.241 6.35213 21.5844 6.38013 21.9249C6.39559 22.3031 6.14079 22.5321 5.92505 22.6759C5.79451 22.7539 5.88527 22.652 5.7981 22.6974C5.38685 22.8537 5.73971 22.7823 5.3733 22.8888C5.31275 22.8992 5.24594 22.9043 5.17408 22.8986C4.71878 22.8675 4.13049 22.889 3.63892 22.9308C3.14368 22.7761 1.8577 23.0202 1.05591 23.1915C0.924493 23.2188 1.10061 23.231 0.969 23.256C0.962323 23.2573 0.955188 23.2586 0.948492 23.2599C0.559828 23.3426 0.143129 23.0103 0.148687 22.5988C0.131332 21.5278 0.128683 20.4564 0.133062 19.38C0.133583 19.2534 0.180357 19.3733 0.180914 19.2706C0.184643 18.2866 0.163164 17.4271 0.160406 16.4142C0.158231 15.5639 0.173863 14.6076 0.174078 13.714C0.174211 12.5368 0.126797 11.4603 0.162359 10.2062C0.164702 10.1362 0.24818 9.60322 0.187749 9.37611C0.180534 9.34857 0.148439 9.41387 0.138921 9.25893C0.12948 9.10323 0.126282 8.64118 0.133062 8.46596C0.139887 8.29216 0.179662 8.43488 0.18189 8.32729C0.190752 7.81471 0.171141 7.24555 0.170171 6.76771C0.169726 6.41837 0.170468 6.35623 0.164312 5.98744C0.161215 5.79581 0.1678 5.32595 0.158453 5.07826C0.154309 4.97026 0.115986 5.06727 0.112554 5.04213C0.0715429 4.64203 0.144403 5.03935 0.15064 4.64271C0.159041 4.09018 0.162151 3.48575 0.154546 2.88393C0.150675 2.65058 0.279441 2.40765 0.500249 2.29213C0.739301 2.16257 0.987803 2.05269 1.23853 1.96693C1.48672 1.88889 1.3406 1.8404 1.74732 1.81068C1.77138 1.81057 1.70123 1.85799 1.83326 1.83998ZM33.0168 7.60951C33.2674 7.59045 33.4671 7.62279 33.6038 7.71498C33.7913 7.72769 34.0527 7.80484 34.1995 7.85658C34.3449 7.90745 34.3856 7.83195 34.3997 7.83217C34.8286 7.8806 35.0563 8.00233 35.4651 8.17201C35.6603 8.25188 36.0443 8.42013 36.2483 8.52553C36.4103 8.60708 36.4946 8.68081 36.6418 8.75893C36.6609 8.76838 36.6629 8.72683 36.6692 8.72768C36.8498 8.79082 36.726 8.82018 36.7473 8.85463C36.8293 8.982 36.8807 9.05416 37.0852 9.17201C37.1317 9.19854 37.3398 9.19209 37.4231 9.25014C37.5301 9.3258 37.4621 9.33082 37.5725 9.41029C37.5818 9.41719 37.6005 9.39342 37.6624 9.44936C37.7917 9.56691 37.9206 9.69475 38.0471 9.82728C38.2038 9.99147 38.3573 10.1643 38.5042 10.3341C38.54 10.3757 38.5304 10.2927 38.5823 10.3517C38.8302 10.6372 39.0746 10.9785 39.2483 11.3058C39.2902 11.3852 39.2355 11.3562 39.2356 11.3761C39.2474 11.5079 39.4023 11.615 39.4192 11.6408C39.7753 12.2206 39.8934 12.7384 40.095 13.3937C40.1071 13.4284 40.2585 13.6933 40.2034 13.8351C40.2 13.8451 40.1435 13.9828 40.2131 14.0851C40.2175 14.0916 40.2466 14.0081 40.262 14.1447C40.2771 14.2817 40.3296 14.5021 40.2971 14.6945C40.2869 14.7557 40.2167 14.8995 40.2844 15.0744C40.2877 15.0822 40.3466 15.1886 40.3655 15.2941C40.377 15.3552 40.3739 15.4157 40.3362 15.4513C40.319 15.4661 40.2156 15.4518 40.2688 15.6525C40.2793 15.6911 40.3029 15.6226 40.3176 15.7238C40.3401 15.88 40.3119 16.0875 40.3586 16.2794C40.3671 16.3132 40.438 16.4562 40.384 16.5704C40.3753 16.5875 40.3403 16.5551 40.3362 16.6144C40.3173 16.9017 40.3409 17.2035 40.3167 17.4953C40.308 17.5979 40.2509 17.5465 40.2356 17.6535C40.2204 17.7612 40.2059 17.9781 40.2317 18.091C40.2577 18.2036 40.3482 18.0816 40.3557 18.2492C40.3872 18.9836 40.3342 19.7121 40.3264 20.4454C40.3253 20.5541 40.358 20.4656 40.3586 20.6251C40.3609 21.1631 40.3865 22.0568 40.3391 22.5997L40.3323 23.0382L39.9065 23.0324C39.8532 23.0277 39.8029 23.0219 39.7571 23.0158C39.3469 22.9605 39.8631 22.9181 39.5491 22.8956C39.398 22.8853 39.2346 22.9905 39.1975 22.9943C38.8402 23.028 38.5914 22.9809 38.2698 22.9953C38.2039 22.9983 38.2681 23.0409 38.2122 23.0431C38.0191 23.0505 37.8156 23.0318 37.6311 23.0353C37.5487 23.037 37.5635 23.069 37.4876 23.0665C37.3814 23.0632 37.2821 23.0575 37.1829 23.047L36.7297 23.0402L36.7356 22.5997C36.7431 22.529 36.7532 22.4576 36.7659 22.3839C36.7695 22.3706 36.8093 22.4753 36.8108 22.3419C36.8132 22.1238 36.8429 21.8526 36.8118 21.6017C36.8021 21.5279 36.7283 21.5238 36.7795 21.3644C36.791 21.3316 36.88 21.3723 36.803 21.1867C36.7891 21.1522 36.6857 20.8417 36.7522 20.6886C36.7702 20.6478 36.8438 20.5436 36.8323 20.4542C36.8287 20.4451 36.7903 20.489 36.7864 20.4171C36.7733 20.1556 36.7774 19.8801 36.7649 19.6115C36.7611 19.5418 36.7199 19.6465 36.7161 19.5402C36.7056 19.2461 36.7158 18.8785 36.7288 18.591C36.7337 18.4857 36.768 18.5576 36.7717 18.5499C36.8321 18.4262 36.7512 18.3528 36.7463 18.3117C36.7178 18.0558 36.7556 17.8601 36.7454 17.6242C36.7424 17.5599 36.7039 17.6049 36.7004 17.5919C36.6669 17.4587 36.7366 17.5576 36.7444 17.4728C36.7663 17.2343 36.7631 16.9678 36.7581 16.7267C36.7559 16.6394 36.7114 16.7375 36.7102 16.6583C36.7027 16.2066 36.7063 15.7371 36.7288 15.2941C36.7297 15.2774 36.7299 15.2599 36.7307 15.2433C36.7345 15.1651 36.7699 15.213 36.7776 15.1964C36.8314 15.0798 36.7442 14.9166 36.7327 14.88C36.6833 14.7117 36.7043 14.641 36.6721 14.4923C36.5258 13.7633 36.0956 12.9462 35.5989 12.4279C35.5712 12.3978 35.5429 12.3681 35.5149 12.339C34.9088 11.7188 34.2979 11.34 33.4739 11.172C33.4195 11.1618 33.4642 11.2182 33.4172 11.2101C33.1418 11.1624 32.8626 11.1372 32.5803 11.1359C32.2418 11.1343 31.9055 11.1672 31.5813 11.2511C31.5331 11.2638 31.6126 11.2896 31.5364 11.3117C31.3791 11.3573 31.1826 11.4188 31.0247 11.4689C30.9477 11.4934 31.0326 11.4168 30.9553 11.4425C30.7736 11.5041 30.5874 11.5975 30.4231 11.7081C30.3536 11.7555 30.484 11.7258 30.3928 11.7843C30.1354 11.9524 29.8987 12.1514 29.677 12.3703C29.3711 12.677 29.1006 13.0148 28.8694 13.3888C28.8425 13.4322 28.7399 13.434 28.7092 13.5431C28.7288 13.5609 28.7565 13.5729 28.7795 13.5871C28.5483 14.1217 28.4321 14.7002 28.4251 15.2941C28.4186 15.8458 28.4107 16.3986 28.4085 16.9542C28.4083 17.0049 28.4571 16.9187 28.4573 17.0158C28.4566 17.5852 28.4693 18.1394 28.4211 18.7218C28.416 18.7789 28.3314 18.7509 28.344 18.9201C28.3464 18.9509 28.3579 19.205 28.3762 19.2726C28.379 19.2816 28.4188 19.2359 28.4202 19.3175C28.4262 19.7978 28.4172 20.3019 28.3928 20.7814C28.3888 20.8583 28.3466 20.7776 28.343 20.8312C28.3205 21.2221 28.3532 21.648 28.3147 22.0216C28.2888 22.2714 28.2149 22.1797 28.1428 22.3117C28.1326 22.3305 28.1311 22.4862 28.0891 22.4943C28.0596 22.5 28.0291 22.4982 27.9983 22.4933V22.6007H27.8948C27.8299 22.628 27.7557 22.6536 27.7415 22.6535C27.5844 22.6507 27.4485 22.6276 27.3567 22.6007H26.845C26.8557 22.6333 26.8527 22.6858 26.7903 22.6964C26.7007 22.7115 26.5649 22.6797 26.4407 22.7033C26.4108 22.7091 26.2423 22.8056 26.219 22.8117C26.0387 22.8576 26.0127 22.703 26.0032 22.6945C25.895 22.6037 25.6899 22.7073 25.635 22.715C25.5064 22.7321 25.387 22.7338 25.2737 22.7355L25.136 22.7335L25.1379 22.5997C25.1364 22.4945 25.1357 22.3931 25.1243 22.2931C25.1087 22.1578 25.0069 22.1438 25.01 22.0372C25.0204 21.6828 25.1621 21.5581 25.0393 21.2238C25.0126 21.1534 24.9028 21.2225 24.9895 20.9669C24.9962 20.948 25.0745 20.7589 25.0247 20.6496C25.0177 20.6363 24.9854 20.6353 24.9827 20.6173C24.9654 20.4955 24.9911 20.4133 24.9788 20.2804C24.9664 20.1474 24.9483 19.9869 24.9592 19.8351C24.966 19.7435 25.0256 19.625 25.0403 19.5812C25.0825 19.4574 25.0133 19.3239 25.0647 19.2472C25.1165 19.1709 25.1954 19.321 25.2288 19.1183C25.1448 19.1108 25.0583 19.0933 24.9739 19.0812C24.9769 18.6365 25.004 18.1983 25.0002 17.7521C24.9994 17.6979 24.9544 17.7528 24.9524 17.6945C24.9453 17.4443 24.9779 17.2244 24.9651 16.965C24.9549 16.7642 24.9068 16.543 24.8948 16.3331C24.9905 16.2045 24.9583 15.8934 24.967 15.6671C24.9702 15.5884 24.9958 15.5926 25.0042 15.5363C25.0349 15.324 24.9501 15.4227 24.9368 15.3644C24.931 15.339 24.9281 15.3153 24.927 15.2941C24.9195 15.099 25.072 15.0555 25.0823 14.7853C25.0802 14.7655 24.9948 14.5654 24.9915 14.5372C24.9668 14.3606 25.0295 14.5115 25.0481 14.4044C25.0836 14.2092 25.1266 14.0774 25.1379 13.8439C25.1407 13.7759 25.1102 13.6014 25.1887 13.4835C25.1992 13.4687 25.2295 13.4848 25.2346 13.4718C25.3259 13.236 25.2279 13.2027 25.2336 13.0519C25.2403 12.9003 25.3834 12.7087 25.4192 12.674C25.5083 12.5841 25.4149 12.759 25.4133 12.7755C25.4495 12.8676 25.491 12.7112 25.5403 12.5978C25.6438 12.6177 25.7001 12.4579 25.5911 12.4806C25.5787 12.486 25.5532 12.576 25.5403 12.5978C25.483 12.4607 25.5434 12.2715 25.719 12.1212C25.8021 12.052 25.8069 12.1564 25.9231 11.8849C25.9774 11.7627 25.8897 11.7735 25.9299 11.6593C26.0238 11.3962 26.2743 11.13 26.4319 10.8986C26.4885 10.8149 26.3987 10.8709 26.4368 10.8126C26.5398 10.6569 26.6653 10.5459 26.7747 10.3947C26.7837 10.3812 26.7274 10.3853 26.7649 10.341C26.905 10.1754 27.0477 10.0303 27.1965 9.88978C27.3511 9.74408 27.5125 9.60256 27.6907 9.45033C27.8583 9.30429 28.1609 9.0416 28.3567 8.91615C28.6928 8.69257 29.1534 8.50608 29.4583 8.35365C29.6578 8.25392 29.5979 8.23642 29.676 8.17299C29.8279 8.04984 30.1718 8.03371 30.22 8.03627C30.2097 8.04037 30.0468 8.10504 30.1467 8.09291C30.2145 8.115 30.2179 8.04178 30.22 8.03627C30.25 8.03421 30.6203 7.93654 30.6936 7.91322C30.7327 7.89916 30.7015 7.86718 30.7219 7.86049C31.2149 7.70506 31.7335 7.62641 32.2551 7.62514C32.2642 7.62558 32.2528 7.66894 32.2737 7.67006C32.3889 7.67341 32.4876 7.6689 32.5803 7.66029C32.7295 7.64654 32.8621 7.62146 33.0168 7.60951ZM77.384 0.614395L77.8284 0.619277L77.8235 1.05385C77.8218 1.17028 77.8201 1.2845 77.8186 1.39369C77.8023 2.56955 77.769 3.48343 77.7776 4.60463C77.7783 4.67479 77.824 4.60549 77.8254 4.66518C77.8366 5.45816 77.8189 6.23976 77.8323 7.03432C77.8333 7.09936 77.8768 7.00724 77.8801 7.11049C77.8868 7.32494 77.8844 7.59762 77.8704 7.81459C77.8636 7.91978 77.8258 7.78009 77.8196 7.8849C77.8054 8.13282 77.8028 8.39975 77.8098 8.65443C77.813 8.76213 77.8579 8.60108 77.8587 8.74037C77.8631 9.70069 77.8701 10.6449 77.8118 11.6154C77.8084 11.6683 77.7505 11.7171 77.7356 11.8058C78.3914 11.2541 79.0509 10.7068 79.7092 10.1486C79.7531 10.1109 79.6449 10.1386 79.7317 10.0646C80.2358 9.63502 80.7174 9.20713 81.2639 8.80385C81.3177 8.76497 81.3479 8.85079 81.4895 8.71303C81.5167 8.68657 81.7342 8.48486 81.7805 8.42104C81.7804 8.41361 81.7232 8.41503 81.7922 8.35463C82.0609 8.12018 82.3418 7.88248 82.6243 7.65248L82.9251 7.4015L83.1897 7.67592C83.3312 7.82583 83.4713 7.97673 83.6067 8.12611C83.6669 8.19269 83.5709 8.15521 83.6126 8.20229C83.9164 8.54138 84.2874 8.87119 84.5657 9.20717C84.7513 9.43157 84.6247 9.40828 84.6809 9.56752C84.689 9.59009 84.8126 9.71889 84.7913 9.756C84.7749 9.78154 84.7507 9.80071 84.7249 9.8185L84.8137 9.90736L84.7239 9.98256C84.6841 10.0527 84.6349 10.1307 84.6213 10.1427V10.1417C84.4765 10.2607 84.3372 10.3468 84.2376 10.3947L83.7893 10.7746C83.8203 10.7906 83.8527 10.8341 83.804 10.8898C83.7342 10.9686 83.5923 11.0462 83.4973 11.1574C83.475 11.1835 83.389 11.3827 83.3713 11.4074C83.2417 11.5769 83.1189 11.4801 83.1038 11.4796C82.9491 11.4914 82.8332 11.7251 82.7893 11.7726C82.5904 11.9844 82.3881 12.1269 82.219 12.3009C82.1087 12.4145 82.1618 12.5025 82.0657 12.5802C81.7442 12.839 81.5418 12.8246 81.3245 13.1691C81.2778 13.2429 81.4122 13.2741 81.1282 13.4005C81.1089 13.409 80.8901 13.492 80.8245 13.6124C80.8164 13.6275 80.8366 13.6523 80.8235 13.6681C80.7264 13.7733 80.6367 13.8157 80.5266 13.9249C80.4165 14.0343 80.2856 14.1686 80.1438 14.2746C80.0584 14.3383 79.9144 14.3817 79.8655 14.4035C79.854 14.4085 79.8438 14.4167 79.8333 14.423C80.2043 14.7457 80.5585 15.0788 80.9368 15.3966C80.9859 15.4377 80.9657 15.3618 81.0188 15.4044C81.245 15.5878 81.4185 15.777 81.6565 15.963C81.8409 16.1069 82.0672 16.2376 82.261 16.3869C82.3123 16.5568 82.6091 16.7679 82.804 16.9454C82.8719 17.0073 82.852 17.023 82.8958 17.0714C83.0635 17.255 83.0317 17.1172 83.0911 17.1496C83.3497 17.295 83.2451 17.4579 83.509 17.6769C83.523 17.6885 83.7572 17.7543 83.7864 17.7697C83.9609 17.8639 83.789 17.8186 83.8753 17.9025C84.0355 18.0572 84.1379 18.1771 84.3557 18.3234C84.4195 18.3659 84.5994 18.4359 84.6799 18.5685C84.6904 18.5858 84.6618 18.6056 84.6712 18.6173C84.8648 18.8257 84.94 18.7503 85.0862 18.8273C85.2321 18.9045 85.3746 19.1215 85.4006 19.172C85.4657 19.2987 85.3112 19.1276 85.2991 19.1232C85.1938 19.1172 85.3392 19.2271 85.4417 19.3214C85.3893 19.414 85.5414 19.5355 85.5481 19.4191C85.5448 19.4044 85.4599 19.3429 85.4417 19.3214C85.6008 19.3231 85.7722 19.4524 85.8899 19.6779C85.945 19.7837 85.8325 19.7562 86.0999 19.9591C86.2215 20.0514 86.2243 19.9594 86.3391 20.0314C86.5121 20.1402 86.6848 20.312 86.8528 20.4728L87.0549 20.6496L86.8674 20.8351C86.7777 20.9159 86.691 20.9968 86.6174 21.0763C86.5394 21.1606 86.6444 21.1092 86.593 21.1671C86.4539 21.3229 86.3029 21.4335 86.1663 21.5929C86.154 21.6073 86.2148 21.6043 86.1702 21.6505C85.8261 22.0051 85.5042 22.2932 85.1409 22.6593C85.0971 22.7034 85.0457 22.7579 84.9905 22.8165L84.7854 23.0187L84.5735 22.8341C84.3851 22.681 84.1501 22.4948 84.0051 22.3663C83.6699 22.0696 83.2896 21.6663 82.9895 21.4288C82.7944 21.2744 82.8084 21.34 82.7092 21.2921C82.5171 21.1992 82.3022 20.8883 82.2747 20.8449C82.2773 20.8462 82.4429 20.9745 82.3704 20.8849C82.3487 20.8116 82.2803 20.8442 82.2747 20.8449C82.2519 20.8127 81.9358 20.5305 81.8665 20.4816C81.829 20.4556 81.8231 20.5007 81.804 20.4865C81.3455 20.1405 80.902 19.7746 80.4719 19.3829C80.4668 19.3752 80.5036 19.3523 80.4866 19.3361C80.2434 19.1028 80.0444 19.0021 79.8128 18.8458C79.5816 18.6898 79.4212 18.5386 79.345 18.3751C79.1796 18.2461 78.9721 18.0252 78.8538 17.8976C78.7357 17.7707 78.6613 17.8193 78.6487 17.8107C78.2817 17.5625 78.1016 17.3597 77.7825 17.0714C77.8114 17.2346 77.7305 17.1513 77.7141 17.1896C77.6541 17.3436 77.6216 17.4401 77.6497 17.7033C77.6566 17.7643 77.7886 17.9411 77.7971 18.0519C77.807 18.1959 77.7595 18.1432 77.7708 18.2931C77.772 18.3057 77.8011 18.3049 77.8001 18.3966C77.7944 18.8289 77.7776 19.3009 77.7805 19.7501C77.7808 19.8112 77.8267 19.7348 77.8284 19.8214C77.8339 20.2375 77.8326 20.6953 77.8108 21.1007C77.8053 21.1988 77.7732 21.1403 77.7629 21.1593C77.7049 21.2906 77.7875 21.477 77.7913 21.5119C77.813 21.9053 77.8014 22.2512 77.7913 22.6007L77.7864 23.0128L77.384 23.0079C77.0743 22.999 76.7598 22.9917 76.4045 23.0089C76.3624 23.0114 76.0459 23.1018 75.9045 23.0236C75.8921 23.0168 75.7533 22.9396 75.6311 22.9933C75.6237 22.9968 75.7096 23.0385 75.5579 23.0343C75.4056 23.0302 75.1605 23.0572 74.9514 23.0119C74.9002 23.0007 74.795 22.9504 74.6594 22.9572L74.2991 22.9533L74.303 22.6007C74.3009 22.5609 74.2939 22.5174 74.2795 22.4728C74.271 22.4514 74.1316 22.1523 74.2297 22.0451C74.2479 22.0284 74.3514 22.0437 74.2981 21.8107C74.2875 21.7675 74.2639 21.8463 74.2493 21.7287C74.2268 21.5469 74.2541 21.3054 74.2073 21.0822C74.1981 21.0416 74.1279 20.8755 74.1819 20.7433C74.1911 20.7245 74.2259 20.7608 74.2297 20.6915C74.2485 20.3576 74.225 20.0071 74.2493 19.6681C74.2581 19.549 74.3151 19.6086 74.3303 19.4835C74.3455 19.3579 74.3601 19.1057 74.3342 18.9747C74.308 18.8451 74.2175 18.9859 74.2102 18.7902C74.1787 17.9358 74.2317 17.0877 74.2395 16.2345C74.2404 16.11 74.2079 16.2124 74.2073 16.0265C74.2048 15.3386 74.1745 14.1513 74.2434 13.5548C74.2986 13.0783 74.3411 13.6778 74.3635 13.3126C74.3737 13.1368 74.2694 12.9462 74.2659 12.9035C74.2323 12.4881 74.2782 12.1983 74.2639 11.8244C74.2606 11.7486 74.2181 11.8225 74.2161 11.757C74.2087 11.5326 74.2283 11.2956 74.2249 11.0812C74.2229 10.9863 74.1901 11.0024 74.1926 10.9142C74.1983 10.7026 74.2119 10.5141 74.2424 10.3078C74.2469 10.2959 74.2858 10.4123 74.2874 10.2599C74.2898 10.0063 74.3204 9.69024 74.2893 9.39857C74.2795 9.31285 74.205 9.30737 74.2561 9.12221C74.2679 9.08467 74.3564 9.13063 74.2795 8.91518C74.2651 8.87301 74.163 8.51237 74.2297 8.3351C74.2482 8.28708 74.3203 8.16697 74.3088 8.06361C74.3053 8.05295 74.2668 8.104 74.2629 8.01967C74.2499 7.71553 74.254 7.39556 74.2415 7.08314C74.2377 7.00223 74.1974 7.12354 74.1936 7.00014C74.1832 6.65803 74.1933 6.23004 74.2063 5.89564C74.2113 5.77456 74.2451 5.85619 74.2493 5.84877C74.3095 5.70485 74.2277 5.61828 74.2229 5.57045C74.1945 5.27302 74.2331 5.04499 74.2229 4.77064C74.2198 4.69675 74.1805 4.74854 74.177 4.73354C74.1436 4.57897 74.2132 4.69364 74.221 4.59486C74.2428 4.31769 74.2406 4.00794 74.2356 3.72768C74.2335 3.62621 74.188 3.73965 74.1868 3.6476C74.179 3.10029 74.1833 2.53034 74.2083 1.99623C74.2132 1.89689 74.2482 1.95855 74.2561 1.93764C74.3112 1.79311 74.236 1.58101 74.2288 1.53236C74.1973 1.32107 74.2236 1.23226 74.221 1.05385L74.2258 0.610488L74.6594 0.615371C74.6672 0.615243 74.6757 0.614641 74.6838 0.614395C75.5239 0.589169 76.5383 0.602353 77.384 0.614395ZM49.0422 7.51576C49.5287 7.48744 50.0108 7.57838 50.4876 7.67104C50.5593 7.6852 50.5062 7.64269 50.6126 7.66225C51.0065 7.72806 51.687 7.90387 51.9807 8.10658C52.214 8.26406 51.8792 8.1684 52.0627 8.27064C52.1498 8.31944 52.2914 8.27187 52.3176 8.27846C52.5504 8.35175 52.6782 8.47281 52.8723 8.5685C52.912 8.5881 52.8965 8.53016 52.9299 8.54701C53.0465 8.60703 53.1536 8.69608 53.259 8.76186C53.3063 8.79126 53.3166 8.7597 53.3577 8.79018C53.4564 8.86421 53.538 8.93933 53.6155 9.03529C53.6224 9.044 53.5408 9.03285 53.6116 9.08803C53.7268 9.17766 53.8496 9.31453 53.9963 9.39955C54.0399 9.42425 54.091 9.37095 54.137 9.47963C54.1462 9.50288 54.0668 9.54989 54.2102 9.57631C54.2363 9.58064 54.4592 9.6495 54.4856 9.76967C54.4886 9.78375 54.4907 9.81186 54.4954 9.84096C54.5013 9.87755 54.5121 9.91743 54.5393 9.93666C54.5462 9.94074 54.5533 9.89024 54.5901 9.92201C54.7212 10.0381 54.8423 10.177 54.969 10.3058C55.0028 10.3401 54.9884 10.2595 55.0374 10.3107C55.174 10.4551 55.3196 10.6585 55.4221 10.8244C55.459 10.8842 55.4062 10.8671 55.4036 10.8722C55.4025 10.9746 55.4962 10.9694 55.5168 10.9894C55.6381 11.117 55.6774 11.2502 55.7678 11.382C55.7921 11.4173 55.81 11.373 55.8176 11.3771C55.8931 11.4387 55.7992 11.4167 55.8206 11.4699C55.8823 11.6206 55.9693 11.7773 56.0452 11.922C56.073 11.9751 56.0852 11.8962 56.1096 11.9435C56.2555 12.2293 56.3753 12.544 56.4475 12.8488C56.4607 12.9053 56.4171 12.8827 56.4124 12.8956C56.3851 12.9914 56.4914 13.0869 56.5071 13.1134C56.5736 13.2287 56.5568 13.2859 56.5891 13.3947C56.7521 13.9295 56.8096 14.6215 56.802 15.1408C56.8017 15.1923 56.8005 15.2439 56.7991 15.2941C56.7793 15.9003 56.704 16.3923 56.5891 16.9796C56.5809 17.0198 56.6341 16.9902 56.6282 17.0246C56.5398 17.4789 56.383 17.9106 56.2122 18.3419C56.1982 18.377 56.2594 18.3448 56.2385 18.4015C56.1943 18.5199 56.1234 18.6643 56.053 18.7716C56.0189 18.8237 56.0228 18.7341 55.9895 18.7853C55.9109 18.9074 55.8335 19.0422 55.7639 19.173C55.7344 19.2286 55.8207 19.1703 55.7795 19.2404C55.4932 19.7237 55.1588 20.1705 54.7336 20.5402C54.7045 20.5654 54.6147 20.5285 54.5715 20.5978C54.5855 20.6197 54.6077 20.6406 54.6252 20.6613C54.594 20.6947 54.5617 20.7279 54.5295 20.7609C53.9991 21.3043 53.3749 21.7518 52.6985 22.1144C52.6691 22.1305 52.7432 22.1454 52.6848 22.1769C52.3439 22.3589 52.0007 22.5248 51.6116 22.6085C51.5732 22.6164 51.5637 22.5302 51.4602 22.5773C51.442 22.5862 51.2807 22.6482 51.2424 22.6779C51.238 22.6825 51.2785 22.7122 51.2258 22.7287C50.9148 22.8237 50.5774 22.8858 50.2551 22.9083C50.2041 22.9114 50.2516 22.8615 50.2151 22.8634C49.9545 22.8783 49.6746 22.936 49.4251 22.9083C49.2595 22.8889 49.3166 22.8131 49.2288 22.7433C49.2149 22.7338 49.116 22.7323 49.1106 22.6906C49.1068 22.6608 49.1078 22.6299 49.1106 22.5988C49.0876 22.599 49.0643 22.6007 49.0413 22.6007C49.0198 22.6007 48.9982 22.5989 48.9768 22.5988C48.9352 22.6259 48.8874 22.6524 48.8772 22.6525L48.7717 22.6388C48.7134 22.627 48.6637 22.6086 48.6272 22.589C48.5197 22.5836 48.4127 22.5772 48.3069 22.5675C48.3109 22.6008 48.3047 22.6532 48.2639 22.6603C48.2044 22.6698 48.1201 22.6284 48.0374 22.6417C48.0162 22.6466 47.8971 22.7257 47.8801 22.7296C47.7558 22.7574 47.7646 22.6011 47.76 22.5919C47.7061 22.4913 47.5578 22.5694 47.5208 22.5695C47.3566 22.5703 47.2274 22.5175 47.0911 22.506C47.0023 22.4984 46.9655 22.593 46.8987 22.5714C46.6749 22.4945 46.6447 22.3353 46.3967 22.3751C46.3439 22.3833 46.3468 22.5038 46.22 22.3605C46.2098 22.3489 46.1246 22.2296 46.0393 22.2462C46.0285 22.2486 46.0153 22.2786 46.0032 22.2765C45.922 22.2596 45.8829 22.2136 45.7981 22.1867C45.713 22.1597 45.6081 22.1277 45.5237 22.0704C45.4726 22.0357 45.4331 21.9451 45.4153 21.9181C45.3649 21.8421 45.2547 21.8572 45.2376 21.7872C45.222 21.7173 45.3448 21.7 45.2512 21.6037C45.2031 21.6724 45.1483 21.7404 45.0969 21.8078C44.8473 21.6487 44.6254 21.4579 44.3928 21.2775C44.3644 21.2559 44.3648 21.3132 44.3333 21.2902C44.1991 21.1911 44.1096 21.0724 43.9739 20.9669C43.8687 20.8855 43.7292 20.8193 43.6213 20.7287C43.6216 20.7239 43.6216 20.7187 43.6213 20.714C43.615 20.5913 43.4587 20.4715 43.3684 20.3585C43.3359 20.3178 43.3565 20.3029 43.3381 20.2697C43.2694 20.1453 43.2485 20.2484 43.2131 20.2287C43.0618 20.1386 43.1986 20.0041 43.0754 19.8566C43.0634 19.8481 42.9115 19.8114 42.8958 19.8009C42.7963 19.7369 42.9133 19.7644 42.8782 19.7042C42.815 19.5945 42.7841 19.5089 42.677 19.4025C42.6452 19.3717 42.535 19.3185 42.5325 19.2208C42.5331 19.2082 42.5637 19.1951 42.5608 19.1867C42.5054 19.0334 42.4122 19.0827 42.3342 19.0197C42.257 18.9558 42.2533 18.7945 42.259 18.7589C42.2724 18.6692 42.3059 18.7941 42.3137 18.7999C42.3923 18.8118 42.3336 18.7269 42.303 18.6544C42.3902 18.597 42.3365 18.5034 42.2708 18.5792C42.2651 18.5888 42.2993 18.6379 42.303 18.6544C42.1807 18.6394 42.1128 18.5319 42.1448 18.3703C42.1607 18.2955 42.231 18.3275 42.1399 18.1622C42.0992 18.0874 42.0448 18.1444 41.9983 18.0812C41.8916 17.9344 41.8792 17.6957 41.8176 17.5275C41.7952 17.4669 41.7756 17.5379 41.759 17.4962C41.7152 17.3849 41.7153 17.2755 41.6721 17.1632C41.6666 17.1558 41.6343 17.1876 41.6252 17.1525C41.5545 16.8777 41.5355 16.6295 41.4983 16.338C41.4796 16.1969 41.4332 15.9454 41.4299 15.798C41.4252 15.6396 41.4444 15.4594 41.4592 15.2941C41.4683 15.192 41.4758 15.0958 41.4729 15.0128C41.4686 14.8723 41.4267 14.9004 41.4016 14.838C41.3533 14.7166 41.4675 14.515 41.4856 14.4894C41.486 14.4899 41.4853 14.6105 41.512 14.548C41.558 14.5149 41.4857 14.4908 41.4856 14.4894C41.4966 14.4674 41.5327 14.2301 41.5325 14.1818C41.5307 14.1568 41.492 14.1645 41.4915 14.1515C41.5021 13.8219 41.559 13.4919 41.6663 13.174C41.6704 13.1699 41.7082 13.1884 41.7131 13.1759C41.7837 12.9966 41.7712 12.8633 41.7942 12.7013C41.8177 12.5397 41.8757 12.4228 41.9807 12.3644C42.0177 12.2495 42.1189 12.1053 42.1799 12.0255C42.24 11.9463 42.1724 11.8959 42.1741 11.8869C42.2501 11.6188 42.3711 11.5017 42.5266 11.2667C42.6006 11.1544 42.7409 10.9267 42.8206 10.8048C42.8831 10.7079 42.9415 10.6652 42.9973 10.5744C43.0028 10.5627 42.9675 10.5506 42.967 10.546C43.0058 10.4264 43.0425 10.5261 43.0706 10.5187C43.173 10.4883 43.231 10.4681 43.3079 10.3371C43.3246 10.3062 43.2939 10.1427 43.3313 10.09C43.3801 10.0229 43.3946 10.0776 43.4456 10.007C43.4487 10.0005 43.4282 9.98022 43.4651 9.9435C43.5054 9.90345 43.5478 9.86268 43.5911 9.8224C43.7363 9.68719 43.8945 9.55336 44.0432 9.42103C44.0687 9.3979 44.0048 9.39174 44.0422 9.35756C44.2209 9.196 44.4315 9.03265 44.636 8.9142C44.6857 8.8857 44.6766 8.93202 44.6917 8.93373C44.7872 8.93742 44.8292 8.80766 44.844 8.79506C45.1822 8.52302 45.5101 8.42745 45.8928 8.21205C45.9146 8.19769 46.0487 8.04262 46.1545 8.08412C46.1658 8.08833 46.2674 8.12971 46.3137 8.05482C46.3116 8.04893 46.2583 8.0281 46.3391 8.00209C46.4234 7.97493 46.5502 7.90168 46.6799 7.90834C46.7216 7.9104 46.8299 7.9593 46.9221 7.86732C46.9306 7.85609 47.0645 7.67716 47.1497 7.75697C47.1637 7.77078 47.1779 7.87491 47.2981 7.79213C47.3197 7.77647 47.2701 7.76329 47.3333 7.73451C47.4317 7.68994 47.5741 7.69048 47.6946 7.62318C47.7155 7.61082 47.8013 7.52596 47.886 7.5685C47.8989 7.5754 47.8818 7.61287 47.9221 7.61146C48.1166 7.60399 48.3165 7.56116 48.5139 7.57338C48.5827 7.5781 48.5519 7.63584 48.6233 7.6476C48.6955 7.65902 48.8405 7.66946 48.9143 7.64271C48.9879 7.61559 48.9057 7.52573 49.0188 7.51771C49.0263 7.51721 49.0347 7.51621 49.0422 7.51576ZM65.5032 7.51576C65.9896 7.48741 66.4718 7.57839 66.9485 7.67104C67.0204 7.68527 66.9675 7.64282 67.0735 7.66225C67.4673 7.72802 68.1477 7.90392 68.4417 8.10658C68.675 8.26404 68.3408 8.16866 68.5237 8.27064C68.6104 8.31933 68.7515 8.27232 68.7786 8.27846C69.0113 8.35171 69.1393 8.47281 69.3333 8.5685C69.373 8.58818 69.3578 8.53064 69.3909 8.54701C69.5074 8.60698 69.6146 8.69608 69.72 8.76186C69.7672 8.79128 69.7778 8.76002 69.8186 8.79018C69.9172 8.86417 69.999 8.93943 70.0764 9.03529C70.0834 9.044 70.0021 9.03306 70.0725 9.08803C70.1877 9.1776 70.3106 9.31451 70.4573 9.39955C70.5008 9.42435 70.5519 9.37112 70.5979 9.47963C70.6071 9.50286 70.5281 9.54988 70.6712 9.57631C70.6965 9.58039 70.92 9.64931 70.9465 9.76967C70.9496 9.78374 70.9517 9.81188 70.9563 9.84096C70.9622 9.87743 70.9732 9.91735 71.0003 9.93666C71.0072 9.94115 71.0143 9.89055 71.051 9.92201C71.1821 10.038 71.3033 10.1771 71.4299 10.3058C71.4637 10.3401 71.4496 10.2599 71.4983 10.3107C71.6349 10.455 71.7805 10.6585 71.8831 10.8244C71.9201 10.8843 71.8669 10.867 71.8645 10.8722C71.8634 10.9742 71.9567 10.9696 71.9778 10.9894C72.099 11.117 72.1385 11.2503 72.2288 11.382C72.2528 11.4169 72.2708 11.3741 72.2786 11.3771C72.3541 11.4387 72.2604 11.417 72.2815 11.4699C72.3432 11.6205 72.4303 11.7774 72.5061 11.922C72.5339 11.975 72.5462 11.8967 72.5706 11.9435C72.7165 12.2292 72.8363 12.5441 72.9085 12.8488C72.9217 12.9055 72.8779 12.8824 72.8733 12.8956C72.8461 12.9911 72.9519 13.0867 72.968 13.1134C73.0346 13.2287 73.0178 13.286 73.0501 13.3947C73.2131 13.9295 73.2706 14.6215 73.2629 15.1408C73.2626 15.1923 73.2614 15.2439 73.26 15.2941C73.2402 15.9003 73.165 16.3923 73.0501 16.9796C73.0419 17.0199 73.0952 16.9901 73.0891 17.0246C73.0007 17.479 72.844 17.9105 72.6731 18.3419C72.6592 18.3771 72.7206 18.3446 72.6995 18.4015C72.6552 18.52 72.5843 18.6643 72.5139 18.7716C72.4798 18.8236 72.4838 18.7337 72.4504 18.7853C72.3718 18.9074 72.2945 19.0421 72.2249 19.173C72.1953 19.2286 72.2818 19.17 72.2405 19.2404C71.9541 19.7237 71.6198 20.1705 71.1946 20.5402C71.1653 20.5652 71.0755 20.5283 71.0325 20.5978C71.0464 20.6196 71.0686 20.6406 71.0862 20.6613C71.0549 20.6948 71.0227 20.7279 70.9905 20.7609C70.46 21.3043 69.8359 21.7518 69.1594 22.1144C69.1305 22.1305 69.2044 22.1454 69.1458 22.1769C68.8049 22.3589 68.4616 22.5248 68.0725 22.6085C68.0343 22.6159 68.0246 22.5301 67.9212 22.5773C67.902 22.5866 67.7412 22.6483 67.7034 22.6779C67.6994 22.6828 67.7395 22.7123 67.6868 22.7287C67.3757 22.8237 67.0383 22.8858 66.7161 22.9083C66.6655 22.9112 66.7128 22.8614 66.676 22.8634C66.4155 22.8783 66.1355 22.9361 65.886 22.9083C65.7208 22.8888 65.7776 22.813 65.6897 22.7433C65.6749 22.7339 65.5769 22.732 65.5715 22.6906C65.5678 22.6609 65.5687 22.6298 65.5715 22.5988C65.5489 22.599 65.5259 22.6007 65.5032 22.6007C65.4814 22.6007 65.4594 22.5989 65.4378 22.5988C65.396 22.626 65.3479 22.6527 65.3381 22.6525L65.2327 22.6388C65.1743 22.627 65.1247 22.6087 65.0881 22.589C64.9809 22.5836 64.8743 22.5772 64.7688 22.5675C64.7728 22.6008 64.7658 22.6533 64.7249 22.6603C64.6653 22.6696 64.581 22.6284 64.4983 22.6417C64.4764 22.6472 64.3572 22.7263 64.3411 22.7296C64.217 22.7571 64.2255 22.6011 64.221 22.5919C64.1669 22.4915 64.0184 22.5697 63.9817 22.5695C63.8176 22.5702 63.6883 22.5174 63.552 22.506C63.4634 22.4986 63.4264 22.5932 63.3596 22.5714C63.1361 22.4945 63.1057 22.3352 62.8577 22.3751C62.8052 22.3837 62.8075 22.5036 62.6809 22.3605C62.6699 22.3476 62.5851 22.2295 62.5002 22.2462C62.4894 22.249 62.4762 22.2789 62.4641 22.2765C62.3831 22.2595 62.3438 22.2136 62.259 22.1867C62.174 22.1597 62.069 22.1277 61.9846 22.0704C61.9337 22.0356 61.894 21.945 61.8762 21.9181C61.8258 21.8423 61.7157 21.8571 61.6985 21.7872C61.6831 21.7174 61.8057 21.7 61.7122 21.6037C61.664 21.6725 61.6093 21.7404 61.5579 21.8078C61.3083 21.6487 61.0863 21.4579 60.8538 21.2775C60.8256 21.2565 60.8257 21.3133 60.7942 21.2902C60.6602 21.1911 60.5705 21.0723 60.4348 20.9669C60.3297 20.8855 60.19 20.8192 60.0823 20.7287C60.0825 20.7239 60.0825 20.7187 60.0823 20.714C60.076 20.5913 59.9196 20.4715 59.8293 20.3585C59.7971 20.3179 59.8174 20.3028 59.7991 20.2697C59.7304 20.1455 59.7095 20.2486 59.6741 20.2287C59.5232 20.1386 59.6595 20.004 59.5364 19.8566C59.5226 19.8477 59.372 19.8113 59.3567 19.8009C59.2577 19.7371 59.3742 19.7643 59.3391 19.7042C59.276 19.5946 59.2449 19.5088 59.1379 19.4025C59.1058 19.3717 58.9959 19.3182 58.9934 19.2208C58.994 19.2082 59.0247 19.1951 59.0217 19.1867C58.9663 19.0335 58.8731 19.0827 58.7952 19.0197C58.7182 18.9557 58.7142 18.7944 58.72 18.7589C58.7332 18.67 58.7664 18.7916 58.7747 18.7999C58.8535 18.812 58.7946 18.727 58.7639 18.6544C58.8515 18.5969 58.7975 18.5031 58.7317 18.5792C58.7261 18.5889 58.7602 18.6378 58.7639 18.6544C58.6418 18.6392 58.5737 18.5318 58.6057 18.3703C58.6216 18.2954 58.692 18.3275 58.6008 18.1622C58.5602 18.0877 58.5057 18.1444 58.4592 18.0812C58.3527 17.9343 58.3401 17.6956 58.2786 17.5275C58.2561 17.4672 58.2366 17.5379 58.22 17.4962C58.1762 17.385 58.1762 17.2754 58.1331 17.1632C58.1272 17.1565 58.0952 17.1873 58.0862 17.1525C58.0155 16.8778 57.9964 16.6295 57.9592 16.338C57.9405 16.1969 57.8941 15.9454 57.8909 15.798C57.8862 15.6396 57.9053 15.4593 57.9202 15.2941C57.9292 15.1919 57.9367 15.0958 57.9338 15.0128C57.9295 14.8723 57.8876 14.9004 57.8626 14.838C57.8144 14.7166 57.9283 14.5152 57.9465 14.4894C57.9469 14.4896 57.9462 14.6105 57.9729 14.548C58.0193 14.5148 57.9466 14.4908 57.9465 14.4894C57.9574 14.4686 57.9937 14.2302 57.9934 14.1818C57.9917 14.1568 57.9529 14.1645 57.9524 14.1515C57.9631 13.8219 58.02 13.4919 58.1272 13.174C58.1308 13.1695 58.1691 13.1885 58.1741 13.1759C58.2447 12.9965 58.2321 12.8634 58.2551 12.7013C58.2787 12.5398 58.3367 12.4228 58.4417 12.3644C58.4786 12.2495 58.5798 12.1053 58.6409 12.0255C58.7012 11.9463 58.6334 11.8959 58.635 11.8869C58.7111 11.6188 58.832 11.5017 58.9876 11.2667C59.0615 11.1545 59.2017 10.9268 59.2815 10.8048C59.3441 10.7078 59.4024 10.6652 59.4583 10.5744C59.4643 10.5626 59.4284 10.5506 59.428 10.546C59.4666 10.4266 59.5035 10.5254 59.5315 10.5187C59.6341 10.4882 59.6919 10.4681 59.7688 10.3371C59.7858 10.3067 59.7548 10.1428 59.7922 10.09C59.8411 10.0227 59.8556 10.0776 59.9065 10.007C59.9102 10.0008 59.8889 9.98059 59.926 9.9435C59.9664 9.90343 60.0087 9.86271 60.052 9.8224C60.1972 9.68717 60.3554 9.55338 60.5042 9.42103C60.5301 9.3978 60.4659 9.39173 60.5032 9.35756C60.6818 9.196 60.8925 9.03268 61.0969 8.9142C61.1465 8.88568 61.138 8.93136 61.1526 8.93373C61.248 8.93757 61.2901 8.8082 61.3049 8.79506C61.6431 8.52295 61.9711 8.42741 62.3538 8.21205C62.3749 8.19853 62.5094 8.04292 62.6155 8.08412C62.6262 8.08808 62.7281 8.12992 62.7747 8.05482C62.7736 8.04918 62.7187 8.02833 62.8001 8.00209C62.8843 7.975 63.0112 7.90181 63.1409 7.90834C63.1824 7.91027 63.2908 7.95931 63.3831 7.86732C63.3901 7.85795 63.5249 7.67724 63.6106 7.75697C63.6246 7.77067 63.6389 7.87478 63.759 7.79213C63.7811 7.77643 63.7311 7.76331 63.7942 7.73451C63.8926 7.68987 64.0349 7.69043 64.1555 7.62318C64.1761 7.61126 64.2621 7.52617 64.3469 7.5685C64.36 7.57526 64.343 7.61267 64.3831 7.61146C64.5775 7.60402 64.7775 7.56122 64.9749 7.57338C65.0437 7.578 65.0132 7.63571 65.0842 7.6476C65.1563 7.65902 65.3013 7.66938 65.3753 7.64271C65.4491 7.6157 65.367 7.52587 65.4797 7.51771C65.4873 7.51722 65.4957 7.51622 65.5032 7.51576ZM76.636 22.63C76.6423 22.6705 76.7712 22.6596 76.7297 22.6222C76.7231 22.6201 76.64 22.6191 76.636 22.63ZM25.2483 22.3361C25.2406 22.4177 25.2364 22.5077 25.2336 22.5997L25.2327 22.6398L25.2737 22.6408C25.4603 22.6464 25.6583 22.6437 25.8264 22.6447C25.9263 22.6451 25.8598 22.603 25.8733 22.6017C25.9948 22.5954 26.1173 22.6059 26.221 22.6007H25.2737V22.2951C25.2639 22.2846 25.254 22.2764 25.2483 22.3361ZM75.1272 22.6261C75.2098 22.6628 75.2393 22.6378 75.2571 22.6007H75.0813C75.0937 22.6079 75.1082 22.6176 75.1272 22.6261ZM47.1301 22.3605C47.1207 22.3687 47.111 22.3766 47.1487 22.3927C47.2962 22.4554 47.4972 22.4948 47.6555 22.5246C47.718 22.536 47.6843 22.4868 47.6926 22.4865C47.7708 22.4939 47.8477 22.5167 47.9143 22.5206C47.6472 22.4819 47.3858 22.4276 47.1301 22.3605ZM63.592 22.3595C63.5825 22.368 63.5712 22.3762 63.6096 22.3927C63.757 22.4554 63.9582 22.4948 64.1165 22.5246C64.1786 22.536 64.1462 22.4877 64.1536 22.4865C64.232 22.4939 64.3094 22.5168 64.3762 22.5206C64.109 22.4819 63.8478 22.4267 63.592 22.3595ZM46.8831 22.3507C46.85 22.3122 46.727 22.3074 46.7649 22.3566C46.797 22.397 46.9234 22.4 46.8831 22.3507ZM63.344 22.3507C63.3107 22.3125 63.1885 22.3078 63.2258 22.3566C63.258 22.397 63.3844 22.4 63.344 22.3507ZM46.1106 22.004C46.1721 22.0565 46.2133 22.1663 46.3069 22.215C46.3454 22.1302 46.4147 22.16 46.5471 22.1818L46.5481 22.1808C46.4001 22.1274 46.2545 22.0676 46.1106 22.004ZM62.5715 22.004C62.6331 22.0563 62.6743 22.1661 62.7678 22.215C62.8063 22.13 62.8757 22.16 63.0081 22.1818L63.01 22.1808C62.8618 22.1273 62.7157 22.0677 62.5715 22.004ZM45.7542 21.9581C45.6573 21.8513 45.54 22.0265 45.6907 22.0568C45.7001 22.0573 45.7598 21.9645 45.7542 21.9581ZM62.2151 21.9581C62.1184 21.8518 62.0015 22.0263 62.1516 22.0568C62.1605 22.0585 62.2209 21.9644 62.2151 21.9581ZM45.8254 21.8703C45.8323 21.8831 45.842 21.8973 45.8743 21.9142C45.9067 21.9308 45.9386 21.9359 45.9719 21.9425C45.9228 21.9195 45.8741 21.8945 45.8254 21.8703ZM62.2854 21.8693C62.2923 21.8825 62.302 21.8967 62.3352 21.9142C62.3678 21.9309 62.4003 21.9359 62.4338 21.9425C62.384 21.9192 62.3347 21.8939 62.2854 21.8693ZM25.177 21.7472C25.1485 21.8131 25.1814 22.0018 25.217 21.9201C25.2454 21.8541 25.2125 21.6668 25.177 21.7472ZM28.1223 21.6954C28.1204 21.6973 28.1187 21.8025 28.1204 21.8117C28.1677 21.8706 28.1714 21.649 28.1223 21.6954ZM43.7034 20.2687C43.7026 20.3675 43.5329 20.4255 43.7424 20.5763C43.7455 20.5785 43.7497 20.5812 43.7532 20.5831C43.8582 20.6392 44.1197 20.5626 44.1751 20.7872C44.4857 21.0212 44.7296 21.2988 45.0833 21.4757C45.0899 21.479 45.1084 21.4752 45.1301 21.4718C44.6925 21.1864 44.2749 20.8481 43.8811 20.4542C43.8203 20.3934 43.7616 20.3306 43.7034 20.2687ZM60.1643 20.2677C60.1647 20.3671 59.9935 20.4251 60.2034 20.5763C60.2063 20.5784 60.2107 20.5812 60.2141 20.5831C60.3191 20.6393 60.5806 20.5627 60.636 20.7872C60.9466 21.0211 61.1907 21.2988 61.5442 21.4757C61.5508 21.4791 61.57 21.4752 61.592 21.4718C61.1545 21.1864 60.7368 20.8481 60.343 20.4542C60.2819 20.3931 60.2228 20.3299 60.1643 20.2677ZM44.6975 21.3644C44.6427 21.2429 44.5218 21.2701 44.5559 21.3605C44.592 21.4517 44.7139 21.4017 44.6975 21.3644ZM61.1585 21.3644C61.1037 21.2431 60.983 21.2702 61.0168 21.3605C61.053 21.4517 61.1748 21.4017 61.1585 21.3644ZM25.2737 20.6037C25.2497 20.7243 25.1671 20.8482 25.1565 21.0079C25.2499 21.0144 25.2481 21.1311 25.2727 21.338L25.2737 21.34V20.6037ZM82.6106 20.7531C82.6262 20.8235 82.708 20.9259 82.8616 21.0578C82.9994 21.1761 83.0158 21.1421 83.1067 21.1779L82.6106 20.7531ZM82.1819 20.3869C82.1737 20.3933 82.1669 20.3993 82.1799 20.4122C82.3326 20.5603 82.3953 20.6001 82.4456 20.6124L82.1819 20.3869ZM25.2737 20.1076C25.2656 20.1258 25.258 20.1497 25.2571 20.2042C25.2562 20.2617 25.2654 20.3111 25.2737 20.3634V20.1076ZM25.1653 20.0675C25.2165 19.8581 25.0058 19.8256 25.0481 20.0499C25.0526 20.063 25.1623 20.0797 25.1653 20.0675ZM47.5344 19.6349C47.5524 19.641 47.571 19.6466 47.5891 19.6525C47.5875 19.6449 47.5885 19.6353 47.5852 19.6261C47.5704 19.5837 47.5519 19.6028 47.5344 19.6349ZM63.9954 19.6339C64.0135 19.6401 64.0319 19.6465 64.0501 19.6525C64.0484 19.6449 64.0494 19.6352 64.0461 19.6261C64.0315 19.5841 64.0127 19.6022 63.9954 19.6339ZM48.9983 10.6925C48.973 10.7192 48.9452 10.7447 48.9397 10.7453C48.8783 10.7438 48.8234 10.7234 48.7854 10.6984C48.7159 10.7018 48.6467 10.7058 48.5784 10.7121C48.5856 10.7439 48.5914 10.7962 48.5686 10.8097C48.5352 10.8281 48.4786 10.8022 48.4329 10.8312C48.4219 10.8379 48.3721 10.9385 48.3626 10.9503C48.3015 11.0058 48.2672 10.8547 48.262 10.8468C48.2048 10.7644 48.1423 10.8807 48.1233 10.8927C48.0351 10.9438 47.9504 10.9414 47.8782 10.9845C47.8315 11.0128 47.8527 11.1121 47.8137 11.1203C47.6849 11.1468 47.592 11.0295 47.5139 11.1876C47.4976 11.2219 47.5618 11.3148 47.4417 11.2687C47.4319 11.2644 47.3362 11.2208 47.3176 11.2824C47.3157 11.2904 47.3278 11.3193 47.3235 11.3253C47.289 11.3593 47.2507 11.3489 47.2112 11.381C47.1716 11.4134 47.1264 11.4561 47.0715 11.4728C47.0385 11.4824 46.9714 11.4512 46.9495 11.4464C46.8876 11.4328 46.8785 11.5175 46.8274 11.4884C46.7759 11.4591 46.7848 11.3622 46.6995 11.3751C46.7408 11.448 46.781 11.5248 46.8215 11.5988C46.6793 11.6835 46.5286 11.7575 46.3987 11.8654C46.3838 11.8787 46.4262 11.9001 46.4114 11.9152C46.3433 11.9791 46.2596 12.0083 46.1956 12.0831C46.1462 12.1414 46.1191 12.2333 46.0725 12.297C46.0694 12.296 46.0658 12.2949 46.0627 12.2941C45.9686 12.2693 45.9114 12.3722 45.8508 12.4279C45.8289 12.4477 45.8105 12.4293 45.7903 12.4396C45.7148 12.4799 45.8017 12.5082 45.7991 12.5333C45.7827 12.6402 45.6294 12.5254 45.5627 12.6173C45.5596 12.6241 45.5956 12.7372 45.5969 12.7531C45.5933 12.8277 45.5617 12.742 45.5325 12.7677C45.4793 12.8177 45.4292 12.8468 45.4075 12.9337C45.4014 12.9599 45.4229 13.0423 45.3567 13.0568C45.3477 13.058 45.3217 13.0389 45.3167 13.0412C45.2408 13.1029 45.3303 13.1601 45.3372 13.2218C45.3434 13.2834 45.243 13.3188 45.2161 13.3244C45.148 13.3373 45.2098 13.2839 45.2063 13.2794C45.1631 13.2262 45.1444 13.2832 45.1194 13.3214C45.0235 13.2805 45.0006 13.3417 45.094 13.3615C45.1039 13.3621 45.1111 13.3275 45.1194 13.3214C45.1924 13.4036 45.1754 13.4682 45.0569 13.4992C45.0016 13.5138 44.9666 13.4617 44.9407 13.5714C44.9296 13.6211 45.0021 13.6309 45.0051 13.6779C45.0102 13.7858 44.9052 13.8859 44.885 13.9884C44.878 14.0251 44.9248 14.0029 44.9221 14.0275C44.9134 14.0944 44.8702 14.1448 44.8684 14.214C44.8702 14.2196 44.9104 14.2166 44.9075 14.2355C44.8754 14.3894 44.8236 14.5208 44.801 14.6857C44.7898 14.7655 44.7984 14.9105 44.7893 14.9933C44.7784 15.0866 44.7479 15.1945 44.7336 15.2941C44.7261 15.3471 44.7236 15.3972 44.7297 15.4406C44.7417 15.5213 44.7822 15.5028 44.8118 15.5353C44.8685 15.5975 44.782 15.7191 44.7678 15.7384C44.7653 15.7303 44.7501 15.6751 44.7336 15.7101C44.695 15.7339 44.7603 15.7375 44.7678 15.7384C44.7586 15.7497 44.7647 15.8886 44.7766 15.9162C44.7828 15.9298 44.8192 15.9178 44.8235 15.924C44.8829 16.1012 44.9282 16.2761 44.9592 16.4581C44.9593 16.4614 44.9189 16.4683 44.9163 16.4757C44.9266 16.5849 44.9995 16.6366 45.0579 16.7081C45.1163 16.7798 45.1304 16.8462 45.0813 16.923C45.115 16.9808 45.124 17.0815 45.1301 17.1408C45.1361 17.1987 45.2133 17.1709 45.22 17.173C45.3351 17.2822 45.3341 17.3803 45.4104 17.5177C45.4463 17.583 45.5403 17.6979 45.596 17.757C45.6396 17.8036 45.6475 17.8466 45.6936 17.8849C45.6998 17.8898 45.7242 17.8618 45.7278 17.8615C45.8022 17.8835 45.713 17.9176 45.7073 17.9386C45.6921 18.0146 45.6884 18.0602 45.7659 18.1066C45.7851 18.1168 45.9206 18.0725 45.9504 18.0919C45.9876 18.1183 45.9427 18.1384 45.9827 18.1652C45.9864 18.1671 46.0075 18.1479 46.0266 18.1691C46.0478 18.193 46.07 18.2181 46.092 18.2433C46.1639 18.3252 46.241 18.41 46.3245 18.4796C46.3391 18.4912 46.3509 18.442 46.3723 18.4581C46.4746 18.5391 46.5856 18.6281 46.676 18.7189C46.6973 18.7409 46.6644 18.7569 46.6633 18.7687C46.6644 18.8401 46.7601 18.805 46.7708 18.8078C46.9852 18.8998 47.1031 19.0542 47.3342 19.1193C47.3481 19.1228 47.472 19.0781 47.4836 19.1652C47.4842 19.171 47.4961 19.2625 47.552 19.2247C47.5539 19.2179 47.5474 19.1757 47.5872 19.1945C47.6301 19.2148 47.7099 19.2144 47.7581 19.2765C47.773 19.2967 47.7981 19.3875 47.8752 19.3429C47.8846 19.3371 48.0075 19.2272 48.0168 19.3283C48.0183 19.3453 47.9878 19.4471 48.0725 19.4113C48.0883 19.404 48.0696 19.3757 48.1086 19.3693C48.1684 19.3593 48.2374 19.4011 48.3137 19.3663C48.3276 19.3597 48.3882 19.2985 48.4211 19.3566C48.4263 19.3658 48.4103 19.3993 48.4309 19.4064C48.5323 19.439 48.6442 19.4265 48.7493 19.4572C48.7861 19.4681 48.7643 19.5236 48.803 19.5412C48.8423 19.5585 48.9245 19.5753 48.967 19.5499C49.0092 19.5243 48.9658 19.4329 49.0276 19.4259C49.0322 19.4254 49.0376 19.4254 49.0422 19.4249C49.3053 19.397 49.5672 19.4271 49.8274 19.3888C49.866 19.3829 49.8293 19.3573 49.885 19.3458C50.0962 19.3063 50.433 19.172 50.6282 19.1622C50.7867 19.1555 50.63 19.2674 50.7444 19.2433C50.8006 19.2304 50.8124 19.1105 50.8225 19.1007C50.9245 19.015 51.0257 19.0129 51.1204 18.9415C51.138 18.9267 51.0973 18.9017 51.1135 18.8898C51.1694 18.8484 51.2416 18.8259 51.2952 18.7863C51.3187 18.7683 51.2969 18.7438 51.3206 18.7306C51.3776 18.6985 51.4331 18.6757 51.5032 18.6613C51.5092 18.6613 51.5025 18.7164 51.5422 18.6886C51.6074 18.6424 51.7059 18.602 51.7561 18.5177C51.7703 18.4922 51.7237 18.4362 51.801 18.4357C51.8179 18.4374 51.8653 18.5111 51.8645 18.4083C51.8653 18.3882 51.8775 18.2377 51.9631 18.2453C51.9706 18.2459 51.9843 18.2485 51.9993 18.2511C52.033 18.2548 52.0729 18.2589 52.0833 18.2374C52.0805 18.232 52.0453 18.2164 52.0608 18.1954C52.1193 18.1175 52.1913 18.0457 52.2463 17.963C52.2589 17.9418 52.2037 17.9427 52.2258 17.9113C52.2873 17.8239 52.3774 17.7269 52.4485 17.6505C52.474 17.6236 52.4875 17.6621 52.4924 17.6642C52.5678 17.6624 52.5168 17.5933 52.5208 17.5783C52.5495 17.4863 52.6192 17.4477 52.6545 17.3693C52.6635 17.3481 52.6229 17.3418 52.6223 17.3361C52.6178 17.2789 52.6598 17.3438 52.6819 17.3214C52.7438 17.2582 52.7869 17.1718 52.8206 17.0919C52.832 17.0631 52.7761 17.0738 52.7874 17.048C52.8532 16.8943 52.9219 16.7361 52.9963 16.588C53.0104 16.561 53.0374 16.5883 53.0471 16.5851C53.1136 16.5589 53.0605 16.474 53.0569 16.4572C53.0439 16.3828 53.0802 16.3641 53.0891 16.3038C53.1328 16.0113 53.1943 15.6506 53.2092 15.3654C53.2106 15.3417 53.212 15.3173 53.2131 15.2941C53.2287 14.9568 53.23 14.678 53.1536 14.3576C53.1476 14.3372 53.107 14.3678 53.1018 14.3497C53.0377 14.1134 52.9809 13.8771 52.8713 13.6574C52.8622 13.6408 52.8332 13.6824 52.8176 13.6554C52.7854 13.5984 52.7523 13.5224 52.7346 13.4572C52.7267 13.426 52.7794 13.446 52.7698 13.4142C52.7472 13.3397 52.7088 13.2655 52.6624 13.2013C52.6426 13.1751 52.6303 13.2398 52.6077 13.2033C52.4504 12.9523 52.2685 12.7269 52.1028 12.463C52.0927 12.4442 52.1443 12.3685 52.1008 12.3478C52.0803 12.3628 52.0587 12.3838 52.0383 12.4015C52.0176 12.3814 51.9959 12.3611 51.9749 12.341C51.6782 12.0559 51.3732 11.7841 51.0168 11.5841C51.0013 11.5764 51.0044 11.6329 50.9739 11.6163C50.7943 11.5191 50.6106 11.4521 50.429 11.338C50.4118 11.3259 50.4481 11.2488 50.385 11.2413C50.3722 11.2396 50.2808 11.2236 50.2522 11.2345C50.2483 11.2364 50.2527 11.2795 50.2239 11.2726C50.0556 11.2308 49.8802 11.1835 49.7102 11.1339C49.6834 11.1257 49.7179 11.0884 49.6985 11.0822C49.5576 11.0393 49.3966 11.0572 49.259 11.0128C49.167 10.9831 49.2032 10.9105 49.1536 10.8371C49.1442 10.8272 49.0871 10.8233 49.0842 10.7824C49.0822 10.7532 49.0851 10.7229 49.0872 10.6925C49.072 10.6924 49.0565 10.6915 49.0413 10.6915C49.027 10.6916 49.0125 10.6924 48.9983 10.6925ZM65.4602 10.6925C65.4345 10.7196 65.4057 10.7453 65.4006 10.7453C65.3396 10.7438 65.2853 10.7233 65.2473 10.6984C65.1775 10.7018 65.108 10.7058 65.0393 10.7121C65.0465 10.744 65.0526 10.7964 65.0295 10.8097C64.9961 10.8279 64.9395 10.8021 64.8938 10.8312C64.8825 10.8388 64.8327 10.9394 64.8235 10.9503C64.7625 11.0055 64.7282 10.8547 64.7229 10.8468C64.6656 10.7646 64.603 10.8814 64.5842 10.8927C64.496 10.9438 64.4113 10.9414 64.3391 10.9845C64.2925 11.013 64.3139 11.1124 64.2747 11.1203C64.1459 11.1465 64.0529 11.0293 63.9749 11.1876C63.9585 11.2219 64.0228 11.3149 63.9026 11.2687C63.8913 11.2637 63.7968 11.2212 63.7786 11.2824C63.7766 11.2905 63.7892 11.3198 63.7844 11.3253C63.7499 11.3592 63.7117 11.3487 63.6721 11.381C63.6325 11.4134 63.5873 11.4562 63.5325 11.4728C63.4992 11.4822 63.4321 11.4511 63.4104 11.4464C63.3488 11.4331 63.3394 11.5176 63.2883 11.4884C63.2371 11.4589 63.2458 11.362 63.1604 11.3751C63.2017 11.4479 63.242 11.5249 63.2825 11.5988C63.1403 11.6835 62.9895 11.7575 62.8596 11.8654C62.8449 11.8787 62.8876 11.9001 62.8723 11.9152C62.8042 11.9791 62.7205 12.0082 62.6565 12.0831C62.6072 12.1414 62.5801 12.2333 62.5335 12.297C62.5304 12.296 62.5267 12.2948 62.5237 12.2941C62.4297 12.2696 62.3723 12.3723 62.3118 12.4279C62.2898 12.4476 62.2715 12.4291 62.2512 12.4396C62.1759 12.4799 62.2629 12.5082 62.26 12.5333C62.2436 12.6403 62.0903 12.5251 62.0237 12.6173C62.0206 12.6242 62.0565 12.7371 62.0579 12.7531C62.0542 12.8278 62.0227 12.7415 61.9934 12.7677C61.9402 12.8176 61.8901 12.8467 61.8684 12.9337C61.8623 12.9599 61.8841 13.0424 61.8176 13.0568C61.8082 13.0576 61.7821 13.0383 61.7776 13.0412C61.702 13.1029 61.7912 13.1601 61.7981 13.2218C61.8044 13.2835 61.7037 13.319 61.677 13.3244C61.6093 13.3371 61.6708 13.2839 61.6672 13.2794C61.6241 13.2265 61.6054 13.2833 61.5803 13.3214C61.4848 13.2808 61.462 13.3417 61.5549 13.3615C61.5649 13.3625 61.5721 13.3278 61.5803 13.3214C61.6534 13.4036 61.6365 13.4682 61.5178 13.4992C61.4626 13.5136 61.4275 13.4618 61.4016 13.5714C61.3905 13.6211 61.463 13.631 61.4661 13.6779C61.4711 13.7858 61.3661 13.8858 61.346 13.9884C61.3389 14.0251 61.3858 14.0028 61.3831 14.0275C61.3744 14.0944 61.3311 14.1448 61.3293 14.214C61.3312 14.2196 61.3715 14.2165 61.3684 14.2355C61.3364 14.3894 61.2845 14.5208 61.262 14.6857C61.2508 14.7655 61.2593 14.9105 61.2502 14.9933C61.2394 15.0867 61.2088 15.1945 61.1946 15.2941C61.187 15.3471 61.1845 15.3972 61.1907 15.4406C61.2026 15.5211 61.2432 15.5031 61.2727 15.5353C61.3296 15.5977 61.2426 15.7196 61.2288 15.7384C61.2261 15.7298 61.211 15.675 61.1946 15.7101C61.1567 15.7335 61.2199 15.7374 61.2288 15.7384C61.2197 15.7502 61.2257 15.8883 61.2376 15.9162C61.2437 15.9297 61.2796 15.9182 61.2844 15.924C61.3438 16.1012 61.3891 16.2761 61.4202 16.4581C61.4203 16.4614 61.3796 16.4683 61.3772 16.4757C61.3875 16.5848 61.4605 16.6367 61.5188 16.7081C61.5773 16.7799 61.5915 16.8462 61.5422 16.923C61.5759 16.9808 61.5849 17.0815 61.5911 17.1408C61.597 17.198 61.6727 17.1716 61.6809 17.173C61.796 17.2821 61.7952 17.3804 61.8713 17.5177C61.9072 17.5829 62.0012 17.6979 62.0569 17.757C62.1005 17.8035 62.1087 17.8466 62.1545 17.8849C62.1606 17.8899 62.1846 17.8627 62.1887 17.8615C62.2634 17.8836 62.1737 17.9176 62.1682 17.9386C62.153 18.0145 62.1496 18.0602 62.2268 18.1066C62.2456 18.117 62.381 18.0729 62.4114 18.0919C62.4486 18.1183 62.4041 18.1384 62.4436 18.1652C62.4471 18.1675 62.4683 18.1481 62.4876 18.1691C62.5087 18.193 62.531 18.2182 62.553 18.2433C62.6247 18.3251 62.702 18.4101 62.7854 18.4796C62.8 18.4913 62.812 18.4426 62.8333 18.4581C62.9354 18.539 63.0466 18.6281 63.137 18.7189C63.1583 18.7409 63.1253 18.7569 63.1243 18.7687C63.1253 18.8395 63.2197 18.8056 63.2317 18.8078C63.4461 18.8998 63.5642 19.0541 63.7952 19.1193C63.8083 19.1231 63.9328 19.0779 63.9446 19.1652C63.9451 19.171 63.9571 19.2622 64.0129 19.2247C64.0151 19.2187 64.0082 19.1759 64.0481 19.1945C64.091 19.2148 64.1708 19.2146 64.219 19.2765C64.2339 19.2967 64.2592 19.3873 64.3362 19.3429C64.3436 19.3389 64.4683 19.2264 64.4778 19.3283C64.4792 19.3453 64.449 19.4468 64.5335 19.4113C64.5495 19.4041 64.5307 19.3759 64.5696 19.3693C64.6293 19.3592 64.6983 19.401 64.7747 19.3663C64.7882 19.3602 64.849 19.2986 64.8821 19.3566C64.8873 19.3658 64.8717 19.399 64.8919 19.4064C64.9932 19.439 65.1052 19.4266 65.2102 19.4572C65.2471 19.468 65.2256 19.5235 65.2639 19.5412C65.3032 19.5585 65.3853 19.5752 65.428 19.5499C65.4704 19.5245 65.427 19.4332 65.4885 19.4259C65.4931 19.4254 65.4986 19.4254 65.5032 19.4249C65.7662 19.397 66.0282 19.427 66.2883 19.3888C66.3272 19.3829 66.2906 19.3573 66.346 19.3458C66.5571 19.3064 66.8938 19.1721 67.0891 19.1622C67.2478 19.1554 67.0915 19.2672 67.2053 19.2433C67.2616 19.2307 67.2733 19.111 67.2835 19.1007C67.3855 19.0149 67.4866 19.0128 67.5813 18.9415C67.5993 18.9268 67.5585 18.9018 67.5745 18.8898C67.6303 18.8483 67.7025 18.8259 67.7561 18.7863C67.7799 18.7684 67.758 18.7439 67.7815 18.7306C67.8386 18.6985 67.8941 18.6757 67.9641 18.6613C67.9705 18.6602 67.9632 18.7164 68.0032 18.6886C68.0683 18.6424 68.1668 18.602 68.217 18.5177C68.2315 18.4924 68.1849 18.4364 68.262 18.4357C68.2787 18.4369 68.3263 18.5114 68.3254 18.4083C68.3262 18.3883 68.3387 18.2381 68.4241 18.2453C68.4314 18.2459 68.4453 18.2485 68.4602 18.2511C68.4939 18.2548 68.5338 18.259 68.5442 18.2374C68.5412 18.2319 68.5064 18.2163 68.5217 18.1954C68.5803 18.1174 68.6523 18.0457 68.7073 17.963C68.7203 17.9416 68.6647 17.9428 68.6868 17.9113C68.7483 17.8238 68.8383 17.7269 68.9094 17.6505C68.9345 17.6239 68.9482 17.6606 68.9534 17.6642C69.029 17.6625 68.9778 17.5934 68.9817 17.5783C69.0104 17.4862 69.0801 17.4477 69.1155 17.3693C69.1247 17.348 69.0839 17.3418 69.0833 17.3361C69.0787 17.2791 69.1208 17.3436 69.1428 17.3214C69.2048 17.2582 69.2479 17.1719 69.2815 17.0919C69.2933 17.0629 69.237 17.0739 69.2483 17.048C69.3141 16.8942 69.3829 16.7362 69.4573 16.588C69.4712 16.561 69.4981 16.5877 69.5081 16.5851C69.5749 16.559 69.5215 16.474 69.5178 16.4572C69.5048 16.3829 69.5412 16.3641 69.5501 16.3038C69.5937 16.0113 69.6552 15.6507 69.6702 15.3654C69.6716 15.3417 69.6729 15.3173 69.6741 15.2941C69.6897 14.9568 69.6909 14.678 69.6145 14.3576C69.6085 14.3374 69.5679 14.3678 69.5628 14.3497C69.4986 14.1134 69.4418 13.8771 69.3323 13.6574C69.323 13.6413 69.294 13.6823 69.2786 13.6554C69.2464 13.5984 69.2132 13.5223 69.1956 13.4572C69.1878 13.4262 69.2403 13.446 69.2307 13.4142C69.2081 13.3398 69.1697 13.2655 69.1233 13.2013C69.1037 13.1757 69.0912 13.2396 69.0686 13.2033C68.9113 12.9524 68.7294 12.7268 68.5637 12.463C68.5542 12.4439 68.6053 12.3684 68.5618 12.3478C68.5413 12.3629 68.5197 12.3838 68.4993 12.4015C68.4786 12.3814 68.4567 12.3611 68.4358 12.341C68.1392 12.056 67.8341 11.7841 67.4778 11.5841C67.4626 11.5772 67.4653 11.633 67.4348 11.6163C67.2554 11.5192 67.0714 11.4521 66.8899 11.338C66.8734 11.3253 66.9089 11.2487 66.846 11.2413C66.832 11.2394 66.7412 11.2235 66.7131 11.2345C66.7095 11.2373 66.7135 11.2796 66.6848 11.2726C66.5166 11.2308 66.3411 11.1834 66.1712 11.1339C66.1448 11.1254 66.179 11.0882 66.1594 11.0822C66.0186 11.0394 65.8575 11.0572 65.72 11.0128C65.6283 10.983 65.6641 10.9104 65.6145 10.8371C65.6045 10.8274 65.548 10.823 65.5452 10.7824C65.5432 10.7532 65.547 10.7229 65.5491 10.6925C65.5339 10.6924 65.5184 10.6915 65.5032 10.6915C65.4889 10.6916 65.4744 10.6924 65.4602 10.6925ZM47.1077 19.4308C47.1222 19.3939 47.0792 19.3859 47.0754 19.4249C47.0775 19.4283 47.1031 19.442 47.1077 19.4308ZM63.5686 19.4308C63.5833 19.3938 63.5401 19.3858 63.5364 19.4249C63.5384 19.4283 63.564 19.442 63.5686 19.4308ZM59.4221 19.3546C59.4229 19.3558 59.425 19.3567 59.426 19.3576C59.4213 19.3508 59.416 19.3438 59.4114 19.3371C59.4151 19.3428 59.4184 19.3492 59.4221 19.3546ZM42.9612 19.3546L42.9631 19.3566C42.9602 19.3522 42.9573 19.3472 42.9543 19.3429C42.9568 19.3466 42.9588 19.3511 42.9612 19.3546ZM85.0286 19.2423C84.9721 19.119 84.8388 18.9545 84.6057 18.8126C84.5976 18.8092 84.5486 18.8085 84.4954 18.7882L85.0286 19.2423ZM80.2219 18.7208C80.231 18.7702 80.285 18.7742 80.3108 18.8185C80.336 18.863 80.2428 18.8123 80.3245 18.8908C80.3946 18.958 80.6041 19.0813 80.6975 19.1183L80.2239 18.713C80.2232 18.7156 80.2217 18.7182 80.2219 18.7208ZM42.5813 18.7365C42.5623 18.8233 42.5857 18.9436 42.7014 19.0499C42.7062 19.0526 42.7447 19.0547 42.7766 19.0704C42.7084 18.9605 42.6428 18.8491 42.5813 18.7365ZM59.0422 18.7355C59.0229 18.8223 59.0465 18.9433 59.1624 19.0499C59.1668 19.0526 59.2063 19.0544 59.2385 19.0704C59.1701 18.9601 59.1039 18.8485 59.0422 18.7355ZM25.2737 15.9171C25.205 16.0279 25.0443 15.9109 25.0881 16.2999C25.1077 16.4744 25.3685 16.6964 25.2336 17.0099C25.2671 17.6178 25.1977 18.1806 25.2454 18.7902C25.2462 18.8011 25.2596 18.8213 25.2737 18.8458V15.9171ZM84.0354 18.3966C84.0312 18.3929 84.0269 18.3885 84.0227 18.3849C84.0219 18.3843 84.0205 18.3836 84.0198 18.3829L84.0354 18.3966ZM25.1165 18.2013C25.182 18.0218 25.0854 17.8987 25.0344 18.0246C24.9836 18.1513 25.0962 18.2556 25.1165 18.2013ZM45.4163 18.1017C45.4169 18.1025 45.4176 18.1038 45.4182 18.1046C45.4184 18.1035 45.4194 18.1018 45.4192 18.1007L45.4163 18.1017ZM61.8782 18.1017L61.8792 18.1037L61.8801 18.1007L61.8782 18.1017ZM45.2219 17.841C45.228 17.8498 45.2353 17.8585 45.2415 17.8673C45.2468 17.8602 45.2488 17.8514 45.2366 17.8341C45.2317 17.8346 45.227 17.8379 45.2219 17.841ZM61.6838 17.841C61.6899 17.8498 61.6972 17.8585 61.7034 17.8673C61.7085 17.8602 61.7095 17.8512 61.6975 17.8341C61.6928 17.8346 61.6887 17.8381 61.6838 17.841ZM78.3206 17.3234C78.2255 17.1893 78.1108 17.287 78.2649 17.3722C78.2737 17.3745 78.3244 17.3308 78.3206 17.3234ZM77.7366 17.0324C77.7373 17.0422 77.7437 17.0438 77.7512 17.0431C77.7461 17.0385 77.7408 17.0331 77.7356 17.0285C77.7357 17.0295 77.7363 17.0313 77.7366 17.0324ZM77.3831 17.0421C77.3842 17.0377 77.3869 17.0325 77.3879 17.0275C77.3865 17.0278 77.3844 17.0271 77.3831 17.0275V17.0421ZM82.3811 16.9865C82.3334 16.8539 82.5355 16.8168 82.1653 16.5587C81.9979 16.4423 81.6325 16.4739 81.4426 16.1349C80.8825 15.7014 80.4287 15.2238 79.8577 14.7999C79.8474 14.7927 79.8218 14.7879 79.7922 14.7804L82.3811 16.9865ZM44.6848 16.754C44.6871 16.7528 44.6902 16.7534 44.6917 16.7521C44.7169 16.7297 44.6821 16.7254 44.6936 16.7042C44.7056 16.6845 44.737 16.7105 44.7317 16.672C44.7262 16.6388 44.6632 16.5729 44.6233 16.5509C44.642 16.6192 44.6629 16.6871 44.6848 16.754ZM61.1467 16.7531C61.1486 16.752 61.1513 16.7532 61.1526 16.7521C61.1782 16.7296 61.143 16.7254 61.1545 16.7042C61.1665 16.6842 61.1979 16.7106 61.1926 16.672C61.187 16.6389 61.125 16.5731 61.0852 16.5509C61.1039 16.6189 61.1249 16.6864 61.1467 16.7531ZM77.4934 16.3937L77.5032 16.3878L77.4641 16.3556C77.4664 16.3637 77.475 16.3756 77.4934 16.3937ZM44.4954 15.8898C44.5049 15.8892 44.5135 15.8902 44.5139 15.8839C44.5191 15.8109 44.5059 15.7873 44.4817 15.7736C44.4854 15.8124 44.4908 15.8513 44.4954 15.8898ZM60.9573 15.8888C60.9666 15.8883 60.9745 15.8901 60.9749 15.8839C60.98 15.8113 60.9676 15.7873 60.9436 15.7736C60.9472 15.8121 60.9527 15.8507 60.9573 15.8888ZM44.4758 15.6935C44.5158 15.67 44.5386 15.6285 44.5354 15.5617C44.5325 15.5002 44.4961 15.5029 44.4631 15.4718C44.4656 15.5462 44.4701 15.6204 44.4758 15.6935ZM60.9377 15.6935C60.9775 15.67 60.9995 15.6283 60.9963 15.5617C60.9935 15.5004 60.958 15.5026 60.9251 15.4718C60.9276 15.5462 60.9321 15.6204 60.9377 15.6935ZM80.6731 15.2169C80.5938 15.0836 80.4293 15.0907 80.4631 15.1466C80.5797 15.3326 80.7523 15.3513 80.6731 15.2169ZM58.2249 14.6222C58.1782 14.6499 58.1478 14.7201 58.1409 14.8331C58.1353 14.9341 58.1734 14.9307 58.2034 14.9835C58.2079 14.8621 58.215 14.7414 58.2249 14.6222ZM41.7629 14.6222C41.7165 14.65 41.6869 14.7204 41.6799 14.8331C41.6744 14.9335 41.7115 14.9307 41.7415 14.9826C41.746 14.8615 41.7531 14.7411 41.7629 14.6222ZM39.8772 14.6105C39.8836 14.5992 39.8934 14.5866 39.9006 14.5695C39.9306 14.4943 39.9018 14.4712 39.8626 14.4601C39.8677 14.5099 39.873 14.5603 39.8772 14.6105ZM58.2336 14.3224C58.2068 14.4388 58.2131 14.4804 58.2346 14.5079C58.2409 14.4439 58.2493 14.3799 58.2571 14.3165C58.2467 14.3142 58.2363 14.3124 58.2336 14.3224ZM41.7727 14.3224C41.7459 14.4383 41.7524 14.4795 41.7737 14.507C41.7799 14.4433 41.7874 14.3796 41.7952 14.3165C41.7851 14.3143 41.7754 14.3126 41.7727 14.3224ZM80.217 13.9425C79.9971 14.0609 80.1045 14.2474 80.2766 14.046C80.2842 14.0318 80.2304 13.9377 80.217 13.9425ZM25.3655 14.0714C25.365 14.0747 25.3665 14.0784 25.3665 14.0812C25.3705 14.0552 25.3749 14.0289 25.3792 14.0031C25.3746 14.0267 25.3688 14.0497 25.3655 14.0714ZM80.1819 13.8292C80.2032 13.8217 80.2296 13.81 80.2786 13.7697C80.3285 13.7284 80.3638 13.6848 80.4036 13.6408L80.1819 13.8292ZM18.3284 13.2228C18.4364 13.265 18.5566 13.3459 18.6672 13.4425C18.7805 13.5364 18.8298 13.6949 18.8127 13.8146C18.8077 13.6892 18.747 13.5546 18.6428 13.4728C18.5383 13.3895 18.4328 13.3051 18.3284 13.2228ZM25.634 12.9621C25.5451 13.0429 25.4514 13.2078 25.4368 13.4503C25.4363 13.4567 25.4605 13.499 25.468 13.5519C25.5147 13.3518 25.5706 13.1552 25.634 12.9621ZM80.6204 13.4572C80.7432 13.384 80.9075 13.3552 81.0569 13.2423C81.0036 13.1663 81.1082 13.0794 81.2756 12.9054C81.2763 12.9044 81.2759 12.9023 81.2766 12.9015L80.6204 13.4572ZM39.6477 13.213C39.6463 13.2157 39.6653 13.293 39.677 13.2892C39.7146 13.2732 39.6738 13.1698 39.6477 13.213ZM58.5549 12.9396C58.5186 12.9502 58.5413 12.983 58.5168 13.0031C58.4922 13.0229 58.4884 12.962 58.4631 13.0197C58.4407 13.0707 58.4457 13.2139 58.4641 13.2706C58.4948 13.1599 58.5286 13.0501 58.5647 12.9415C58.5612 12.941 58.5577 12.9389 58.5549 12.9396ZM42.094 12.9396C42.0574 12.9501 42.0801 12.983 42.0559 13.0031C42.0312 13.0232 42.0274 12.9622 42.0022 13.0197C41.9799 13.0704 41.9841 13.2122 42.0022 13.2697C42.0329 13.1592 42.0668 13.0498 42.1028 12.9415C42.0996 12.941 42.0966 12.939 42.094 12.9396ZM44.9915 13.1163C45.0632 13.1075 45.1297 13.0662 45.1399 12.964C45.1378 12.9588 45.1189 12.932 45.1126 12.9074C45.0703 12.9762 45.0296 13.0459 44.9915 13.1163ZM61.4534 13.1163C61.5249 13.1074 61.5907 13.0659 61.6008 12.964C61.5985 12.9586 61.58 12.9326 61.5735 12.9083C61.5315 12.9768 61.4913 13.0463 61.4534 13.1163ZM81.8284 12.5099C81.7515 12.5375 81.6051 12.705 81.7004 12.671C81.7773 12.643 81.9223 12.4769 81.8284 12.5099ZM46.5833 11.3966C46.3086 11.5751 46.0475 11.7869 45.801 12.0333C45.7637 12.0712 45.7274 12.1101 45.6917 12.1486C45.7713 12.1659 45.8561 12.3051 45.928 12.1681C45.9291 12.1659 45.9301 12.1629 45.9309 12.1603C45.9498 12.0896 45.8517 11.8577 46.0286 11.8722C46.1874 11.6853 46.4058 11.6027 46.5803 11.4308C46.5831 11.4272 46.5827 11.4131 46.5833 11.3966ZM63.0442 11.3976C62.77 11.576 62.509 11.7873 62.2629 12.0333C62.2256 12.0712 62.1893 12.1101 62.1536 12.1486C62.2331 12.1664 62.3172 12.3048 62.3889 12.1681C62.3901 12.1659 62.3911 12.1629 62.3918 12.1603C62.4108 12.0898 62.313 11.858 62.4895 11.8722C62.6483 11.6852 62.8667 11.6027 63.0413 11.4308C63.0441 11.4276 63.0436 11.4139 63.0442 11.3976ZM82.1243 12.1837C82.1211 12.2 82.1168 12.2171 82.177 12.174C82.4119 12.0057 82.6912 11.7622 82.9153 11.5744C83.003 11.5003 82.9173 11.518 82.928 11.507C83.0355 11.4074 83.1548 11.3203 83.2444 11.2355L82.1243 12.1837ZM46.4641 11.6681C46.369 11.6573 46.3902 11.7633 46.4592 11.7746C46.5276 11.7861 46.4928 11.6723 46.4641 11.6681ZM62.9251 11.6681C62.8305 11.6576 62.8515 11.763 62.9202 11.7746C62.9888 11.7863 62.9538 11.6719 62.9251 11.6681ZM42.9934 11.171C42.9838 11.1693 42.9718 11.174 42.9524 11.2023C42.9537 11.2077 42.9588 11.2103 42.9631 11.214C42.973 11.1996 42.9834 11.1854 42.9934 11.171ZM59.4553 11.171C59.4457 11.1689 59.4333 11.1732 59.4133 11.2023C59.4147 11.2078 59.4206 11.2103 59.4251 11.214C59.4349 11.1996 59.4453 11.1854 59.4553 11.171ZM47.0237 11.1447C47.0334 11.1483 47.0448 11.1509 47.0637 11.1427C47.0821 11.1347 47.0932 11.1191 47.1067 11.1046C47.0789 11.1176 47.0512 11.131 47.0237 11.1447ZM63.4856 11.1447C63.4952 11.1482 63.5061 11.1507 63.5247 11.1427C63.543 11.1347 63.5542 11.119 63.5676 11.1046C63.5401 11.1175 63.5129 11.1312 63.4856 11.1447ZM47.2053 11.0607C47.2592 11.066 47.335 11.1201 47.3948 11.1076C47.3633 11.0203 47.4063 11.0044 47.4758 10.9533V10.9523C47.3843 10.985 47.2943 11.0218 47.2053 11.0607ZM63.6672 11.0607C63.721 11.0663 63.7962 11.1199 63.8557 11.1076C63.8244 11.0205 63.8674 11.0043 63.9368 10.9533V10.9523C63.8455 10.9849 63.7559 11.0219 63.6672 11.0607ZM47.7131 10.9337C47.6798 10.9142 47.6189 10.968 47.6594 10.9923C47.6923 11.0116 47.7535 10.9588 47.7131 10.9337ZM64.1741 10.9337C64.1408 10.9147 64.0805 10.968 64.1204 10.9923C64.1532 11.0117 64.2146 10.9588 64.1741 10.9337ZM48.1956 10.7648C48.0756 10.7859 47.9572 10.8107 47.8411 10.841C47.8395 10.851 47.8394 10.8599 47.8635 10.8595C47.9646 10.8575 48.0864 10.8266 48.1848 10.8107C48.2236 10.8041 48.1904 10.7669 48.1956 10.7648ZM64.6565 10.7648C64.5369 10.7859 64.4188 10.8108 64.303 10.841C64.3014 10.851 64.3006 10.8598 64.3245 10.8595C64.4254 10.8575 64.5473 10.8266 64.6458 10.8107C64.6845 10.8042 64.652 10.7675 64.6565 10.7648ZM43.2678 10.7941C43.2693 10.7949 43.2705 10.797 43.2717 10.798C43.274 10.7951 43.2763 10.7921 43.2786 10.7892C43.2752 10.7907 43.2714 10.7919 43.2678 10.7941ZM59.7288 10.7941C59.7304 10.795 59.7322 10.797 59.7336 10.798C59.7359 10.7951 59.7382 10.7921 59.7405 10.7892C59.7369 10.7908 59.7325 10.7918 59.7288 10.7941ZM84.1624 9.0724C84.1625 9.0753 84.2486 9.16498 84.2561 9.17006C84.3364 9.18457 84.1607 9.00185 84.1624 9.0724ZM36.4475 9.0558C36.4517 9.05848 36.456 9.06187 36.4602 9.06459C36.4571 9.06066 36.4544 9.05506 36.4504 9.05092C36.4499 9.0526 36.4482 9.05426 36.4475 9.0558ZM35.7327 8.65736C35.7605 8.67073 35.788 8.68559 35.8157 8.69936C35.8166 8.68809 35.8032 8.67279 35.7493 8.64662C35.7416 8.64795 35.7361 8.65205 35.7327 8.65736ZM45.9319 8.61049C45.911 8.57677 45.8537 8.61724 45.8899 8.64076C45.8957 8.6402 45.9379 8.62089 45.9319 8.61049ZM62.3928 8.61049C62.3719 8.57724 62.3153 8.61727 62.3508 8.64076C62.3559 8.64065 62.3989 8.62102 62.3928 8.61049ZM30.1516 8.36342C30.0903 8.33798 29.976 8.35232 29.8108 8.41811C29.6613 8.47943 29.6877 8.51082 29.6223 8.57533C29.7959 8.49774 29.972 8.42612 30.1516 8.36342ZM46.7043 8.3058C46.6497 8.28572 46.6419 8.31551 46.6448 8.35365C46.6755 8.3431 46.7066 8.3335 46.7376 8.32338C46.7284 8.31822 46.7179 8.31108 46.7043 8.3058ZM63.1653 8.3058C63.1109 8.28595 63.1029 8.3156 63.1057 8.35365C63.1364 8.34309 63.1676 8.3335 63.1985 8.32338C63.1894 8.31827 63.1788 8.31102 63.1653 8.3058ZM30.594 8.20424C30.4062 8.24382 30.3512 8.27235 30.3215 8.30873C30.4171 8.27818 30.5134 8.24922 30.6106 8.22279C30.6095 8.21207 30.6107 8.201 30.594 8.20424ZM34.8772 8.04799C34.8694 8.0487 34.8421 8.10771 34.846 8.11537C34.9679 8.19645 35.0352 8.06078 34.8772 8.04799ZM32.5803 7.89857C32.4779 7.90628 32.3249 7.94466 32.2629 7.97377C32.3677 7.96975 32.4739 7.96791 32.5803 7.96791C32.6555 7.96791 32.7306 7.96983 32.8049 7.97182C32.8041 7.96842 32.8043 7.96439 32.802 7.96205C32.769 7.9301 32.7312 7.96132 32.6897 7.9435C32.649 7.9256 32.7385 7.90509 32.6399 7.8976C32.624 7.89647 32.6034 7.89674 32.5803 7.89857Z" fill="#ECECEC"/>
</g>
<defs>
<clipPath id="clip0_280_1224">
<rect width="88" height="24" fill="white"/>
</clipPath>
</defs>
</svg>
