<svg width="19" height="17" viewBox="0 0 19 17" fill="none" xmlns="http://www.w3.org/2000/svg">
<path d="M18.1857 14.4758C18.6353 14.4758 18.9998 14.8406 19 15.2901C19 15.7398 18.6354 16.1044 18.1857 16.1044H0.814286C0.364568 16.1044 0 15.7398 0 15.2901C0.000191387 14.8406 0.364686 14.4758 0.814286 14.4758H18.1857ZM18.1857 7.23845C18.6354 7.23845 19 7.60302 19 8.05273C18.9998 8.50229 18.6353 8.86702 18.1857 8.86702H0.814286C0.364686 8.86702 0.000190723 8.50229 0 8.05273C0 7.60302 0.364568 7.23845 0.814286 7.23845H18.1857ZM18.1857 0C18.6354 0 19 0.364568 19 0.814286C19 1.264 18.6354 1.62857 18.1857 1.62857H0.814286C0.364568 1.62857 0 1.264 0 0.814286C0 0.364568 0.364568 0 0.814286 0H18.1857Z" fill="#ECECEC"/>
</svg>
