<svg width="302" height="46" viewBox="0 0 302 46" fill="none" xmlns="http://www.w3.org/2000/svg">
<rect width="302" height="46" rx="6" fill="#F1494B" fill-opacity="0.2"/>
<path d="M59.25 26.5965C59.381 26.5965 59.4907 26.5523 59.5792 26.4638C59.6672 26.3753 59.7112 26.2655 59.7112 26.1345C59.7112 26.004 59.667 25.8945 59.5785 25.806C59.49 25.7175 59.3805 25.673 59.25 25.6725C59.1195 25.672 59.01 25.7163 58.9215 25.8053C58.833 25.8942 58.7888 26.0038 58.7888 26.1338C58.7888 26.2638 58.833 26.3735 58.9215 26.463C59.01 26.5525 59.1195 26.5975 59.25 26.5965ZM59.25 24.1148C59.357 24.1148 59.4462 24.0788 59.5177 24.0068C59.5893 23.9348 59.625 23.8458 59.625 23.7398V19.9898C59.625 19.8833 59.589 19.7943 59.517 19.7228C59.445 19.6513 59.3557 19.6153 59.2492 19.6148C59.1427 19.6143 59.0537 19.6503 58.9822 19.7228C58.9107 19.7953 58.875 19.8843 58.875 19.9898V23.7398C58.875 23.8458 58.911 23.9348 58.983 24.0068C59.055 24.0788 59.1435 24.1148 59.25 24.1148ZM59.2522 30C58.3187 30 57.4412 29.823 56.6197 29.469C55.7982 29.1145 55.0835 28.6335 54.4755 28.026C53.8675 27.4185 53.3863 26.7045 53.0318 25.884C52.6773 25.0635 52.5 24.1863 52.5 23.2523C52.5 22.3183 52.6773 21.4408 53.0318 20.6198C53.3858 19.7983 53.866 19.0835 54.4725 18.4755C55.079 17.8675 55.7933 17.3863 56.6153 17.0318C57.4373 16.6773 58.3147 16.5 59.2477 16.5C60.1807 16.5 61.0582 16.6773 61.8802 17.0318C62.7017 17.3858 63.4165 17.8663 64.0245 18.4733C64.6325 19.0803 65.1137 19.7945 65.4682 20.616C65.8227 21.4375 66 22.3148 66 23.2478C66 24.1808 65.823 25.0583 65.469 25.8803C65.115 26.7023 64.634 27.417 64.026 28.0245C63.418 28.632 62.704 29.1133 61.884 29.4683C61.064 29.8233 60.1867 30.0005 59.2522 30ZM59.25 29.25C60.925 29.25 62.3437 28.6688 63.5062 27.5063C64.6687 26.3438 65.25 24.925 65.25 23.25C65.25 21.575 64.6687 20.1563 63.5062 18.9938C62.3437 17.8312 60.925 17.25 59.25 17.25C57.575 17.25 56.1562 17.8312 54.9937 18.9938C53.8312 20.1563 53.25 21.575 53.25 23.25C53.25 24.925 53.8312 26.3438 54.9937 27.5063C56.1562 28.6688 57.575 29.25 59.25 29.25Z" fill="#F1494B"/>
<path d="M90.2637 15.7031V27.8848H89.1836V15.7031H90.2637ZM83.7969 16.6465C85.6016 16.6602 86.9004 18.3008 86.9004 20.8848C86.9004 23.4688 85.6016 25.1094 83.7969 25.1094C81.9785 25.1094 80.6934 23.4688 80.6934 20.8848C80.6934 18.3008 81.9785 16.6602 83.7969 16.6465ZM83.7969 17.6035C82.5801 17.6172 81.7324 18.9023 81.7324 20.8848C81.7324 22.8672 82.5801 24.1523 83.7969 24.1523C85.0137 24.1523 85.8613 22.8672 85.8613 20.8848C85.8613 18.9023 85.0137 17.6172 83.7969 17.6035ZM98.6719 16.9062V24.8086H93.0527V16.9062H98.6719ZM94.1055 17.7676V23.9336H97.6191V17.7676H94.1055ZM102.363 15.7031V27.8848H101.283V15.7031H102.363ZM117.361 15.7031V20.6523H119.33V21.5547H117.361V27.8574H116.295V15.7031H117.361ZM114.217 17.0156C114.217 20.4609 112.604 23.5918 108.639 25.5469L108.037 24.6992C111.182 23.1338 112.891 20.7959 113.137 17.918H108.598V17.0156H114.217ZM130.09 15.7031V22.2246H129.023V15.7031H130.09ZM123.281 22.8398V24.3164H129.023V22.8398H130.09V27.6934H122.215V22.8398H123.281ZM123.281 26.8184H129.023V25.1777H123.281V26.8184ZM123.527 16.3047C125.373 16.291 126.713 17.4258 126.713 19.0938C126.713 20.748 125.373 21.8828 123.527 21.8828C121.682 21.8828 120.342 20.748 120.342 19.0938C120.342 17.4258 121.682 16.291 123.527 16.3047ZM123.527 17.207C122.283 17.1934 121.381 17.9863 121.395 19.0938C121.381 20.2012 122.283 20.9941 123.527 20.9941C124.758 20.9941 125.66 20.2012 125.66 19.0938C125.66 17.9863 124.758 17.1934 123.527 17.207ZM139.223 19.6953V20.5703H136.762V22.2656C137.896 22.2178 139.031 22.1357 140.084 22.0195L140.166 22.8125C137.555 23.168 134.656 23.25 132.373 23.25L132.209 22.375C133.275 22.3682 134.472 22.3545 135.695 22.3066V20.5703H133.316V16.4961H139.127V17.3848H134.396V19.6953H139.223ZM142.176 15.7168V24.8086H141.096V15.7168H142.176ZM142.572 26.6953V27.5977H134.287V24.1797H135.354V26.6953H142.572ZM158.172 15.7031V27.8574H157.146V15.7031H158.172ZM155.711 16.0312V27.2422H154.686V23.0312H152.43V22.1426H154.686V19.9824H152.635C152.04 22.04 150.707 23.8584 148.41 25.2324L147.754 24.4531C150.399 22.8877 151.726 20.6934 151.938 18.1504H148.301V17.2617H153.004C153.004 17.8838 152.949 18.499 152.84 19.0938H154.686V16.0312H155.711ZM169.943 15.7031V22.9492H168.863V19.7637H166.416V18.875H168.863V15.7031H169.943ZM165.91 23.332C168.439 23.332 169.984 24.1523 169.984 25.5879C169.984 27.0234 168.439 27.8438 165.91 27.8574C163.381 27.8438 161.836 27.0234 161.836 25.5879C161.836 24.1523 163.381 23.332 165.91 23.332ZM165.91 24.166C164.051 24.166 162.889 24.6992 162.902 25.5879C162.889 26.4629 164.051 26.9961 165.91 26.9961C167.77 26.9961 168.918 26.4629 168.918 25.5879C168.918 24.6992 167.77 24.166 165.91 24.166ZM164.092 17.9316C164.092 19.5176 165.309 21.0215 167.086 21.6367L166.525 22.498C165.158 22.0059 164.099 20.9873 163.586 19.7227C163.053 21.1514 161.925 22.293 160.482 22.8398L159.922 21.9785C161.727 21.3223 163.012 19.6816 163.012 17.9453V17.4941H160.264V16.5918H166.812V17.4941H164.092V17.9316ZM181.988 15.7031V27.8848H180.908V15.7031H181.988ZM175.521 16.6465C177.326 16.6602 178.625 18.3008 178.625 20.8848C178.625 23.4688 177.326 25.1094 175.521 25.1094C173.703 25.1094 172.418 23.4688 172.418 20.8848C172.418 18.3008 173.703 16.6602 175.521 16.6465ZM175.521 17.6035C174.305 17.6172 173.457 18.9023 173.457 20.8848C173.457 22.8672 174.305 24.1523 175.521 24.1523C176.738 24.1523 177.586 22.8672 177.586 20.8848C177.586 18.9023 176.738 17.6172 175.521 17.6035ZM193.814 17.2207C193.801 18.7246 195.852 19.9551 197.998 20.2285L197.574 21.1035C195.612 20.7959 193.78 19.8252 193.117 18.3965C192.461 19.8252 190.636 20.7959 188.66 21.1035L188.264 20.2285C190.41 19.9551 192.42 18.7246 192.42 17.2207V17.1934H188.592V16.3047H197.67V17.1934H193.814V17.2207ZM197.424 26.6953V27.5977H189.016V24.1387H190.096V26.6953H197.424ZM198.695 22.2656V23.1543H187.58V22.2656H192.584V20.2285H193.637V22.2656H198.695ZM210.125 15.7031V27.8574H209.086V21.541H207.432V27.2422H206.406V15.9629H207.432V20.625H209.086V15.7031H210.125ZM203.275 19.0254C203.275 21.2539 204.191 23.209 205.928 24.0977L205.285 24.9316C204.055 24.2617 203.214 23.0586 202.783 21.5684C202.366 23.2637 201.512 24.5898 200.227 25.3418L199.557 24.5215C201.307 23.5645 202.236 21.4863 202.236 19.0254V18.0547H199.844V17.1523H205.531V18.0547H203.275V19.0254ZM221.281 15.7031V18.8203H223.113V19.7363H221.281V22.7715H220.215V15.7031H221.281ZM214.664 23.3047V24.6035H220.215V23.3047H221.281V27.6934H213.598V23.3047H214.664ZM214.664 26.832H220.215V25.4512H214.664V26.832ZM219.053 16.9609V17.8496H211.807V16.9609H214.896V15.5938H215.963V16.9609H219.053ZM215.43 18.4102C217.18 18.4102 218.342 19.2441 218.355 20.543C218.342 21.8418 217.18 22.6758 215.43 22.6758C213.666 22.6758 212.49 21.8418 212.504 20.543C212.49 19.2441 213.666 18.4102 215.43 18.4102ZM215.43 19.2441C214.281 19.2305 213.516 19.7637 213.529 20.543C213.516 21.3359 214.281 21.8555 215.43 21.8555C216.564 21.8555 217.33 21.3359 217.344 20.543C217.33 19.7637 216.564 19.2305 215.43 19.2441ZM233.9 15.7031V27.8574H232.834V15.7031H233.9ZM225.725 16.9062V23.7969C227.577 23.79 229.498 23.6396 231.535 23.209L231.686 24.125C229.525 24.5762 227.598 24.7266 225.656 24.7266H224.672V16.9062H225.725ZM245.385 15.7031V20.5156H247.422V21.418H245.385V27.8848H244.318V15.7031H245.385ZM242.186 16.8926V17.7812H237.578V23.9336C239.779 23.9336 241.338 23.8311 243.143 23.4961L243.279 24.4258C241.379 24.7676 239.779 24.8359 237.469 24.8359H236.512V16.8926H242.186ZM249.363 26.832C248.885 26.832 248.475 26.4355 248.488 25.9434C248.475 25.4648 248.885 25.0684 249.363 25.0684C249.842 25.0684 250.238 25.4648 250.238 25.9434C250.238 26.4355 249.842 26.832 249.363 26.832Z" fill="#F1494B"/>
</svg>
