<svg width="317" height="250" viewBox="0 0 317 250" fill="none" xmlns="http://www.w3.org/2000/svg">
<rect width="317" height="250" rx="10" fill="#2D2822"/>
<path d="M117.445 43V31.6875H121.695C124.289 31.6875 125.68 33.2656 125.68 35.4375C125.68 37.6094 124.273 39.1719 121.664 39.1719H119.477V43H117.445ZM119.477 37.5H121.383C122.914 37.5 123.602 36.6406 123.602 35.4375C123.602 34.2188 122.914 33.3906 121.383 33.3906H119.477V37.5ZM134.945 35.5C134.711 34.1406 133.617 33.3594 132.242 33.3594C130.383 33.3594 129.086 34.7812 129.086 37.3438C129.086 39.9375 130.398 41.3281 132.242 41.3281C133.586 41.3281 134.68 40.5781 134.945 39.25H136.992C136.68 41.4219 134.898 43.1562 132.211 43.1562C129.227 43.1562 127.039 40.9844 127.039 37.3438C127.039 33.6875 129.258 31.5312 132.211 31.5312C134.711 31.5312 136.648 32.9844 136.992 35.5H134.945ZM153.789 30.2656V37.9688H152.055V34.9531H149.617V33.5156H152.055V30.2656H153.789ZM146.211 38.5625V40.0312H152.055V38.5625H153.789V44.2188H144.477V38.5625H146.211ZM146.211 42.8125H152.055V41.3906H146.211V42.8125ZM150.07 30.9844V32.4062H147.148C147.164 34.1016 148.305 35.8516 150.477 36.5781L149.602 37.9219C148.023 37.375 146.906 36.3125 146.289 34.9844C145.664 36.4609 144.492 37.6484 142.82 38.2188L141.93 36.8438C144.164 36.0859 145.367 34.2578 145.383 32.4062H142.445V30.9844H150.07ZM168.664 37.2031V38.6094H155.789V37.2031H161.352V35.2344H163.07V37.2031H168.664ZM163.086 31.0312C163.086 32.75 164.977 34.3125 167.93 34.6875L167.258 36.0469C164.938 35.6875 163.094 34.6406 162.195 33.1562C161.289 34.6406 159.445 35.6875 157.117 36.0469L156.492 34.6875C159.398 34.3125 161.32 32.7188 161.32 31.0312V30.5H163.086V31.0312ZM167.086 39.7344V44.3906H165.352V41.0938H157.211V39.7344H167.086ZM185.352 30.2812V40.9219H183.586V39.2188H180.711V37.8438H183.586V30.2812H185.352ZM185.68 42.7031V44.1094H175.336V39.7969H177.07V42.7031H185.68ZM173.32 35.7031C175.039 35.6953 177.172 35.6719 179.305 35.5469C179.508 34.2344 179.57 33.1875 179.602 32.4219H174.602V31.0312H181.336V31.5625C181.336 32.2969 181.336 33.6172 181.055 35.4062C181.539 35.3594 182.023 35.2969 182.492 35.2344L182.617 36.4688C181.398 36.6797 180.141 36.8281 178.898 36.9219V40.0156H177.18V37.0156C175.867 37.0781 174.625 37.0938 173.539 37.0938L173.32 35.7031ZM192.305 32.8125C192.305 34.5469 193.43 36.1719 195.633 36.8438L194.805 38.2031C193.219 37.7109 192.094 36.7031 191.477 35.4219C190.852 36.9062 189.656 38.0859 187.961 38.6562L187.086 37.2812C189.367 36.5312 190.555 34.7031 190.555 32.8281V32.6562H187.57V31.25H195.242V32.6562H192.305V32.8125ZM198.383 30.2656V33.6562H200.352V35.0781H198.383V38.6875H196.648V30.2656H198.383ZM193.789 39C196.711 39 198.508 39.9844 198.523 41.6719C198.508 43.375 196.711 44.375 193.789 44.375C190.836 44.375 189.008 43.375 189.008 41.6719C189.008 39.9844 190.836 39 193.789 39ZM193.789 40.3594C191.852 40.3594 190.742 40.8125 190.742 41.6719C190.742 42.5469 191.852 43.0156 193.789 43.0156C195.727 43.0156 196.805 42.5469 196.805 41.6719C196.805 40.8125 195.727 40.3594 193.789 40.3594Z" fill="white"/>
<path fill-rule="evenodd" clip-rule="evenodd" d="M176.5 88C176.5 97.6652 168.665 105.5 159 105.5C149.335 105.5 141.5 97.6652 141.5 88C141.5 78.3348 149.335 70.5 159 70.5C168.665 70.5 176.5 78.3348 176.5 88ZM159 102C162.713 102 166.274 100.525 168.899 97.8995C171.525 95.274 173 91.713 173 88C173 84.287 171.525 80.726 168.899 78.1005C166.274 75.475 162.713 74 159 74C155.287 74 151.726 75.475 149.101 78.1005C146.475 80.726 145 84.287 145 88C145 91.713 146.475 95.274 149.101 97.8995C151.726 100.525 155.287 102 159 102Z" fill="#F1494B"/>
<path fill-rule="evenodd" clip-rule="evenodd" d="M159 91.5C158.536 91.5 158.091 91.3156 157.763 90.9874C157.434 90.6592 157.25 90.2141 157.25 89.75V81C157.25 80.5359 157.434 80.0908 157.763 79.7626C158.091 79.4344 158.536 79.25 159 79.25C159.464 79.25 159.909 79.4344 160.237 79.7626C160.566 80.0908 160.75 80.5359 160.75 81V89.75C160.75 90.2141 160.566 90.6592 160.237 90.9874C159.909 91.3156 159.464 91.5 159 91.5Z" fill="#F1494B"/>
<path d="M157.25 95C157.25 94.5359 157.434 94.0908 157.763 93.7626C158.091 93.4344 158.536 93.25 159 93.25C159.464 93.25 159.909 93.4344 160.237 93.7626C160.566 94.0908 160.75 94.5359 160.75 95C160.75 95.4641 160.566 95.9092 160.237 96.2374C159.909 96.5656 159.464 96.75 159 96.75C158.536 96.75 158.091 96.5656 157.763 96.2374C157.434 95.9092 157.25 95.4641 157.25 95Z" fill="#F1494B"/>
<path d="M96.6953 129.967V139.195H95.6152V137.938H93.0996V137.158H95.6152V129.967H96.6953ZM96.9961 140.945V141.848H88.3555V138.293H89.4355V140.945H96.9961ZM86.6055 135.6C88.875 135.586 91.9102 135.572 94.5215 135.244L94.5898 136.023C93.5029 136.194 92.3682 136.304 91.2539 136.365V138.771H90.1738V136.42C88.9434 136.475 87.7744 136.481 86.7559 136.475L86.6055 135.6ZM90.5977 130.459C92.375 130.459 93.5918 131.307 93.6055 132.578C93.5918 133.877 92.375 134.684 90.5977 134.684C88.8066 134.684 87.5898 133.877 87.5898 132.578C87.5898 131.307 88.8066 130.459 90.5977 130.459ZM90.5977 131.279C89.4082 131.266 88.6016 131.799 88.6152 132.578C88.6016 133.371 89.4082 133.891 90.5977 133.891C91.7461 133.891 92.5664 133.371 92.5801 132.578C92.5664 131.799 91.7461 131.266 90.5977 131.279ZM108.262 129.953V133.07H110.08V133.986H108.262V137.131H107.182V129.953H108.262ZM108.262 137.678V140.125H101.439V141.205H108.727V141.971H100.373V139.4H107.195V138.443H100.346V137.678H108.262ZM98.7188 136.037C99.6895 136.037 100.824 136.037 102.014 135.996V135.244C100.592 135.142 99.6895 134.574 99.6895 133.645C99.6895 132.646 100.811 132.072 102.533 132.072C104.27 132.072 105.377 132.646 105.391 133.645C105.377 134.567 104.502 135.135 103.08 135.244V135.969C104.215 135.914 105.363 135.825 106.43 135.668L106.525 136.393C103.9 136.816 100.975 136.844 98.8418 136.844L98.7188 136.037ZM106.061 130.883V131.662H99.0195V130.883H102.014V129.844H103.08V130.883H106.061ZM102.533 132.783C101.412 132.797 100.715 133.111 100.715 133.645C100.715 134.191 101.412 134.547 102.533 134.547C103.654 134.547 104.365 134.191 104.365 133.645C104.365 133.111 103.654 132.797 102.533 132.783ZM120.375 129.967V133.973H122.207V134.875H120.375V139.072H119.309V129.967H120.375ZM118.146 131.457V132.332H110.9V131.457H113.99V129.967H115.057V131.457H118.146ZM114.523 133.002C116.26 133.002 117.436 133.891 117.449 135.271C117.436 136.639 116.26 137.514 114.523 137.514C112.773 137.514 111.584 136.639 111.598 135.271C111.584 133.891 112.773 133.002 114.523 133.002ZM114.523 133.85C113.375 133.85 112.609 134.41 112.623 135.271C112.609 136.133 113.375 136.68 114.523 136.666C115.658 136.68 116.424 136.133 116.438 135.271C116.424 134.41 115.658 133.85 114.523 133.85ZM120.936 140.945V141.848H112.773V138.348H113.826V140.945H120.936ZM130.766 133.221C130.766 135.422 132.174 137.637 133.938 138.443L133.295 139.318C131.914 138.607 130.772 137.151 130.232 135.422C129.692 137.24 128.551 138.799 127.17 139.537L126.473 138.676C128.25 137.801 129.672 135.463 129.672 133.221V131.006H130.766V133.221ZM136.562 129.953V142.135H135.496V134.984H132.611V134.109H135.496V129.953H136.562ZM148.607 129.953V142.135H147.527V129.953H148.607ZM140.363 130.992V134.205H143.986V130.992H145.039V139.195H139.297V130.992H140.363ZM140.363 138.293H143.986V135.066H140.363V138.293ZM156.742 131.744C156.742 133.822 159.121 135.682 161.24 136.078L160.748 136.98C158.916 136.557 156.981 135.251 156.195 133.453C155.409 135.244 153.481 136.55 151.643 136.98L151.15 136.078C153.256 135.668 155.621 133.836 155.621 131.744V130.814H156.742V131.744ZM161.814 139.564V140.453H150.686V139.564H161.814ZM176.32 129.953V142.135H175.24V129.953H176.32ZM169.854 130.896C171.658 130.91 172.957 132.551 172.957 135.135C172.957 137.719 171.658 139.359 169.854 139.359C168.035 139.359 166.75 137.719 166.75 135.135C166.75 132.551 168.035 130.91 169.854 130.896ZM169.854 131.854C168.637 131.867 167.789 133.152 167.789 135.135C167.789 137.117 168.637 138.402 169.854 138.402C171.07 138.402 171.918 137.117 171.918 135.135C171.918 133.152 171.07 131.867 169.854 131.854ZM189.473 135.969V136.857H178.398V135.969H181.146V134.26C180.176 133.884 179.629 133.262 179.629 132.441C179.629 131.006 181.27 130.186 183.936 130.186C186.574 130.186 188.229 131.006 188.229 132.441C188.229 133.255 187.688 133.877 186.725 134.246V135.969H189.473ZM183.936 137.787C186.547 137.787 188.105 138.539 188.119 139.934C188.105 141.314 186.547 142.08 183.936 142.08C181.297 142.08 179.738 141.314 179.738 139.934C179.738 138.539 181.297 137.787 183.936 137.787ZM183.936 138.607C181.98 138.621 180.818 139.1 180.832 139.934C180.818 140.754 181.98 141.246 183.936 141.246C185.863 141.246 187.039 140.754 187.039 139.934C187.039 139.1 185.863 138.621 183.936 138.607ZM183.936 131.033C181.953 131.033 180.723 131.566 180.736 132.441C180.723 133.33 181.953 133.85 183.936 133.85C185.904 133.85 187.135 133.33 187.135 132.441C187.135 131.566 185.904 131.033 183.936 131.033ZM182.213 135.969H185.658V134.547C185.146 134.636 184.571 134.684 183.936 134.684C183.3 134.684 182.726 134.636 182.213 134.547V135.969ZM196.035 130.172C198.742 130.172 200.328 130.91 200.328 132.264C200.328 133.645 198.742 134.383 196.035 134.396C193.328 134.383 191.729 133.645 191.729 132.264C191.729 130.91 193.328 130.172 196.035 130.172ZM196.035 130.979C194.012 130.979 192.836 131.471 192.85 132.264C192.836 133.111 194.012 133.576 196.035 133.576C198.045 133.576 199.234 133.111 199.234 132.264C199.234 131.471 198.045 130.979 196.035 130.979ZM201.572 135.217V136.092H190.498V135.217H201.572ZM200.15 137.145V139.865H192.932V141.123H200.52V141.971H191.865V139.072H199.098V137.965H191.838V137.145H200.15ZM210.117 130.555C211.936 130.541 213.234 131.539 213.234 133.029C213.234 134.506 211.936 135.531 210.117 135.518C208.299 135.531 207 134.506 207 133.029C207 131.539 208.299 130.541 210.117 130.555ZM210.117 131.43C208.9 131.416 208.039 132.086 208.053 133.029C208.039 133.986 208.9 134.643 210.117 134.629C211.348 134.643 212.209 133.986 212.209 133.029C212.209 132.086 211.348 131.416 210.117 131.43ZM216.133 129.967V142.121H215.08V129.967H216.133ZM206.084 136.557C208.367 136.557 211.484 136.516 214.191 136.119L214.26 136.926C213.098 137.138 211.888 137.268 210.719 137.336V141.738H209.652V137.404C208.415 137.459 207.246 137.466 206.234 137.473L206.084 136.557ZM224.281 132.059V132.934H218.184V132.059H220.713V130.322H221.779V132.059H224.281ZM221.232 133.754C222.764 133.754 223.857 134.902 223.871 136.516C223.857 138.143 222.764 139.305 221.232 139.305C219.715 139.305 218.621 138.143 218.621 136.516C218.621 134.902 219.715 133.754 221.232 133.754ZM221.232 134.656C220.275 134.67 219.578 135.449 219.578 136.516C219.578 137.596 220.275 138.375 221.232 138.361C222.203 138.375 222.914 137.596 222.914 136.516C222.914 135.449 222.203 134.67 221.232 134.656ZM228.561 129.953V142.107H227.535V135.969H225.922V141.506H224.91V130.254H225.922V135.08H227.535V129.953H228.561ZM96.3193 163V153.102H99.6826C102.007 153.102 103.06 154.482 103.06 156.246C103.06 157.996 102.007 159.404 99.6963 159.404H97.5498V163H96.3193ZM97.5498 158.311H99.6416C101.214 158.311 101.843 157.422 101.843 156.246C101.843 155.057 101.214 154.195 99.6279 154.195H97.5498V158.311ZM111.536 156.219C111.249 154.852 110.073 154.113 108.774 154.113C106.983 154.113 105.589 155.494 105.589 158.051C105.589 160.607 106.983 161.988 108.774 161.988C110.073 161.988 111.235 161.25 111.536 159.896H112.767C112.411 161.92 110.784 163.137 108.774 163.137C106.231 163.137 104.399 161.182 104.399 158.051C104.399 154.92 106.231 152.965 108.774 152.965C110.771 152.965 112.397 154.168 112.767 156.219H111.536ZM124.306 151.953V164.107H123.267V151.953H124.306ZM121.858 152.213V163.492H120.833V157.586H119.274C119.158 159.951 118.153 161.428 116.649 161.428C115.063 161.428 114.038 159.787 114.038 157.203C114.038 154.619 115.063 152.979 116.649 152.979C118.126 152.979 119.124 154.407 119.261 156.697H120.833V152.213H121.858ZM116.649 153.99C115.665 153.99 115.036 155.221 115.05 157.203C115.036 159.172 115.665 160.416 116.649 160.402C117.634 160.416 118.263 159.172 118.263 157.203C118.263 155.221 117.634 153.99 116.649 153.99ZM130.267 155.221C130.267 157.422 131.675 159.637 133.438 160.443L132.796 161.318C131.415 160.607 130.273 159.151 129.733 157.422C129.193 159.24 128.052 160.799 126.671 161.537L125.974 160.676C127.751 159.801 129.173 157.463 129.173 155.221V153.006H130.267V155.221ZM136.063 151.953V164.135H134.997V156.984H132.112V156.109H134.997V151.953H136.063ZM151.663 151.953V158.557H150.597V155.809H148.136V154.906H150.597V151.953H151.663ZM144.923 159.145V160.662H150.597V159.145H151.663V163.943H143.843V159.145H144.923ZM144.923 163.068H150.597V161.523H144.923V163.068ZM145.825 153.936C145.825 155.494 147.042 157.025 148.819 157.641L148.259 158.475C146.885 157.976 145.825 156.957 145.306 155.699C144.779 157.107 143.658 158.235 142.216 158.762L141.655 157.914C143.446 157.271 144.745 155.658 144.745 153.936V153.58H141.997V152.691H148.546V153.58H145.825V153.936ZM164.815 158.064V158.953H153.7V158.064H158.704V156.191H159.757V158.064H164.815ZM159.771 152.719C159.771 154.332 161.958 155.686 164.104 155.986L163.667 156.848C161.821 156.526 159.996 155.549 159.237 154.141C158.472 155.556 156.64 156.526 154.78 156.848L154.37 155.986C156.517 155.686 158.69 154.332 158.69 152.719V152.145H159.771V152.719ZM163.407 160.143V164.107H162.327V161.004H154.931V160.143H163.407ZM171.87 154.059V154.934H165.772V154.059H168.302V152.322H169.368V154.059H171.87ZM168.821 155.754C170.353 155.754 171.446 156.902 171.46 158.516C171.446 160.143 170.353 161.305 168.821 161.305C167.304 161.305 166.21 160.143 166.21 158.516C166.21 156.902 167.304 155.754 168.821 155.754ZM168.821 156.656C167.864 156.67 167.167 157.449 167.167 158.516C167.167 159.596 167.864 160.375 168.821 160.361C169.792 160.375 170.503 159.596 170.503 158.516C170.503 157.449 169.792 156.67 168.821 156.656ZM176.149 151.953V164.107H175.124V157.969H173.511V163.506H172.499V152.254H173.511V157.08H175.124V151.953H176.149ZM187.552 153.676C187.538 155.303 189.712 156.684 191.831 156.998L191.435 157.846C189.534 157.524 187.688 156.513 186.95 155.043C186.212 156.513 184.359 157.524 182.493 157.846L182.069 156.998C184.175 156.684 186.349 155.303 186.349 153.676V153.594H182.452V152.719H191.435V153.594H187.552V153.676ZM192.487 158.885V159.773H187.456V164.107H186.403V159.773H181.413V158.885H192.487ZM197.122 155.412C197.122 157.34 198.065 159.432 199.679 160.389L199.063 161.223C197.895 160.512 197.054 159.213 196.63 157.736C196.179 159.35 195.276 160.737 194.06 161.482L193.376 160.676C195.058 159.691 196.083 157.531 196.083 155.453V153.102H197.122V155.412ZM203.931 151.953V164.107H202.892V151.953H203.931ZM201.415 152.213V163.492H200.403V157.23H198.339V156.314H200.403V152.213H201.415ZM216.741 161.646V162.549H205.612V161.646H208.374V158.365C207.335 157.825 206.706 156.95 206.706 155.85C206.706 153.963 208.552 152.732 211.149 152.719C213.747 152.732 215.593 153.963 215.593 155.85C215.593 156.93 214.984 157.798 213.979 158.338V161.646H216.741ZM211.149 153.607C209.153 153.594 207.745 154.496 207.745 155.85C207.745 157.203 209.153 158.119 211.149 158.119C213.132 158.119 214.554 157.203 214.554 155.85C214.554 154.496 213.132 153.594 211.149 153.607ZM209.427 161.646H212.899V158.748C212.373 158.892 211.785 158.967 211.149 158.967C210.527 158.967 209.946 158.898 209.427 158.762V161.646ZM218.997 163.082C218.519 163.082 218.108 162.686 218.122 162.193C218.108 161.715 218.519 161.318 218.997 161.318C219.476 161.318 219.872 161.715 219.872 162.193C219.872 162.686 219.476 163.082 218.997 163.082Z" fill="white"/>
</svg>
