<svg width="15" height="14" viewBox="0 0 15 14" fill="none" xmlns="http://www.w3.org/2000/svg">
<path d="M8 1.25C8 0.973858 7.77614 0.75 7.5 0.75C7.22386 0.75 7 0.973858 7 1.25H8ZM7.14645 10.6036C7.34171 10.7988 7.65829 10.7988 7.85355 10.6036L11.0355 7.42157C11.2308 7.22631 11.2308 6.90973 11.0355 6.71447C10.8403 6.5192 10.5237 6.5192 10.3284 6.71447L7.5 9.54289L4.67157 6.71447C4.47631 6.5192 4.15973 6.5192 3.96447 6.71447C3.7692 6.90973 3.7692 7.22631 3.96447 7.42157L7.14645 10.6036ZM7.5 1.25H7V10.25H7.5H8V1.25H7.5Z" fill="white"/>
<path d="M1 6.25V11.75C1 12.3023 1.44772 12.75 2 12.75H13C13.5523 12.75 14 12.3023 14 11.75V6.25" stroke="white" stroke-linecap="round"/>
</svg>
