<svg width="31" height="29" viewBox="0 0 31 29" fill="none" xmlns="http://www.w3.org/2000/svg">
<path d="M15.2285 0.5C15.3851 0.500024 15.5137 0.53467 15.625 0.597656C15.6808 0.629219 15.7383 0.681355 15.791 0.773438L15.8418 0.879883L15.8457 0.888672L19.5137 9.57324L19.6309 9.85059L19.9307 9.87695L29.3125 10.6953C29.5035 10.7298 29.6158 10.7885 29.6816 10.8447L29.6836 10.8467C29.7506 10.9034 29.8127 10.9772 29.8672 11.0732L29.9199 11.1777C29.9619 11.2751 29.9705 11.3744 29.9365 11.4951C29.9031 11.614 29.833 11.7241 29.7041 11.8291L29.6924 11.8389L22.5635 18.0195L22.335 18.2178L22.4043 18.5117L24.5596 27.6836L24.5645 27.7041L24.5713 27.7246C24.6203 27.8743 24.6089 27.9801 24.5674 28.0713C24.5066 28.2047 24.4245 28.2933 24.3223 28.3555L24.3174 28.3584C24.2179 28.4206 24.1224 28.4609 24.0293 28.4824L23.9365 28.498C23.8554 28.507 23.7352 28.4908 23.5625 28.4072L15.4863 23.5322L15.2285 23.377L14.9697 23.5322L6.89648 28.4072C6.72665 28.4894 6.60665 28.5064 6.52344 28.498H6.52441C6.401 28.4835 6.27238 28.4408 6.13672 28.3594C6.03271 28.2954 5.95179 28.2052 5.89258 28.0742C5.85167 27.9835 5.83882 27.8744 5.8877 27.7178L5.89258 27.7002L5.89746 27.6836L8.05273 18.5117L8.12207 18.2178L7.89355 18.0195L0.763672 11.8389L0.751953 11.8291C0.623259 11.7242 0.553947 11.6138 0.520508 11.4951C0.486712 11.3749 0.495832 11.2763 0.539062 11.1787C0.604699 11.0305 0.685333 10.922 0.776367 10.8418C0.844578 10.7867 0.957842 10.7303 1.14453 10.6953L10.5254 9.87695L10.8252 9.85059L10.9424 9.57324L14.6113 0.888672L14.6133 0.884766C14.6813 0.719821 14.7613 0.640224 14.8359 0.597656C14.945 0.535487 15.0718 0.5 15.2285 0.5Z" stroke="#5E5953"/>
</svg>
