<svg width="32" height="30" viewBox="0 0 32 30" fill="none" xmlns="http://www.w3.org/2000/svg">
<path d="M15.7535 24.7869L7.37422 29.8467C7.128 29.9683 6.89948 30.0176 6.68865 29.9945C6.47936 29.9699 6.27546 29.8975 6.07694 29.7775C5.87688 29.6544 5.72607 29.4805 5.62451 29.2558C5.52294 29.0311 5.51371 28.7857 5.59681 28.5194L7.82666 19.0322L0.451532 12.6381C0.243782 12.4688 0.106821 12.2665 0.0406486 12.031C-0.0255236 11.7956 -0.010904 11.5701 0.084507 11.3547C0.179918 11.1392 0.306876 10.9623 0.465382 10.8238C0.625426 10.6899 0.840871 10.5991 1.11172 10.5514L10.8436 9.70192L14.6385 0.717892C14.7432 0.463976 14.894 0.280847 15.091 0.168508C15.288 0.0561693 15.5088 0 15.7535 0C15.9982 0 16.2198 0.0561693 16.4183 0.168508C16.6168 0.280847 16.7668 0.463976 16.8684 0.717892L20.6633 9.70192L30.3929 10.5514C30.6653 10.5976 30.8815 10.6891 31.0416 10.8261C31.2016 10.9615 31.3293 11.1377 31.4247 11.3547C31.5186 11.5701 31.5325 11.7956 31.4663 12.031C31.4001 12.2665 31.2632 12.4688 31.0554 12.6381L23.6803 19.0322L25.9101 28.5194C25.9963 28.7826 25.9879 29.0273 25.8847 29.2535C25.7816 29.4797 25.6301 29.6536 25.43 29.7752C25.233 29.8983 25.0291 29.9714 24.8183 29.9945C24.609 30.0176 24.3812 29.9683 24.135 29.8467L15.7535 24.7869Z" fill="#FFCF5C"/>
</svg>
