<svg width="16" height="14" viewBox="0 0 16 14" fill="none" xmlns="http://www.w3.org/2000/svg">
<path d="M9 2.75V2.25C9 1.69772 8.55228 1.25 8 1.25H2C1.44772 1.25 1 1.69772 1 2.25V11.75C1 12.3023 1.44772 12.75 2 12.75H8C8.55228 12.75 9 12.3023 9 11.75V11.25" stroke="white" stroke-linecap="round"/>
<path d="M5 6.75C4.72386 6.75 4.5 6.97386 4.5 7.25C4.5 7.52614 4.72386 7.75 5 7.75V6.75ZM15.8536 7.60355C16.0488 7.40829 16.0488 7.09171 15.8536 6.89645L12.6716 3.71447C12.4763 3.5192 12.1597 3.5192 11.9645 3.71447C11.7692 3.90973 11.7692 4.22631 11.9645 4.42157L14.7929 7.25L11.9645 10.0784C11.7692 10.2737 11.7692 10.5903 11.9645 10.7855C12.1597 10.9808 12.4763 10.9808 12.6716 10.7855L15.8536 7.60355ZM5 7.25V7.75L15.5 7.75V7.25V6.75L5 6.75V7.25Z" fill="white"/>
</svg>
