<svg width="33" height="32" viewBox="0 0 33 32" fill="none" xmlns="http://www.w3.org/2000/svg">
<path fill-rule="evenodd" clip-rule="evenodd" d="M16.3659 1.75798e-10C18.5151 -9.84898e-06 20.6432 0.413834 22.6288 1.2179C24.6144 2.02197 26.4186 3.20052 27.9383 4.68625C29.458 6.17199 30.6636 7.93581 31.486 9.87702C32.3085 11.8182 32.7318 13.8988 32.7318 16C32.7318 24.8365 25.4045 32 16.3659 32C7.32729 32 0 24.8365 0 16C0 7.16347 7.32729 1.75798e-10 16.3659 1.75798e-10ZM18.0025 17.6H14.7293C10.6776 17.6 7.1991 19.999 5.69878 23.4236C8.07265 26.6779 11.9658 28.8 16.3659 28.8C20.7659 28.8 24.6591 26.6779 27.033 23.4234C25.5327 19.999 22.0542 17.6 18.0025 17.6ZM16.3659 4.8C13.6543 4.8 11.4561 6.94904 11.4561 9.59999C11.4561 12.2509 13.6543 14.4 16.3659 14.4C19.0774 14.4 21.2756 12.2509 21.2756 9.59999C21.2756 6.94904 19.0775 4.8 16.3659 4.8Z" fill="black"/>
<path fill-rule="evenodd" clip-rule="evenodd" d="M16.3659 1.75798e-10C18.5151 -9.84898e-06 20.6432 0.413834 22.6288 1.2179C24.6144 2.02197 26.4186 3.20052 27.9383 4.68625C29.458 6.17199 30.6636 7.93581 31.486 9.87702C32.3085 11.8182 32.7318 13.8988 32.7318 16C32.7318 24.8365 25.4045 32 16.3659 32C7.32729 32 0 24.8365 0 16C0 7.16347 7.32729 1.75798e-10 16.3659 1.75798e-10ZM18.0025 17.6H14.7293C10.6776 17.6 7.1991 19.999 5.69878 23.4236C8.07265 26.6779 11.9658 28.8 16.3659 28.8C20.7659 28.8 24.6591 26.6779 27.033 23.4234C25.5327 19.999 22.0542 17.6 18.0025 17.6ZM16.3659 4.8C13.6543 4.8 11.4561 6.94904 11.4561 9.59999C11.4561 12.2509 13.6543 14.4 16.3659 14.4C19.0774 14.4 21.2756 12.2509 21.2756 9.59999C21.2756 6.94904 19.0775 4.8 16.3659 4.8Z" fill="white"/>
</svg>
