<svg width="73" height="18" viewBox="0 0 73 18" fill="none" xmlns="http://www.w3.org/2000/svg">
<path opacity="0.95" d="M0.232867 1.13649H3.45023L13.3357 6.31269V1.13649H16.5531V17H13.3357V9.72288L3.45023 4.57714V17H0.232867V1.13649ZM18.2346 9.02257C18.2346 7.82495 18.4546 6.72881 18.8944 5.73417C19.3342 4.73953 19.9499 3.88698 20.7416 3.17652C21.54 2.4593 22.494 1.90446 23.6037 1.51202C24.7201 1.11958 25.955 0.923355 27.3082 0.923355C28.6547 0.923355 29.8862 1.11958 31.0026 1.51202C32.119 1.90446 33.0731 2.4593 33.8647 3.17652C34.6631 3.88698 35.2823 4.73953 35.7221 5.73417C36.1619 6.72881 36.3818 7.82495 36.3818 9.02257C36.3818 10.227 36.1619 11.3333 35.7221 12.3414C35.2823 13.3428 34.6631 14.2055 33.8647 14.9295C33.0731 15.6535 32.119 16.2185 31.0026 16.6245C29.8862 17.0237 28.6547 17.2233 27.3082 17.2233C25.955 17.2233 24.7201 17.0237 23.6037 16.6245C22.494 16.2185 21.54 15.6535 20.7416 14.9295C19.9499 14.2055 19.3342 13.3428 18.8944 12.3414C18.4546 11.3333 18.2346 10.227 18.2346 9.02257ZM21.452 9.02257C21.452 9.84129 21.5975 10.5788 21.8884 11.2351C22.1861 11.8915 22.5955 12.4531 23.1165 12.9199C23.6443 13.38 24.2634 13.7353 24.9738 13.9856C25.6911 14.236 26.4692 14.3612 27.3082 14.3612C28.1472 14.3612 28.922 14.236 29.6324 13.9856C30.3496 13.7353 30.9688 13.38 31.4898 12.9199C32.0108 12.4531 32.4201 11.8915 32.7178 11.2351C33.0156 10.5788 33.1644 9.84129 33.1644 9.02257C33.1644 8.20386 33.0156 7.46972 32.7178 6.82015C32.4201 6.17059 32.0108 5.62253 31.4898 5.17595C30.9688 4.72261 30.3496 4.37753 29.6324 4.14071C28.922 3.90389 28.1472 3.78549 27.3082 3.78549C26.4692 3.78549 25.6911 3.90389 24.9738 4.14071C24.2634 4.37753 23.6443 4.72261 23.1165 5.17595C22.5955 5.62253 22.1861 6.17059 21.8884 6.82015C21.5975 7.46972 21.452 8.20386 21.452 9.02257ZM37.1499 9.02257C37.1499 7.82495 37.3698 6.72881 37.8096 5.73417C38.2494 4.73953 38.8651 3.88698 39.6568 3.17652C40.4552 2.4593 41.4092 1.90446 42.5189 1.51202C43.6353 1.11958 44.8702 0.923355 46.2234 0.923355C47.5699 0.923355 48.8014 1.11958 49.9178 1.51202C51.0343 1.90446 51.9883 2.4593 52.7799 3.17652C53.5784 3.88698 54.1975 4.73953 54.6373 5.73417C55.0771 6.72881 55.297 7.82495 55.297 9.02257C55.297 10.227 55.0771 11.3333 54.6373 12.3414C54.1975 13.3428 53.5784 14.2055 52.7799 14.9295C51.9883 15.6535 51.0343 16.2185 49.9178 16.6245C48.8014 17.0237 47.5699 17.2233 46.2234 17.2233C44.8702 17.2233 43.6353 17.0237 42.5189 16.6245C41.4092 16.2185 40.4552 15.6535 39.6568 14.9295C38.8651 14.2055 38.2494 13.3428 37.8096 12.3414C37.3698 11.3333 37.1499 10.227 37.1499 9.02257ZM40.3672 9.02257C40.3672 9.84129 40.5127 10.5788 40.8037 11.2351C41.1014 11.8915 41.5107 12.4531 42.0317 12.9199C42.5595 13.38 43.1786 13.7353 43.8891 13.9856C44.6063 14.236 45.3844 14.3612 46.2234 14.3612C47.0625 14.3612 47.8372 14.236 48.5477 13.9856C49.2649 13.7353 49.884 13.38 50.405 12.9199C50.926 12.4531 51.3354 11.8915 51.6331 11.2351C51.9308 10.5788 52.0796 9.84129 52.0796 9.02257C52.0796 8.20386 51.9308 7.46972 51.6331 6.82015C51.3354 6.17059 50.926 5.62253 50.405 5.17595C49.884 4.72261 49.2649 4.37753 48.5477 4.14071C47.8372 3.90389 47.0625 3.78549 46.2234 3.78549C45.3844 3.78549 44.6063 3.90389 43.8891 4.14071C43.1786 4.37753 42.5595 4.72261 42.0317 5.17595C41.5107 5.62253 41.1014 6.17059 40.8037 6.82015C40.5127 7.46972 40.3672 8.20386 40.3672 9.02257ZM56.9989 1.13649H60.2162V9.34735L68.5895 1.13649H72.7101L64.8951 8.70794L72.7101 17H68.4271L62.581 10.951L60.2162 13.2346V17H56.9989V1.13649Z" fill="#7ABFC9"/>
</svg>
