<svg width="28" height="29" viewBox="0 0 28 29" fill="none" xmlns="http://www.w3.org/2000/svg">
<path d="M14 0.5C21.732 0.5 28 6.76801 28 14.5C28 22.232 21.732 28.5 14 28.5C6.26801 28.5 0 22.232 0 14.5C0 6.76801 6.26801 0.5 14 0.5ZM13.9229 16.834C9.01205 16.8342 6.72058 20.2945 5.76465 22.8262C5.52672 23.4571 6.02098 24.0925 6.69531 24.0928H21.7578C22.4034 24.0928 22.885 23.5088 22.6533 22.9062C21.6766 20.3682 18.8854 16.8342 13.9229 16.834ZM13.9229 4.64844C11.3457 4.64865 9.25586 6.73823 9.25586 9.31543C9.25619 11.8923 11.3459 13.9812 13.9229 13.9814C16.4998 13.9812 18.5885 11.8923 18.5889 9.31543C18.5889 6.73825 16.5 4.64868 13.9229 4.64844Z" fill="#7ABFC9"/>
</svg>
