<svg width="12" height="13" viewBox="0 0 12 13" fill="none" xmlns="http://www.w3.org/2000/svg">
<path d="M4.25833 12.3333L4.025 10.4666C3.89861 10.418 3.77961 10.3597 3.668 10.2916C3.55639 10.2236 3.44692 10.1507 3.33958 10.0729L1.60417 10.802L0 8.03121L1.50208 6.89371C1.49236 6.82565 1.4875 6.76013 1.4875 6.69713V6.30338C1.4875 6.23999 1.49236 6.17426 1.50208 6.10621L0 4.96871L1.60417 2.19788L3.33958 2.92704C3.44653 2.84927 3.55833 2.77635 3.675 2.70829C3.79167 2.64024 3.90833 2.5819 4.025 2.53329L4.25833 0.666626H7.46667L7.7 2.53329C7.82639 2.5819 7.94558 2.64024 8.05758 2.70829C8.16958 2.77635 8.27886 2.84927 8.38542 2.92704L10.1208 2.19788L11.725 4.96871L10.2229 6.10621C10.2326 6.17426 10.2375 6.23999 10.2375 6.30338V6.69654C10.2375 6.75993 10.2278 6.82565 10.2083 6.89371L11.7104 8.03121L10.1062 10.802L8.38542 10.0729C8.27847 10.1507 8.16667 10.2236 8.05 10.2916C7.93333 10.3597 7.81667 10.418 7.7 10.4666L7.46667 12.3333H4.25833ZM5.89167 8.54163C6.45556 8.54163 6.93681 8.34232 7.33542 7.94371C7.73403 7.5451 7.93333 7.06385 7.93333 6.49996C7.93333 5.93607 7.73403 5.45482 7.33542 5.05621C6.93681 4.6576 6.45556 4.45829 5.89167 4.45829C5.31806 4.45829 4.83428 4.6576 4.44033 5.05621C4.04639 5.45482 3.84961 5.93607 3.85 6.49996C3.85039 7.06385 4.04736 7.5451 4.44092 7.94371C4.83447 8.34232 5.31806 8.54163 5.89167 8.54163Z" fill="white"/>
</svg>
