<svg width="44" height="44" viewBox="0 0 44 44" fill="none" xmlns="http://www.w3.org/2000/svg">
<rect width="44" height="44" rx="8" fill="#423C35"/>
<path d="M12.5 31H15M12.5 28H15M12.5 25H15M12.5 22H15M18 31H20.5M18 28H20.5M18 25H20.5M18 22H20.5M18 19H20.5M18 16H20.5M18 13H20.5M23.5 31H26M29 31H31.5M23.5 28H26M29 28H31.5M23.5 25H26M29 25H31.5M29 22H31.5M29 19H31.5" stroke="white" stroke-width="1.5" stroke-linecap="round" stroke-linejoin="round"/>
<path d="M11 33.5L33.5 11" stroke="#423C35" stroke-width="4" stroke-linecap="round"/>
<path d="M11 33.5L33.5 11" stroke="white" stroke-width="1.4" stroke-linecap="round"/>
</svg>
