<svg width="44" height="44" viewBox="0 0 44 44" fill="none" xmlns="http://www.w3.org/2000/svg">
<rect width="44" height="44" rx="8" fill="#F1494B" fill-opacity="0.2"/>
<path d="M30.002 18.6992H14.002C13.803 18.6992 13.6123 18.6202 13.4716 18.4795C13.331 18.3389 13.252 18.1481 13.252 17.9492C13.252 17.7503 13.331 17.5595 13.4716 17.4189C13.6123 17.2782 13.803 17.1992 14.002 17.1992H30.002C30.2009 17.1992 30.3916 17.2782 30.5323 17.4189C30.6729 17.5595 30.752 17.7503 30.752 17.9492C30.752 18.1481 30.6729 18.3389 30.5323 18.4795C30.3916 18.6202 30.2009 18.6992 30.002 18.6992Z" fill="#F1494B"/>
<path d="M26.438 30.7493H17.558C17.2411 30.771 16.9231 30.7295 16.6223 30.6274C16.3215 30.5252 16.0441 30.3643 15.8059 30.1541C15.5678 29.9439 15.3738 29.6885 15.2351 29.4027C15.0964 29.1169 15.0158 28.8065 14.998 28.4893V17.9993C14.998 17.8004 15.0771 17.6096 15.2177 17.469C15.3584 17.3283 15.5491 17.2493 15.748 17.2493C15.947 17.2493 16.1377 17.3283 16.2784 17.469C16.419 17.6096 16.498 17.8004 16.498 17.9993V28.4893C16.498 28.8993 16.968 29.2493 17.498 29.2493H26.378C26.938 29.2493 27.378 28.8993 27.378 28.4893V17.9993C27.378 17.7845 27.4634 17.5785 27.6153 17.4266C27.7672 17.2747 27.9732 17.1893 28.188 17.1893C28.4029 17.1893 28.6089 17.2747 28.7608 17.4266C28.9127 17.5785 28.998 17.7845 28.998 17.9993V28.4893C28.9803 28.8065 28.8997 29.1169 28.761 29.4027C28.6223 29.6885 28.4283 29.9439 28.1902 30.1541C27.952 30.3643 27.6745 30.5252 27.3738 30.6274C27.073 30.7295 26.755 30.771 26.438 30.7493ZM26.558 17.7493C26.4592 17.7507 26.3611 17.7322 26.2695 17.695C26.1778 17.6577 26.0946 17.6026 26.0247 17.5326C25.9548 17.4627 25.8996 17.3795 25.8624 17.2879C25.8252 17.1963 25.8067 17.0982 25.808 16.9993V15.5093C25.808 15.0993 25.328 14.7493 24.808 14.7493H19.218C18.668 14.7493 18.218 15.0993 18.218 15.5093V16.9993C18.218 17.1982 18.139 17.389 17.9984 17.5296C17.8577 17.6703 17.667 17.7493 17.468 17.7493C17.2691 17.7493 17.0784 17.6703 16.9377 17.5296C16.7971 17.389 16.718 17.1982 16.718 16.9993V15.5093C16.7568 14.8806 17.0401 14.2921 17.5073 13.8697C17.9746 13.4473 18.5887 13.2246 19.218 13.2493H24.778C25.4125 13.2165 26.0342 13.4355 26.508 13.8588C26.9818 14.282 27.2694 14.8752 27.308 15.5093V16.9993C27.3094 17.0986 27.2909 17.1972 27.2539 17.2894C27.2168 17.3815 27.1617 17.4654 27.0919 17.5361C27.0222 17.6068 26.939 17.663 26.8474 17.7013C26.7557 17.7396 26.6574 17.7593 26.558 17.7593V17.7493Z" fill="#F1494B"/>
<path d="M20.2187 27.0007C20.0206 26.9981 19.8314 26.9183 19.6913 26.7782C19.5512 26.6381 19.4713 26.4488 19.4688 26.2507V21.7207C19.4688 21.5218 19.5478 21.331 19.6884 21.1904C19.8291 21.0497 20.0198 20.9707 20.2187 20.9707C20.4177 20.9707 20.6084 21.0497 20.7491 21.1904C20.8897 21.331 20.9687 21.5218 20.9687 21.7207V26.2407C20.9701 26.34 20.9517 26.4386 20.9146 26.5308C20.8775 26.6229 20.8224 26.7068 20.7526 26.7775C20.6829 26.8482 20.5997 26.9044 20.5081 26.9427C20.4164 26.981 20.3181 27.0007 20.2187 27.0007ZM23.7787 27.0007C23.5798 27.0007 23.3891 26.9217 23.2484 26.781C23.1078 26.6404 23.0287 26.4496 23.0287 26.2507V21.7207C23.0287 21.5218 23.1078 21.331 23.2484 21.1904C23.3891 21.0497 23.5798 20.9707 23.7787 20.9707C23.9777 20.9707 24.1684 21.0497 24.3091 21.1904C24.4497 21.331 24.5287 21.5218 24.5287 21.7207V26.2407C24.5288 26.4405 24.4501 26.6324 24.3097 26.7746C24.1693 26.9168 23.9786 26.9981 23.7787 27.0007Z" fill="#F1494B"/>
</svg>
