<svg width="44" height="44" viewBox="0 0 44 44" fill="none" xmlns="http://www.w3.org/2000/svg">
<rect width="44" height="44" rx="8" fill="#423C35"/>
<path d="M21.399 28.1607L28.795 20.7647C27.5508 20.2449 26.4208 19.4859 25.469 18.5307C24.5134 17.5788 23.754 16.4484 23.234 15.2037L15.838 22.5997C15.261 23.1767 14.972 23.4657 14.724 23.7837C14.4314 24.1592 14.1803 24.5652 13.975 24.9947C13.802 25.3587 13.673 25.7467 13.415 26.5207L12.053 30.6037C11.9904 30.7907 11.9811 30.9914 12.0262 31.1833C12.0713 31.3753 12.1691 31.5508 12.3085 31.6903C12.4479 31.8297 12.6235 31.9274 12.8154 31.9726C13.0074 32.0177 13.2081 32.0084 13.395 31.9457L17.478 30.5837C18.253 30.3257 18.64 30.1967 19.004 30.0237C19.4354 29.8184 19.839 29.5687 20.215 29.2747C20.533 29.0267 20.822 28.7377 21.399 28.1607ZM30.847 18.7127C31.5845 17.9753 31.9988 16.9751 31.9988 15.9322C31.9988 14.8893 31.5845 13.8892 30.847 13.1517C30.1096 12.4143 29.1094 12 28.0665 12C27.0237 12 26.0235 12.4143 25.286 13.1517L24.399 14.0387L24.437 14.1497C24.874 15.4005 25.5893 16.5357 26.529 17.4697C27.491 18.4375 28.6659 19.167 29.96 19.5997L30.847 18.7127Z" fill="white"/>
</svg>
