<svg width="21" height="24" viewBox="0 0 21 24" fill="none" xmlns="http://www.w3.org/2000/svg">
<path d="M5.244 13.6629V19.492H4.73912V16.4759H3.89983V19.1904H3.41462V13.7941H3.89983V16.0366H4.73912V13.6629H5.244ZM1.0738 14.3777V17.525C1.65409 17.5184 2.27044 17.4791 2.98186 17.3348L3.04743 17.7938C2.23438 17.9381 1.56557 17.984 0.922991 17.984H0.562361V14.3777H1.0738ZM12.3124 13.6629V15.0924H13.191V15.5186H12.3124V16.9742H11.8009V13.6629H12.3124ZM10.719 14.0432C10.7125 15.512 9.68304 16.5611 7.95857 17.0332L7.74874 16.6201C9.18471 16.2333 10.0601 15.4563 10.1682 14.4694H8.01102V14.0432H10.719ZM12.3124 17.243V19.4134H8.62082V17.243H12.3124ZM9.13226 17.6692V18.9937H11.8009V17.6692H9.13226ZM15.5056 14.6071C15.5056 15.4005 16.1088 16.1283 16.9547 16.4169L16.6727 16.8234C16.0269 16.5873 15.5187 16.1054 15.263 15.4989C15.0138 16.1841 14.4958 16.725 13.8139 16.9873L13.5385 16.5742C14.4106 16.2464 14.9941 15.4661 15.0007 14.5678V13.9646H15.5056V14.6071ZM18.1152 13.6629V15.1842H18.9939V15.6169H18.1152V17.2102H17.6038V13.6629H18.1152ZM16.2465 17.361C17.4464 17.361 18.1677 17.7479 18.1677 18.4167C18.1677 19.0986 17.4464 19.4789 16.2465 19.4789C15.0466 19.4789 14.3122 19.0986 14.3122 18.4167C14.3122 17.7479 15.0466 17.361 16.2465 17.361ZM16.2465 17.7741C15.3679 17.7741 14.8237 18.0167 14.8302 18.4167C14.8237 18.8298 15.3679 19.0658 16.2465 19.0724C17.1317 19.0658 17.6694 18.8298 17.6694 18.4167C17.6694 18.0167 17.1317 17.7741 16.2465 17.7741Z" fill="#737373"/>
<path d="M13.4499 6.85248L16.0434 4.25899C15.6071 4.07673 15.2108 3.81057 14.8771 3.47562C14.542 3.1418 14.2757 2.74542 14.0933 2.30897L11.4999 4.90246C11.2975 5.10479 11.1962 5.20613 11.1092 5.31764C11.0066 5.4493 10.9186 5.59168 10.8466 5.74229C10.7859 5.86993 10.7407 6.00599 10.6502 6.2774L10.1726 7.70915C10.1506 7.7747 10.1474 7.84509 10.1632 7.91239C10.179 7.9797 10.2133 8.04126 10.2622 8.09015C10.3111 8.13904 10.3726 8.17333 10.4399 8.18915C10.5073 8.20498 10.5776 8.20171 10.6432 8.17973L12.0749 7.70213C12.3467 7.61166 12.4824 7.56643 12.61 7.50576C12.7613 7.43376 12.9029 7.34621 13.0347 7.24312C13.1462 7.15615 13.2476 7.05481 13.4499 6.85248ZM16.7629 3.53944C17.0215 3.28085 17.1668 2.93012 17.1668 2.56442C17.1668 2.19872 17.0215 1.848 16.7629 1.58941C16.5043 1.33082 16.1536 1.18555 15.7879 1.18555C15.4222 1.18555 15.0715 1.33082 14.8129 1.58941L14.5019 1.90045L14.5152 1.93937C14.6684 2.37797 14.9193 2.77604 15.2488 3.10356C15.5861 3.44294 15.9981 3.69872 16.4519 3.85047L16.7629 3.53944Z" fill="#737373"/>
<path d="M9.4517 8.0957H4.71777" stroke="#737373" stroke-width="0.526582" stroke-linecap="round"/>
</svg>
