<svg width="34" height="34" viewBox="0 0 34 34" fill="none" xmlns="http://www.w3.org/2000/svg">
<rect width="34" height="34" rx="6.84211" fill="#2C251D"/>
<path d="M11 23.0029C10.9998 19.5029 11.0005 13.0029 11 11.0029C10.9999 10.4507 11.4478 10.0036 12 10.0029C13.3574 10.0014 14.9192 10.0004 16.5005 10.0001M11 23.0029C11.0001 23.8314 11.6716 24.5029 12.5 24.5029C14.5 24.5029 20.5 24.5029 22 24.5029C22.7041 24.5029 23 23.707 23 23.0029M11 23.0029C11 22.1745 11.5005 21.4961 12.0005 21.4961C15.0005 21.4961 18.5005 21.4961 22.0005 21.4961C22.7066 21.4961 23 22.385 23 23.0029M23 23.0029C23 19.5029 23 14.4961 23 11.0029C23 10.4507 22.5523 10.0038 22 10.0029C21.5228 10.0022 21.0203 10.0017 20.5005 10.0012M16.5005 10.0001V15.4961L18.5005 13.9961L20.5005 15.4961V10.0012M16.5005 10.0001C17.8586 9.99983 19.231 10.0001 20.5005 10.0012" stroke="white" stroke-width="1.02783"/>
</svg>
