<svg width="11" height="12" viewBox="0 0 11 12" fill="none" xmlns="http://www.w3.org/2000/svg">
<path d="M6.49596 8.86995C6.46526 8.83933 6.4409 8.80295 6.42428 8.7629C6.40766 8.72285 6.39911 8.67991 6.39911 8.63655C6.39911 8.59319 6.40766 8.55026 6.42428 8.51021C6.4409 8.47016 6.46526 8.43378 6.49596 8.40316L8.24115 6.65862H5.08108C4.11935 6.65862 3.19701 6.27657 2.51696 5.59653C1.83691 4.91648 1.45487 3.99414 1.45487 3.03241C1.45487 2.94498 1.4896 2.86113 1.55142 2.79931C1.61324 2.73749 1.69709 2.70275 1.78452 2.70275C1.87195 2.70275 1.9558 2.73749 2.01763 2.79931C2.07945 2.86113 2.11418 2.94498 2.11418 3.03241C2.11418 3.81928 2.42676 4.57392 2.98316 5.13032C3.53956 5.68673 4.29421 5.99931 5.08108 5.99931H8.24115L6.49596 4.25477C6.46531 4.22412 6.441 4.18774 6.42441 4.14769C6.40782 4.10764 6.39928 4.06472 6.39928 4.02138C6.39928 3.97803 6.40782 3.93511 6.42441 3.89506C6.441 3.85502 6.46531 3.81863 6.49596 3.78798C6.52661 3.75733 6.563 3.73302 6.60304 3.71643C6.64309 3.69984 6.68601 3.6913 6.72935 3.6913C6.7727 3.6913 6.81562 3.69984 6.85567 3.71643C6.89571 3.73302 6.9321 3.75733 6.96275 3.78798L9.27034 6.09557C9.30104 6.12619 9.3254 6.16257 9.34201 6.20262C9.35863 6.24267 9.36719 6.2856 9.36719 6.32896C9.36719 6.37233 9.35863 6.41526 9.34201 6.45531C9.3254 6.49536 9.30104 6.53174 9.27034 6.56236L6.96275 8.86995C6.93213 8.90065 6.89575 8.925 6.8557 8.94162C6.81565 8.95824 6.77272 8.9668 6.72935 8.9668C6.68599 8.9668 6.64306 8.95824 6.60301 8.94162C6.56296 8.925 6.52658 8.90065 6.49596 8.86995Z" fill="#737373"/>
</svg>
