<svg width="1081" height="1923" viewBox="0 0 1081 1923" fill="none" xmlns="http://www.w3.org/2000/svg">
<path d="M1079.57 1916.5C1079.57 1918.71 1077.78 1920.5 1075.57 1920.5H0.5V4.5C0.500029 2.29089 2.29088 0.5 4.5 0.5H1079.57V1916.5ZM71.5078 1703.2C57.1227 1703.2 45.4609 1714.86 45.4609 1729.25C45.461 1743.64 57.1227 1755.3 71.5078 1755.3C85.8929 1755.3 97.5546 1743.64 97.5547 1729.25C97.5547 1714.86 85.8929 1703.2 71.5078 1703.2ZM71.5078 1539.48C57.1228 1539.48 45.4611 1551.14 45.4609 1565.53C45.4609 1579.91 57.1227 1591.57 71.5078 1591.57C85.8929 1591.57 97.5547 1579.91 97.5547 1565.53C97.5545 1551.14 85.8928 1539.48 71.5078 1539.48ZM71.5078 1375.76C57.1227 1375.76 45.4609 1387.42 45.4609 1401.81C45.461 1416.19 57.1228 1427.86 71.5078 1427.86C85.8928 1427.86 97.5546 1416.19 97.5547 1401.81C97.5547 1387.42 85.8929 1375.76 71.5078 1375.76ZM71.5078 1212.04C57.1228 1212.04 45.4611 1223.7 45.4609 1238.09C45.4609 1252.47 57.1227 1264.13 71.5078 1264.13C85.8929 1264.13 97.5547 1252.47 97.5547 1238.09C97.5545 1223.7 85.8928 1212.04 71.5078 1212.04ZM71.5078 656.52C57.1228 656.52 45.4611 668.18 45.4609 682.565C45.4609 696.951 57.1227 708.612 71.5078 708.612C85.8929 708.612 97.5547 696.951 97.5547 682.565C97.5545 668.181 85.8928 656.52 71.5078 656.52ZM71.5078 492.797C57.1227 492.797 45.4609 504.459 45.4609 518.844C45.461 533.229 57.1228 544.89 71.5078 544.89C85.8928 544.89 97.5546 533.229 97.5547 518.844C97.5547 504.459 85.8929 492.797 71.5078 492.797ZM71.5078 329.079C57.1228 329.079 45.4611 340.74 45.4609 355.125C45.4609 369.51 57.1227 381.172 71.5078 381.172C85.8929 381.172 97.5547 369.51 97.5547 355.125C97.5545 340.74 85.8928 329.079 71.5078 329.079ZM71.5078 165.358C57.1227 165.358 45.4609 177.02 45.4609 191.405C45.4611 205.79 57.1228 217.451 71.5078 217.451C85.8928 217.451 97.5545 205.79 97.5547 191.405C97.5547 177.02 85.8929 165.358 71.5078 165.358Z" fill="#FEFAEF"/>
<path d="M156.5 384.5H984.5" stroke="#2B2217" stroke-opacity="0.5" stroke-linecap="round"/>
<path d="M722.351 282H719.348V271.395H722.57C725.559 271.395 727.346 273.372 727.346 276.668C727.331 280.022 725.515 282 722.351 282ZM720.109 281.297H722.321C725.104 281.297 726.599 279.568 726.599 276.668C726.584 273.812 725.148 272.083 722.526 272.083H720.109V281.297ZM729.517 282H728.711L732.534 271.395H733.398L737.236 282H736.431L735.244 278.675H730.703L729.517 282ZM730.952 277.986H735.01L733.003 272.376H732.944L730.952 277.986ZM737.679 272.083V271.395H745.208V272.083H741.839V282H741.062V272.083H737.679ZM747.979 282V271.395H753.985V272.083H748.741V276.346H753.648V277.034H748.741V281.297H754.088V282H747.979ZM757.489 282.073C757.152 282.073 756.874 281.795 756.874 281.443C756.874 281.106 757.152 280.828 757.489 280.828C757.841 280.828 758.119 281.106 758.119 281.443C758.119 281.795 757.841 282.073 757.489 282.073Z" fill="#2B2217"/>
<path d="M719.348 332V321.395H722.673C724.768 321.395 725.969 322.771 725.969 324.617C725.969 326.448 724.768 327.825 722.688 327.825H720.109V332H719.348ZM720.109 327.137H722.658C724.284 327.137 725.207 326.082 725.207 324.617C725.207 323.138 724.284 322.083 722.658 322.083H720.109V327.137ZM727.524 332H726.719L730.542 321.395H731.406L735.244 332H734.438L733.252 328.675H728.711L727.524 332ZM728.96 327.986H733.018L731.011 322.376H730.952L728.96 327.986ZM744.52 324.705C744.183 323.299 742.996 321.966 741.106 321.966C738.924 321.966 737.356 323.768 737.356 326.697C737.356 329.598 738.909 331.414 741.165 331.414C743.187 331.414 744.607 330.008 744.637 327.664H741.355V326.976H745.384V327.649C745.384 330.433 743.611 332.146 741.165 332.146C738.426 332.146 736.609 329.993 736.609 326.697C736.609 323.387 738.44 321.248 741.106 321.248C743.479 321.248 744.988 322.962 745.311 324.705H744.52ZM748.39 332V321.395H754.396V322.083H749.151V326.346H754.059V327.034H749.151V331.297H754.498V332H748.39ZM757.899 332.073C757.562 332.073 757.284 331.795 757.284 331.443C757.284 331.106 757.562 330.828 757.899 330.828C758.251 330.828 758.529 331.106 758.529 331.443C758.529 331.795 758.251 332.073 757.899 332.073Z" fill="#2B2217"/>
<path d="M718 295L985 295" stroke="#2B2217" stroke-opacity="0.5" stroke-linecap="round"/>
<path d="M718 345L985 345" stroke="#2B2217" stroke-opacity="0.5" stroke-linecap="round"/>
<path d="M1050.5 0C1050.78 0.00030908 1051 0.224069 1051 0.5L1051 34H1080.5C1080.78 34 1081 34.2239 1081 34.5C1081 34.7761 1080.78 35 1080.5 35H1051V64H1080.5C1080.78 64 1081 64.2239 1081 64.5C1081 64.7761 1080.78 65 1080.5 65H1051V94H1080.5C1080.78 94 1081 94.2239 1081 94.5C1081 94.7761 1080.78 95 1080.5 95H1051V124H1080.5C1080.78 124 1081 124.224 1081 124.5C1081 124.776 1080.78 125 1080.5 125H1051V154H1080.5C1080.78 154 1081 154.224 1081 154.5C1081 154.776 1080.78 155 1080.5 155H1051V184H1080.5C1080.78 184 1081 184.224 1081 184.5C1081 184.776 1080.78 185 1080.5 185H1051V214H1080.5C1080.78 214 1081 214.224 1081 214.5C1081 214.776 1080.78 215 1080.5 215H1051V244H1080.5C1080.78 244 1081 244.224 1081 244.5C1081 244.776 1080.78 245 1080.5 245H1051V274H1080.5C1080.78 274 1081 274.224 1081 274.5C1081 274.776 1080.78 275 1080.5 275H1051V304H1080.5C1080.78 304 1081 304.224 1081 304.5C1081 304.776 1080.78 305 1080.5 305H1051V334H1080.5C1080.78 334 1081 334.224 1081 334.5C1081 334.776 1080.78 335 1080.5 335H1051V364H1080.5C1080.78 364 1081 364.224 1081 364.5C1081 364.776 1080.78 365 1080.5 365H1051V394H1080.5C1080.78 394 1081 394.224 1081 394.5C1081 394.776 1080.78 395 1080.5 395H1051V424H1080.5C1080.78 424 1081 424.224 1081 424.5C1081 424.776 1080.78 425 1080.5 425H1051V454H1080.5C1080.78 454 1081 454.224 1081 454.5C1081 454.776 1080.78 455 1080.5 455H1051V484H1080.5C1080.78 484 1081 484.224 1081 484.5C1081 484.776 1080.78 485 1080.5 485H1051V514H1080.5C1080.78 514 1081 514.224 1081 514.5C1081 514.776 1080.78 515 1080.5 515H1051V544H1080.5C1080.78 544 1081 544.224 1081 544.5C1081 544.776 1080.78 545 1080.5 545H1051V574H1080.5C1080.78 574 1081 574.224 1081 574.5C1081 574.776 1080.78 575 1080.5 575H1051V604H1080.5C1080.78 604 1081 604.224 1081 604.5C1081 604.776 1080.78 605 1080.5 605H1051V634H1080.5C1080.78 634 1081 634.224 1081 634.5C1081 634.776 1080.78 635 1080.5 635H1051V664H1080.5C1080.78 664 1081 664.224 1081 664.5C1081 664.776 1080.78 665 1080.5 665H1051V694H1080.5C1080.78 694 1081 694.224 1081 694.5C1081 694.776 1080.78 695 1080.5 695H1051V724H1080.5C1080.78 724 1081 724.224 1081 724.5C1081 724.776 1080.78 725 1080.5 725H1051V754H1080.5C1080.78 754 1081 754.224 1081 754.5C1081 754.776 1080.78 755 1080.5 755H1051V784H1080.5C1080.78 784 1081 784.224 1081 784.5C1081 784.776 1080.78 785 1080.5 785H1051V814H1080.5C1080.78 814 1081 814.224 1081 814.5C1081 814.776 1080.78 815 1080.5 815H1051V844H1080.5C1080.78 844 1081 844.224 1081 844.5C1081 844.776 1080.78 845 1080.5 845H1051V874H1080.5C1080.78 874 1081 874.224 1081 874.5C1081 874.776 1080.78 875 1080.5 875H1051V904H1080.5C1080.78 904 1081 904.224 1081 904.5C1081 904.776 1080.78 905 1080.5 905H1051V934H1080.5C1080.78 934 1081 934.224 1081 934.5C1081 934.776 1080.78 935 1080.5 935H1051V964H1080.5C1080.78 964 1081 964.224 1081 964.5C1081 964.776 1080.78 965 1080.5 965H1051V994H1080.5C1080.78 994 1081 994.224 1081 994.5C1081 994.776 1080.78 995 1080.5 995H1051V1024H1080.5C1080.78 1024 1081 1024.22 1081 1024.5C1081 1024.78 1080.78 1025 1080.5 1025H1051V1054H1080.5C1080.78 1054 1081 1054.22 1081 1054.5C1081 1054.78 1080.78 1055 1080.5 1055H1051V1084H1080.5C1080.78 1084 1081 1084.22 1081 1084.5C1081 1084.78 1080.78 1085 1080.5 1085H1051V1114H1080.5C1080.78 1114 1081 1114.22 1081 1114.5C1081 1114.78 1080.78 1115 1080.5 1115H1051V1144H1080.5C1080.78 1144 1081 1144.22 1081 1144.5C1081 1144.78 1080.78 1145 1080.5 1145H1051V1174H1080.5C1080.78 1174 1081 1174.22 1081 1174.5C1081 1174.78 1080.78 1175 1080.5 1175H1051V1204H1080.5C1080.78 1204 1081 1204.22 1081 1204.5C1081 1204.78 1080.78 1205 1080.5 1205H1051V1234H1080.5C1080.78 1234 1081 1234.22 1081 1234.5C1081 1234.78 1080.78 1235 1080.5 1235H1051V1264H1080.5C1080.78 1264 1081 1264.22 1081 1264.5C1081 1264.78 1080.78 1265 1080.5 1265H1051V1294H1080.5C1080.78 1294 1081 1294.22 1081 1294.5C1081 1294.78 1080.78 1295 1080.5 1295H1051V1324H1080.5C1080.78 1324 1081 1324.22 1081 1324.5C1081 1324.78 1080.78 1325 1080.5 1325H1051V1354H1080.5C1080.78 1354 1081 1354.22 1081 1354.5C1081 1354.78 1080.78 1355 1080.5 1355H1051V1384H1080.5C1080.78 1384 1081 1384.22 1081 1384.5C1081 1384.78 1080.78 1385 1080.5 1385H1051V1414H1080.5C1080.78 1414 1081 1414.22 1081 1414.5C1081 1414.78 1080.78 1415 1080.5 1415H1051V1444H1080.5C1080.78 1444 1081 1444.22 1081 1444.5C1081 1444.78 1080.78 1445 1080.5 1445H1051V1474H1080.5C1080.78 1474 1081 1474.22 1081 1474.5C1081 1474.78 1080.78 1475 1080.5 1475H1051V1504H1080.5C1080.78 1504 1081 1504.22 1081 1504.5C1081 1504.78 1080.78 1505 1080.5 1505H1051V1534H1080.5C1080.78 1534 1081 1534.22 1081 1534.5C1081 1534.78 1080.78 1535 1080.5 1535H1051V1564H1080.5C1080.78 1564 1081 1564.22 1081 1564.5C1081 1564.78 1080.78 1565 1080.5 1565H1051V1594H1080.5C1080.78 1594 1081 1594.22 1081 1594.5C1081 1594.78 1080.78 1595 1080.5 1595H1051V1624H1080.5C1080.78 1624 1081 1624.22 1081 1624.5C1081 1624.78 1080.78 1625 1080.5 1625H1051V1654H1080.5C1080.78 1654 1081 1654.22 1081 1654.5C1081 1654.78 1080.78 1655 1080.5 1655H1051V1684H1080.5C1080.78 1684 1081 1684.22 1081 1684.5C1081 1684.78 1080.78 1685 1080.5 1685H1051V1714H1080.5C1080.78 1714 1081 1714.22 1081 1714.5C1081 1714.78 1080.78 1715 1080.5 1715H1051V1744H1080.5C1080.78 1744 1081 1744.22 1081 1744.5C1081 1744.78 1080.78 1745 1080.5 1745H1051V1774H1080.5C1080.78 1774 1081 1774.22 1081 1774.5C1081 1774.78 1080.78 1775 1080.5 1775H1051V1804H1080.5C1080.78 1804 1081 1804.22 1081 1804.5C1081 1804.78 1080.78 1805 1080.5 1805H1051V1834H1080.5C1080.78 1834 1081 1834.22 1081 1834.5C1081 1834.78 1080.78 1835 1080.5 1835H1051V1864H1080.5C1080.78 1864 1081 1864.22 1081 1864.5C1081 1864.78 1080.78 1865 1080.5 1865H1051V1894H1080.5C1080.78 1894 1081 1894.22 1081 1894.5C1081 1894.78 1080.78 1895 1080.5 1895H1051V1922.5L1050.99 1922.6C1050.94 1922.83 1050.74 1923 1050.5 1923C1050.26 1923 1050.06 1922.83 1050.01 1922.6L1050 1922.5V1895H1021V1922.5L1020.99 1922.6C1020.94 1922.83 1020.74 1923 1020.5 1923C1020.26 1923 1020.06 1922.83 1020.01 1922.6L1020 1922.5V1895H991.001V1922.5L990.991 1922.6C990.945 1922.83 990.743 1923 990.501 1923C990.259 1923 990.057 1922.83 990.011 1922.6L990.001 1922.5V1895H961.001V1922.5L960.991 1922.6C960.945 1922.83 960.743 1923 960.501 1923C960.259 1923 960.057 1922.83 960.011 1922.6L960.001 1922.5V1895H931.001V1922.5L930.991 1922.6C930.945 1922.83 930.743 1923 930.501 1923C930.259 1923 930.057 1922.83 930.011 1922.6L930.001 1922.5V1895H901.001V1922.5L900.991 1922.6C900.945 1922.83 900.743 1923 900.501 1923C900.259 1923 900.057 1922.83 900.011 1922.6L900.001 1922.5V1895H871.001V1922.5L870.991 1922.6C870.945 1922.83 870.743 1923 870.501 1923C870.259 1923 870.057 1922.83 870.011 1922.6L870.001 1922.5V1895H841.001V1922.5L840.991 1922.6C840.945 1922.83 840.743 1923 840.501 1923C840.259 1923 840.057 1922.83 840.011 1922.6L840.001 1922.5V1895H811V1922.5L810.99 1922.6C810.944 1922.83 810.742 1923 810.5 1923C810.258 1923 810.056 1922.83 810.01 1922.6L810 1922.5V1895H781V1922.5L780.99 1922.6C780.944 1922.83 780.742 1923 780.5 1923C780.258 1923 780.056 1922.83 780.01 1922.6L780 1922.5V1895H751V1922.5L750.99 1922.6C750.944 1922.83 750.742 1923 750.5 1923C750.258 1923 750.056 1922.83 750.01 1922.6L750 1922.5V1895H721V1922.5L720.99 1922.6C720.944 1922.83 720.742 1923 720.5 1923C720.258 1923 720.056 1922.83 720.01 1922.6L720 1922.5V1895H691V1922.5L690.99 1922.6C690.944 1922.83 690.742 1923 690.5 1923C690.258 1923 690.056 1922.83 690.01 1922.6L690 1922.5V1895H661V1922.5L660.99 1922.6C660.944 1922.83 660.742 1923 660.5 1923C660.258 1923 660.056 1922.83 660.01 1922.6L660 1922.5V1895H631V1922.5L630.99 1922.6C630.944 1922.83 630.742 1923 630.5 1923C630.258 1923 630.056 1922.83 630.01 1922.6L630 1922.5V1895H601V1922.5L600.99 1922.6C600.944 1922.83 600.742 1923 600.5 1923C600.258 1923 600.056 1922.83 600.01 1922.6L600 1922.5V1895H571V1922.5L570.99 1922.6C570.944 1922.83 570.742 1923 570.5 1923C570.258 1923 570.056 1922.83 570.01 1922.6L570 1922.5V1895H541V1922.5L540.99 1922.6C540.944 1922.83 540.742 1923 540.5 1923C540.258 1923 540.056 1922.83 540.01 1922.6L540 1922.5V1895H511V1922.5L510.99 1922.6C510.944 1922.83 510.742 1923 510.5 1923C510.258 1923 510.056 1922.83 510.01 1922.6L510 1922.5V1895H481V1922.5L480.99 1922.6C480.944 1922.83 480.742 1923 480.5 1923C480.258 1923 480.056 1922.83 480.01 1922.6L480 1922.5V1895H451V1922.5L450.99 1922.6C450.944 1922.83 450.742 1923 450.5 1923C450.258 1923 450.056 1922.83 450.01 1922.6L450 1922.5V1895H421V1922.5L420.99 1922.6C420.944 1922.83 420.742 1923 420.5 1923C420.258 1923 420.056 1922.83 420.01 1922.6L420 1922.5V1895H391V1922.5L390.99 1922.6C390.944 1922.83 390.742 1923 390.5 1923C390.258 1923 390.056 1922.83 390.01 1922.6L390 1922.5V1895H361V1922.5L360.99 1922.6C360.944 1922.83 360.742 1923 360.5 1923C360.258 1923 360.056 1922.83 360.01 1922.6L360 1922.5V1895H331V1922.5L330.99 1922.6C330.944 1922.83 330.742 1923 330.5 1923C330.258 1923 330.056 1922.83 330.01 1922.6L330 1922.5V1895H301V1922.5L300.99 1922.6C300.944 1922.83 300.742 1923 300.5 1923C300.258 1923 300.056 1922.83 300.01 1922.6L300 1922.5V1895H271V1922.5L270.99 1922.6C270.944 1922.83 270.742 1923 270.5 1923C270.258 1923 270.056 1922.83 270.01 1922.6L270 1922.5V1895H241V1922.5L240.99 1922.6C240.944 1922.83 240.742 1923 240.5 1923C240.258 1923 240.056 1922.83 240.01 1922.6L240 1922.5V1895H211V1922.5L210.99 1922.6C210.944 1922.83 210.742 1923 210.5 1923C210.258 1923 210.056 1922.83 210.01 1922.6L210 1922.5V1895H181V1922.5L180.99 1922.6C180.944 1922.83 180.742 1923 180.5 1923C180.258 1923 180.056 1922.83 180.01 1922.6L180 1922.5V1895H151V1922.5L150.99 1922.6C150.944 1922.83 150.742 1923 150.5 1923C150.258 1923 150.056 1922.83 150.01 1922.6L150 1922.5V1895H121V1922.5L120.99 1922.6C120.944 1922.83 120.742 1923 120.5 1923C120.258 1923 120.056 1922.83 120.01 1922.6L120 1922.5V1895H91V1922.5L90.9902 1922.6C90.9437 1922.83 90.7417 1923 90.5 1923C90.2583 1923 90.0563 1922.83 90.0098 1922.6L90 1922.5V1895H61V1922.5L60.9902 1922.6C60.9437 1922.83 60.7417 1923 60.5 1923C60.2583 1923 60.0563 1922.83 60.0098 1922.6L60 1922.5V1895H31V1922.5L30.9902 1922.6C30.9437 1922.83 30.7417 1923 30.5 1923C30.2583 1923 30.0563 1922.83 30.0098 1922.6L30 1922.5V1895H0.5C0.223859 1895 1.22887e-08 1894.78 0 1894.5C-2.38647e-10 1894.22 0.223859 1894 0.5 1894H30V1865H0.5C0.223859 1865 1.22887e-08 1864.78 0 1864.5C-2.38646e-10 1864.22 0.223859 1864 0.5 1864H30V1835H0.5C0.22386 1835 1.22887e-08 1834.78 0 1834.5C-2.38646e-10 1834.22 0.22386 1834 0.5 1834H30V1805H0.5C0.223861 1805 1.22887e-08 1804.78 0 1804.5C-2.38646e-10 1804.22 0.223861 1804 0.5 1804H30V1775H0.5C0.223861 1775 1.22887e-08 1774.78 0 1774.5C-2.38645e-10 1774.22 0.223861 1774 0.5 1774H30V1745H0.5C0.223862 1745 1.22887e-08 1744.78 0 1744.5C-2.38645e-10 1744.22 0.223862 1744 0.5 1744H30V1715H0.5C0.223862 1715 1.22887e-08 1714.78 0 1714.5C-2.38644e-10 1714.22 0.223862 1714 0.5 1714H30V1685H0.5C0.223863 1685 1.22885e-08 1684.78 0 1684.5C-2.30812e-10 1684.22 0.223863 1684 0.5 1684H30V1655H0.5C0.223864 1655 1.22885e-08 1654.78 0 1654.5C-2.30813e-10 1654.22 0.223864 1654 0.5 1654H30V1625H0.5C0.223864 1625 1.22885e-08 1624.78 0 1624.5C-2.30813e-10 1624.22 0.223864 1624 0.5 1624H30V1595H0.5C0.223865 1595 1.22885e-08 1594.78 0 1594.5C-2.30813e-10 1594.22 0.223865 1594 0.5 1594H30V1565H0.5C0.223865 1565 1.22884e-08 1564.78 0 1564.5C-2.30813e-10 1564.22 0.223865 1564 0.5 1564H30V1535H0.5C0.223866 1535 1.22884e-08 1534.78 0 1534.5C-2.30813e-10 1534.22 0.223866 1534 0.5 1534H30V1505H0.5C0.223867 1505 1.22884e-08 1504.78 0 1504.5C-2.30813e-10 1504.22 0.223867 1504 0.5 1504H30V1475H0.5C0.223867 1475 1.22884e-08 1474.78 0 1474.5C-2.30814e-10 1474.22 0.223867 1474 0.5 1474H30V1445H0.5C0.223868 1445 1.22884e-08 1444.78 0 1444.5C-2.30814e-10 1444.22 0.223868 1444 0.5 1444H30V1415H0.5C0.223868 1415 1.22883e-08 1414.78 0 1414.5C-2.30814e-10 1414.22 0.223868 1414 0.5 1414H30V1385H0.5C0.223869 1385 1.22883e-08 1384.78 0 1384.5C-2.30814e-10 1384.22 0.223869 1384 0.5 1384H30V1355H0.5C0.22387 1355 1.22883e-08 1354.78 0 1354.5C-2.30814e-10 1354.22 0.22387 1354 0.5 1354H30V1325H0.5C0.22387 1325 1.22883e-08 1324.78 0 1324.5C-2.30815e-10 1324.22 0.22387 1324 0.5 1324H30V1295H0.5C0.223871 1295 1.22882e-08 1294.78 0 1294.5C-2.30815e-10 1294.22 0.223871 1294 0.5 1294H30V1265H0.5C0.223871 1265 1.22882e-08 1264.78 0 1264.5C-2.30815e-10 1264.22 0.223871 1264 0.5 1264H30V1235H0.5C0.223872 1235 1.22882e-08 1234.78 0 1234.5C-2.30815e-10 1234.22 0.223872 1234 0.5 1234H30V1205H0.5C0.223873 1205 1.22882e-08 1204.78 0 1204.5C-2.30815e-10 1204.22 0.223873 1204 0.5 1204H30V1175H0.5C0.223873 1175 1.22882e-08 1174.78 0 1174.5C-2.30816e-10 1174.22 0.223873 1174 0.5 1174H30V1145H0.5C0.223874 1145 1.22881e-08 1144.78 0 1144.5C-2.30816e-10 1144.22 0.223874 1144 0.5 1144H30V1115H0.5C0.223874 1115 1.22881e-08 1114.78 0 1114.5C-2.30816e-10 1114.22 0.223874 1114 0.5 1114H30V1085H0.5C0.223875 1085 1.22881e-08 1084.78 0 1084.5C-2.30816e-10 1084.22 0.223875 1084 0.5 1084H30V1055H0.5C0.223876 1055 1.22881e-08 1054.78 0 1054.5C-2.30816e-10 1054.22 0.223876 1054 0.5 1054H30V1025H0.5C0.223876 1025 1.22881e-08 1024.78 0 1024.5C-2.30816e-10 1024.22 0.223876 1024 0.5 1024H30V995H0.5C0.223877 995 1.2288e-08 994.776 0 994.5C-2.30817e-10 994.224 0.223877 994 0.5 994H30V965H0.5C0.223877 965 1.2288e-08 964.776 0 964.5C-2.30817e-10 964.224 0.223877 964 0.5 964H30V935H0.5C0.223878 935 1.2288e-08 934.776 0 934.5C-2.30817e-10 934.224 0.223878 934 0.5 934H30V905H0.5C0.223879 905 1.2288e-08 904.776 0 904.5C-2.30817e-10 904.224 0.223879 904 0.5 904H30V875H0.5C0.223879 875 1.2288e-08 874.776 0 874.5C-2.30817e-10 874.224 0.223879 874 0.5 874H30V845H0.5C0.22388 845 1.22879e-08 844.776 0 844.5C-2.30818e-10 844.224 0.22388 844 0.5 844H30V815H0.5C0.22388 815 1.22879e-08 814.776 0 814.5C-2.30818e-10 814.224 0.22388 814 0.5 814H30V785H0.5C0.223881 785 1.22879e-08 784.776 0 784.5C-2.30818e-10 784.224 0.223881 784 0.5 784H30V755H0.5C0.223882 755 1.22879e-08 754.776 0 754.5C-2.30818e-10 754.224 0.223882 754 0.5 754H30V725H0.5C0.223882 725 1.22891e-08 724.776 0 724.5C-2.34727e-10 724.224 0.223882 724 0.5 724H30V695H0.5C0.223883 695 1.22891e-08 694.776 0 694.5C-2.38632e-10 694.224 0.223883 694 0.5 694H30V665H0.5C0.223883 665 1.22891e-08 664.776 0 664.5C-2.38631e-10 664.224 0.223883 664 0.5 664H30V635H0.5C0.223884 635 1.22891e-08 634.776 0 634.5C-2.38631e-10 634.224 0.223884 634 0.5 634H30V605H0.5C0.223885 605 1.22892e-08 604.776 0 604.5C-2.38631e-10 604.224 0.223885 604 0.5 604H30V575H0.5C0.223885 575 1.22892e-08 574.776 0 574.5C-2.3863e-10 574.224 0.223885 574 0.5 574H30V545H0.5C0.223886 545 1.22892e-08 544.776 0 544.5C-2.3863e-10 544.224 0.223886 544 0.5 544H30V515H0.5C0.223886 515 1.22892e-08 514.776 0 514.5C-2.38629e-10 514.224 0.223886 514 0.5 514H30V485H0.5C0.223887 485 1.22892e-08 484.776 0 484.5C-2.38629e-10 484.224 0.223887 484 0.5 484H30V455H0.5C0.223888 455 1.22892e-08 454.776 0 454.5C-2.38629e-10 454.224 0.223888 454 0.5 454H30V425H0.5C0.223888 425 1.22892e-08 424.776 0 424.5C-2.38628e-10 424.224 0.223888 424 0.5 424H30V395H0.5C0.223889 395 1.22892e-08 394.776 0 394.5C-2.38628e-10 394.224 0.223889 394 0.5 394H30V365H0.5C0.223889 365 1.22893e-08 364.776 0 364.5C-2.38627e-10 364.224 0.223889 364 0.5 364H30V335H0.5C0.22389 335 1.22893e-08 334.776 0 334.5C-2.38627e-10 334.224 0.22389 334 0.5 334H30V305H0.5C0.223891 305 1.18124e-08 304.776 0 304.5C0 304.224 0.223891 304 0.5 304H30V275H0.5C0.223891 275 1.18124e-08 274.776 0 274.5C0 274.224 0.223891 274 0.5 274H30V245H0.5C0.223892 245 1.18124e-08 244.776 0 244.5C0 244.224 0.223892 244 0.5 244H30V215H0.5C0.223893 215 1.18124e-08 214.776 0 214.5C0 214.224 0.223893 214 0.5 214H30V185H0.5C0.223893 185 1.22893e-08 184.776 0 184.5C-2.38625e-10 184.224 0.223893 184 0.5 184H30V155H0.5C0.223894 155 1.22893e-08 154.776 0 154.5C-2.38625e-10 154.224 0.223894 154 0.5 154H30V125H0.5C0.223894 125 1.22893e-08 124.776 0 124.5C-2.38624e-10 124.224 0.223894 124 0.5 124H30V95H0.5C0.223895 95 1.22894e-08 94.7761 0 94.5C-2.38624e-10 94.2239 0.223895 94 0.5 94H30V65H0.5C0.223896 65 1.22894e-08 64.7761 0 64.5C-2.38624e-10 64.2239 0.223896 64 0.5 64H30V35H0.5C0.223896 35 1.22894e-08 34.7761 0 34.5C-2.38623e-10 34.2239 0.223896 34 0.5 34H30V0.5C30 0.223886 30.2239 4.53498e-05 30.5 0C30.7761 4.54345e-05 31 0.223886 31 0.5V34H60V0.5C60 0.223886 60.2239 4.53496e-05 60.5 0C60.7761 4.54348e-05 61 0.223886 61 0.5V34H90V0.5C90 0.223887 90.2239 4.53494e-05 90.5 0C90.7761 4.54351e-05 91 0.223887 91 0.5V34H120V0.5C120 0.223887 120.224 4.53492e-05 120.5 0C120.776 4.54354e-05 121 0.223887 121 0.5V34H150V0.5C150 0.223888 150.224 4.53491e-05 150.5 0C150.776 4.54357e-05 151 0.223888 151 0.5V34H180V0.5C180 0.223889 180.224 4.53489e-05 180.5 0C180.776 4.5436e-05 181 0.223889 181 0.5V34H210V0.5C210 0.223889 210.224 4.53487e-05 210.5 0C210.776 4.54363e-05 211 0.223889 211 0.5V34H240V0.5C240 0.22389 240.224 4.53485e-05 240.5 0C240.776 4.54366e-05 241 0.22389 241 0.5V34H270V0.5C270 0.22389 270.224 4.53483e-05 270.5 0C270.776 4.54369e-05 271 0.22389 271 0.5V34H300V0.5C300 0.223891 300.224 4.53481e-05 300.5 0C300.776 4.54373e-05 301 0.223891 301 0.5V34H330V0.5C330 0.223892 330.224 4.53479e-05 330.5 0C330.776 4.54376e-05 331 0.223892 331 0.5V34H360V0.5C360 0.223892 360.224 4.53477e-05 360.5 0C360.776 4.54379e-05 361 0.223892 361 0.5V34H390V0.5C390 0.223893 390.224 4.53476e-05 390.5 0C390.776 4.54382e-05 391 0.223893 391 0.5V34H420V0.5C420 0.223893 420.224 4.53474e-05 420.5 0C420.776 4.54385e-05 421 0.223894 421 0.5V34H450V0.5C450 0.223894 450.224 4.53472e-05 450.5 0C450.776 4.54388e-05 451 0.223894 451 0.5V34H480V0.5C480 0.223895 480.224 4.5347e-05 480.5 0C480.776 4.54391e-05 481 0.223895 481 0.5V34H510V0.5C510 0.223895 510.224 4.53468e-05 510.5 0C510.776 4.54394e-05 511 0.223895 511 0.5V34H540V0.5C540 0.223896 540.224 4.53466e-05 540.5 0C540.776 4.54397e-05 541 0.223896 541 0.5V34H570V0.5C570 0.223896 570.224 4.53464e-05 570.5 0C570.776 4.54401e-05 571 0.223897 571 0.5V34H600V0.5C600 0.223897 600.224 4.53462e-05 600.5 0C600.776 4.54404e-05 601 0.223897 601 0.5V34H630V0.5C630 0.223898 630.224 4.5346e-05 630.5 0C630.776 4.54407e-05 631 0.223898 631 0.5V34H660V0.5C660 0.223898 660.224 4.53459e-05 660.5 0C660.776 4.5441e-05 661 0.223898 661 0.5V34H690V0.5C690 0.223899 690.224 4.53457e-05 690.5 0C690.776 4.54413e-05 691 0.223899 691 0.5V34H720V0.5C720 0.223899 720.224 4.53455e-05 720.5 0C720.776 4.54416e-05 721 0.2239 721 0.5V34H750V0.5C750 0.223981 750.224 0.000177197 750.5 0C750.776 4.54419e-05 751 0.2239 751 0.5V34H780L780.001 0.5C780.001 0.223901 780.225 4.53333e-05 780.501 0C780.777 0.000309075 781.001 0.224064 781.001 0.5L781 34H810L810.001 0.5C810.001 0.223901 810.225 4.53331e-05 810.501 0C810.777 0.000309075 811.001 0.224064 811.001 0.5L811 34H840.001V0.5C840.001 0.223902 840.225 4.53329e-05 840.501 0C840.777 0.0001773 841.001 0.223983 841.001 0.5V34H870.001V0.5C870.001 0.223902 870.225 4.53327e-05 870.501 0C870.777 0.0001773 871.001 0.223984 871.001 0.5V34H900.001V0.5C900.001 0.223903 900.225 4.53444e-05 900.501 0C900.777 4.54435e-05 901.001 0.223903 901.001 0.5V34H930.001V0.5C930.001 0.223904 930.225 4.53442e-05 930.501 0C930.777 4.54438e-05 931.001 0.223904 931.001 0.5V34H960.001V0.5C960.001 0.223986 960.225 0.000177192 960.501 0C960.777 4.54441e-05 961.001 0.223904 961.001 0.5V34H990.001V0.5C990.001 0.223986 990.225 0.000177191 990.501 0C990.777 4.54444e-05 991.001 0.223905 991.001 0.5V34H1020L1020 0.5C1020 0.223905 1020.23 4.53318e-05 1020.5 0C1020.78 0.000309079 1021 0.224068 1021 0.5L1021 34H1050L1050 0.5C1050 0.223906 1050.23 4.53316e-05 1050.5 0ZM31 1894H60V1865H31V1894ZM61 1894H90V1865H61V1894ZM91 1894H120V1865H91V1894ZM121 1894H150V1865H121V1894ZM151 1894H180V1865H151V1894ZM181 1894H210V1865H181V1894ZM211 1894H240V1865H211V1894ZM241 1894H270V1865H241V1894ZM271 1894H300V1865H271V1894ZM301 1894H330V1865H301V1894ZM331 1894H360V1865H331V1894ZM361 1894H390V1865H361V1894ZM391 1894H420V1865H391V1894ZM421 1894H450V1865H421V1894ZM451 1894H480V1865H451V1894ZM481 1894H510V1865H481V1894ZM511 1894H540V1865H511V1894ZM541 1894H570V1865H541V1894ZM571 1894H600V1865H571V1894ZM601 1894H630V1865H601V1894ZM631 1894H660V1865H631V1894ZM661 1894H690V1865H661V1894ZM691 1894H720V1865H691V1894ZM721 1894H750V1865H721V1894ZM751 1894H780V1865H751V1894ZM781 1894H810V1865H781V1894ZM811 1894H840.001V1865H811V1894ZM841.001 1894H870.001V1865H841.001V1894ZM871.001 1894H900.001V1865H871.001V1894ZM901.001 1894H930.001V1865H901.001V1894ZM931.001 1894H960.001V1865H931.001V1894ZM961.001 1894H990.001V1865H961.001V1894ZM991.001 1894H1020V1865H991.001V1894ZM1021 1894H1050V1865H1021V1894ZM31 1864H60V1835H31V1864ZM61 1864H90V1835H61V1864ZM91 1864H120V1835H91V1864ZM121 1864H150V1835H121V1864ZM151 1864H180V1835H151V1864ZM181 1864H210V1835H181V1864ZM211 1864H240V1835H211V1864ZM241 1864H270V1835H241V1864ZM271 1864H300V1835H271V1864ZM301 1864H330V1835H301V1864ZM331 1864H360V1835H331V1864ZM361 1864H390V1835H361V1864ZM391 1864H420V1835H391V1864ZM421 1864H450V1835H421V1864ZM451 1864H480V1835H451V1864ZM481 1864H510V1835H481V1864ZM511 1864H540V1835H511V1864ZM541 1864H570V1835H541V1864ZM571 1864H600V1835H571V1864ZM601 1864H630V1835H601V1864ZM631 1864H660V1835H631V1864ZM661 1864H690V1835H661V1864ZM691 1864H720V1835H691V1864ZM721 1864H750V1835H721V1864ZM751 1864H780V1835H751V1864ZM781 1864H810V1835H781V1864ZM811 1864H840.001V1835H811V1864ZM841.001 1864H870.001V1835H841.001V1864ZM871.001 1864H900.001V1835H871.001V1864ZM901.001 1864H930.001V1835H901.001V1864ZM931.001 1864H960.001V1835H931.001V1864ZM961.001 1864H990.001V1835H961.001V1864ZM991.001 1864H1020V1835H991.001V1864ZM1021 1864H1050V1835H1021V1864ZM31 1834H60V1805H31V1834ZM61 1834H90V1805H61V1834ZM91 1834H120V1805H91V1834ZM121 1834H150V1805H121V1834ZM151 1834H180V1805H151V1834ZM181 1834H210V1805H181V1834ZM211 1834H240V1805H211V1834ZM241 1834H270V1805H241V1834ZM271 1834H300V1805H271V1834ZM301 1834H330V1805H301V1834ZM331 1834H360V1805H331V1834ZM361 1834H390V1805H361V1834ZM391 1834H420V1805H391V1834ZM421 1834H450V1805H421V1834ZM451 1834H480V1805H451V1834ZM481 1834H510V1805H481V1834ZM511 1834H540V1805H511V1834ZM541 1834H570V1805H541V1834ZM571 1834H600V1805H571V1834ZM601 1834H630V1805H601V1834ZM631 1834H660V1805H631V1834ZM661 1834H690V1805H661V1834ZM691 1834H720V1805H691V1834ZM721 1834H750V1805H721V1834ZM751 1834H780V1805H751V1834ZM781 1834H810V1805H781V1834ZM811 1834H840.001V1805H811V1834ZM841.001 1834H870.001V1805H841.001V1834ZM871.001 1834H900.001V1805H871.001V1834ZM901.001 1834H930.001V1805H901.001V1834ZM931.001 1834H960.001V1805H931.001V1834ZM961.001 1834H990.001V1805H961.001V1834ZM991.001 1834H1020V1805H991.001V1834ZM1021 1834H1050V1805H1021V1834ZM31 1804H60V1775H31V1804ZM61 1804H90V1775H61V1804ZM91 1804H120V1775H91V1804ZM121 1804H150V1775H121V1804ZM151 1804H180V1775H151V1804ZM181 1804H210V1775H181V1804ZM211 1804H240V1775H211V1804ZM241 1804H270V1775H241V1804ZM271 1804H300V1775H271V1804ZM301 1804H330V1775H301V1804ZM331 1804H360V1775H331V1804ZM361 1804H390V1775H361V1804ZM391 1804H420V1775H391V1804ZM421 1804H450V1775H421V1804ZM451 1804H480V1775H451V1804ZM481 1804H510V1775H481V1804ZM511 1804H540V1775H511V1804ZM541 1804H570V1775H541V1804ZM571 1804H600V1775H571V1804ZM601 1804H630V1775H601V1804ZM631 1804H660V1775H631V1804ZM661 1804H690V1775H661V1804ZM691 1804H720V1775H691V1804ZM721 1804H750V1775H721V1804ZM751 1804H780V1775H751V1804ZM781 1804H810V1775H781V1804ZM811 1804H840.001V1775H811V1804ZM841.001 1804H870.001V1775H841.001V1804ZM871.001 1804H900.001V1775H871.001V1804ZM901.001 1804H930.001V1775H901.001V1804ZM931.001 1804H960.001V1775H931.001V1804ZM961.001 1804H990.001V1775H961.001V1804ZM991.001 1804H1020V1775H991.001V1804ZM1021 1804H1050V1775H1021V1804ZM31 1714H51.585C51.3111 1714.33 51.045 1714.66 50.7871 1715H31V1744H49.123C49.3233 1744.34 49.5302 1744.67 49.7451 1745H31V1774H60V1754.1C60.3295 1754.27 60.6628 1754.42 61 1754.57V1774H90V1749.17C90.3436 1748.83 90.6759 1748.48 91 1748.11V1774H120V1745H93.3926C93.6075 1744.67 93.8153 1744.34 94.0156 1744H120V1715H92.3506C92.0927 1714.66 91.8266 1714.33 91.5527 1714H120V1685H91V1713.36C90.676 1713 90.3435 1712.65 90 1712.3V1685H61V1706.9C60.6628 1707.05 60.3294 1707.21 60 1707.37V1685H31V1714ZM121 1774H150V1745H121V1774ZM151 1774H180V1745H151V1774ZM181 1774H210V1745H181V1774ZM211 1774H240V1745H211V1774ZM241 1774H270V1745H241V1774ZM271 1774H300V1745H271V1774ZM301 1774H330V1745H301V1774ZM331 1774H360V1745H331V1774ZM361 1774H390V1745H361V1774ZM391 1774H420V1745H391V1774ZM421 1774H450V1745H421V1774ZM451 1774H480V1745H451V1774ZM481 1774H510V1745H481V1774ZM511 1774H540V1745H511V1774ZM541 1774H570V1745H541V1774ZM571 1774H600V1745H571V1774ZM601 1774H630V1745H601V1774ZM631 1774H660V1745H631V1774ZM661 1774H690V1745H661V1774ZM691 1774H720V1745H691V1774ZM721 1774H750V1745H721V1774ZM751 1774H780V1745H751V1774ZM781 1774H810V1745H781V1774ZM811 1774H840.001V1745H811V1774ZM841.001 1774H870.001V1745H841.001V1774ZM871.001 1774H900.001V1745H871.001V1774ZM901.001 1774H930.001V1745H901.001V1774ZM931.001 1774H960.001V1745H931.001V1774ZM961.001 1774H990.001V1745H961.001V1774ZM991.001 1774H1020V1745H991.001V1774ZM1021 1774H1050V1745H1021V1774ZM121 1744H150V1715H121V1744ZM151 1744H180V1715H151V1744ZM181 1744H210V1715H181V1744ZM211 1744H240V1715H211V1744ZM241 1744H270V1715H241V1744ZM271 1744H300V1715H271V1744ZM301 1744H330V1715H301V1744ZM331 1744H360V1715H331V1744ZM361 1744H390V1715H361V1744ZM391 1744H420V1715H391V1744ZM421 1744H450V1715H421V1744ZM451 1744H480V1715H451V1744ZM481 1744H510V1715H481V1744ZM511 1744H540V1715H511V1744ZM541 1744H570V1715H541V1744ZM571 1744H600V1715H571V1744ZM601 1744H630V1715H601V1744ZM631 1744H660V1715H631V1744ZM661 1744H690V1715H661V1744ZM691 1744H720V1715H691V1744ZM721 1744H750V1715H721V1744ZM751 1744H780V1715H751V1744ZM781 1744H810V1715H781V1744ZM811 1744H840.001V1715H811V1744ZM841.001 1744H870.001V1715H841.001V1744ZM871.001 1744H900.001V1715H871.001V1744ZM901.001 1744H930.001V1715H901.001V1744ZM931.001 1744H960.001V1715H931.001V1744ZM961.001 1744H990.001V1715H961.001V1744ZM991.001 1744H1020V1715H991.001V1744ZM1021 1744H1050V1715H1021V1744ZM121 1714H150V1685H121V1714ZM151 1714H180V1685H151V1714ZM181 1714H210V1685H181V1714ZM211 1714H240V1685H211V1714ZM241 1714H270V1685H241V1714ZM271 1714H300V1685H271V1714ZM301 1714H330V1685H301V1714ZM331 1714H360V1685H331V1714ZM361 1714H390V1685H361V1714ZM391 1714H420V1685H391V1714ZM421 1714H450V1685H421V1714ZM451 1714H480V1685H451V1714ZM481 1714H510V1685H481V1714ZM511 1714H540V1685H511V1714ZM541 1714H570V1685H541V1714ZM571 1714H600V1685H571V1714ZM601 1714H630V1685H601V1714ZM631 1714H660V1685H631V1714ZM661 1714H690V1685H661V1714ZM691 1714H720V1685H691V1714ZM721 1714H750V1685H721V1714ZM751 1714H780V1685H751V1714ZM781 1714H810V1685H781V1714ZM811 1714H840.001V1685H811V1714ZM841.001 1714H870.001V1685H841.001V1714ZM871.001 1714H900.001V1685H871.001V1714ZM901.001 1714H930.001V1685H901.001V1714ZM931.001 1714H960.001V1685H931.001V1714ZM961.001 1714H990.001V1685H961.001V1714ZM991.001 1714H1020V1685H991.001V1714ZM1021 1714H1050V1685H1021V1714ZM31 1684H60V1655H31V1684ZM61 1684H90V1655H61V1684ZM91 1684H120V1655H91V1684ZM121 1684H150V1655H121V1684ZM151 1684H180V1655H151V1684ZM181 1684H210V1655H181V1684ZM211 1684H240V1655H211V1684ZM241 1684H270V1655H241V1684ZM271 1684H300V1655H271V1684ZM301 1684H330V1655H301V1684ZM331 1684H360V1655H331V1684ZM361 1684H390V1655H361V1684ZM391 1684H420V1655H391V1684ZM421 1684H450V1655H421V1684ZM451 1684H480V1655H451V1684ZM481 1684H510V1655H481V1684ZM511 1684H540V1655H511V1684ZM541 1684H570V1655H541V1684ZM571 1684H600V1655H571V1684ZM601 1684H630V1655H601V1684ZM631 1684H660V1655H631V1684ZM661 1684H690V1655H661V1684ZM691 1684H720V1655H691V1684ZM721 1684H750V1655H721V1684ZM751 1684H780V1655H751V1684ZM781 1684H810V1655H781V1684ZM811 1684H840.001V1655H811V1684ZM841.001 1684H870.001V1655H841.001V1684ZM871.001 1684H900.001V1655H871.001V1684ZM901.001 1684H930.001V1655H901.001V1684ZM931.001 1684H960.001V1655H931.001V1684ZM961.001 1684H990.001V1655H961.001V1684ZM991.001 1684H1020V1655H991.001V1684ZM1021 1684H1050V1655H1021V1684ZM31 1654H60V1625H31V1654ZM61 1654H90V1625H61V1654ZM91 1654H120V1625H91V1654ZM121 1654H150V1625H121V1654ZM151 1654H180V1625H151V1654ZM181 1654H210V1625H181V1654ZM211 1654H240V1625H211V1654ZM241 1654H270V1625H241V1654ZM271 1654H300V1625H271V1654ZM301 1654H330V1625H301V1654ZM331 1654H360V1625H331V1654ZM361 1654H390V1625H361V1654ZM391 1654H420V1625H391V1654ZM421 1654H450V1625H421V1654ZM451 1654H480V1625H451V1654ZM481 1654H510V1625H481V1654ZM511 1654H540V1625H511V1654ZM541 1654H570V1625H541V1654ZM571 1654H600V1625H571V1654ZM601 1654H630V1625H601V1654ZM631 1654H660V1625H631V1654ZM661 1654H690V1625H661V1654ZM691 1654H720V1625H691V1654ZM721 1654H750V1625H721V1654ZM751 1654H780V1625H751V1654ZM781 1654H810V1625H781V1654ZM811 1654H840.001V1625H811V1654ZM841.001 1654H870.001V1625H841.001V1654ZM871.001 1654H900.001V1625H871.001V1654ZM901.001 1654H930.001V1625H901.001V1654ZM931.001 1654H960.001V1625H931.001V1654ZM961.001 1654H990.001V1625H961.001V1654ZM991.001 1654H1020V1625H991.001V1654ZM1021 1654H1050V1625H1021V1654ZM31 1624H60V1595H31V1624ZM61 1624H90V1595H61V1624ZM91 1624H120V1595H91V1624ZM121 1624H150V1595H121V1624ZM151 1624H180V1595H151V1624ZM181 1624H210V1595H181V1624ZM211 1624H240V1595H211V1624ZM241 1624H270V1595H241V1624ZM271 1624H300V1595H271V1624ZM301 1624H330V1595H301V1624ZM331 1624H360V1595H331V1624ZM361 1624H390V1595H361V1624ZM391 1624H420V1595H391V1624ZM421 1624H450V1595H421V1624ZM451 1624H480V1595H451V1624ZM481 1624H510V1595H481V1624ZM511 1624H540V1595H511V1624ZM541 1624H570V1595H541V1624ZM571 1624H600V1595H571V1624ZM601 1624H630V1595H601V1624ZM631 1624H660V1595H631V1624ZM661 1624H690V1595H661V1624ZM691 1624H720V1595H691V1624ZM721 1624H750V1595H721V1624ZM751 1624H780V1595H751V1624ZM781 1624H810V1595H781V1624ZM811 1624H840.001V1595H811V1624ZM841.001 1624H870.001V1595H841.001V1624ZM871.001 1624H900.001V1595H871.001V1624ZM901.001 1624H930.001V1595H901.001V1624ZM931.001 1624H960.001V1595H931.001V1624ZM961.001 1624H990.001V1595H961.001V1624ZM991.001 1624H1020V1595H991.001V1624ZM1021 1624H1050V1595H1021V1624ZM31 1564H45.6582C45.6218 1564.33 45.5922 1564.66 45.5684 1565H31V1594H60V1590.24C60.3295 1590.4 60.6628 1590.56 61 1590.71V1594H90V1585.31C90.3436 1584.97 90.6759 1584.61 91 1584.25V1594H120V1565H97.5693C97.5455 1564.66 97.5159 1564.33 97.4795 1564H120V1535H91V1549.5C90.676 1549.14 90.3435 1548.78 90 1548.44V1535H61V1543.04C60.6628 1543.19 60.3294 1543.35 60 1543.51V1535H31V1564ZM121 1594H150V1565H121V1594ZM151 1594H180V1565H151V1594ZM181 1594H210V1565H181V1594ZM211 1594H240V1565H211V1594ZM241 1594H270V1565H241V1594ZM271 1594H300V1565H271V1594ZM301 1594H330V1565H301V1594ZM331 1594H360V1565H331V1594ZM361 1594H390V1565H361V1594ZM391 1594H420V1565H391V1594ZM421 1594H450V1565H421V1594ZM451 1594H480V1565H451V1594ZM481 1594H510V1565H481V1594ZM511 1594H540V1565H511V1594ZM541 1594H570V1565H541V1594ZM571 1594H600V1565H571V1594ZM601 1594H630V1565H601V1594ZM631 1594H660V1565H631V1594ZM661 1594H690V1565H661V1594ZM691 1594H720V1565H691V1594ZM721 1594H750V1565H721V1594ZM751 1594H780V1565H751V1594ZM781 1594H810V1565H781V1594ZM811 1594H840.001V1565H811V1594ZM841.001 1594H870.001V1565H841.001V1594ZM871.001 1594H900.001V1565H871.001V1594ZM901.001 1594H930.001V1565H901.001V1594ZM931.001 1594H960.001V1565H931.001V1594ZM961.001 1594H990.001V1565H961.001V1594ZM991.001 1594H1020V1565H991.001V1594ZM1021 1594H1050V1565H1021V1594ZM121 1564H150V1535H121V1564ZM151 1564H180V1535H151V1564ZM181 1564H210V1535H181V1564ZM211 1564H240V1535H211V1564ZM241 1564H270V1535H241V1564ZM271 1564H300V1535H271V1564ZM301 1564H330V1535H301V1564ZM331 1564H360V1535H331V1564ZM361 1564H390V1535H361V1564ZM391 1564H420V1535H391V1564ZM421 1564H450V1535H421V1564ZM451 1564H480V1535H451V1564ZM481 1564H510V1535H481V1564ZM511 1564H540V1535H511V1564ZM541 1564H570V1535H541V1564ZM571 1564H600V1535H571V1564ZM601 1564H630V1535H601V1564ZM631 1564H660V1535H631V1564ZM661 1564H690V1535H661V1564ZM691 1564H720V1535H691V1564ZM721 1564H750V1535H721V1564ZM751 1564H780V1535H751V1564ZM781 1564H810V1535H781V1564ZM811 1564H840.001V1535H811V1564ZM841.001 1564H870.001V1535H841.001V1564ZM871.001 1564H900.001V1535H871.001V1564ZM901.001 1564H930.001V1535H901.001V1564ZM931.001 1564H960.001V1535H931.001V1564ZM961.001 1564H990.001V1535H961.001V1564ZM991.001 1564H1020V1535H991.001V1564ZM1021 1564H1050V1535H1021V1564ZM31 1534H60V1505H31V1534ZM61 1534H90V1505H61V1534ZM91 1534H120V1505H91V1534ZM121 1534H150V1505H121V1534ZM151 1534H180V1505H151V1534ZM181 1534H210V1505H181V1534ZM211 1534H240V1505H211V1534ZM241 1534H270V1505H241V1534ZM271 1534H300V1505H271V1534ZM301 1534H330V1505H301V1534ZM331 1534H360V1505H331V1534ZM361 1534H390V1505H361V1534ZM391 1534H420V1505H391V1534ZM421 1534H450V1505H421V1534ZM451 1534H480V1505H451V1534ZM481 1534H510V1505H481V1534ZM511 1534H540V1505H511V1534ZM541 1534H570V1505H541V1534ZM571 1534H600V1505H571V1534ZM601 1534H630V1505H601V1534ZM631 1534H660V1505H631V1534ZM661 1534H690V1505H661V1534ZM691 1534H720V1505H691V1534ZM721 1534H750V1505H721V1534ZM751 1534H780V1505H751V1534ZM781 1534H810V1505H781V1534ZM811 1534H840.001V1505H811V1534ZM841.001 1534H870.001V1505H841.001V1534ZM871.001 1534H900.001V1505H871.001V1534ZM901.001 1534H930.001V1505H901.001V1534ZM931.001 1534H960.001V1505H931.001V1534ZM961.001 1534H990.001V1505H961.001V1534ZM991.001 1534H1020V1505H991.001V1534ZM1021 1534H1050V1505H1021V1534ZM31 1504H60V1475H31V1504ZM61 1504H90V1475H61V1504ZM91 1504H120V1475H91V1504ZM121 1504H150V1475H121V1504ZM151 1504H180V1475H151V1504ZM181 1504H210V1475H181V1504ZM211 1504H240V1475H211V1504ZM241 1504H270V1475H241V1504ZM271 1504H300V1475H271V1504ZM301 1504H330V1475H301V1504ZM331 1504H360V1475H331V1504ZM361 1504H390V1475H361V1504ZM391 1504H420V1475H391V1504ZM421 1504H450V1475H421V1504ZM451 1504H480V1475H451V1504ZM481 1504H510V1475H481V1504ZM511 1504H540V1475H511V1504ZM541 1504H570V1475H541V1504ZM571 1504H600V1475H571V1504ZM601 1504H630V1475H601V1504ZM631 1504H660V1475H631V1504ZM661 1504H690V1475H661V1504ZM691 1504H720V1475H691V1504ZM721 1504H750V1475H721V1504ZM751 1504H780V1475H751V1504ZM781 1504H810V1475H781V1504ZM811 1504H840.001V1475H811V1504ZM841.001 1504H870.001V1475H841.001V1504ZM871.001 1504H900.001V1475H871.001V1504ZM901.001 1504H930.001V1475H901.001V1504ZM931.001 1504H960.001V1475H931.001V1504ZM961.001 1504H990.001V1475H961.001V1504ZM991.001 1504H1020V1475H991.001V1504ZM1021 1504H1050V1475H1021V1504ZM31 1474H60V1445H31V1474ZM61 1474H90V1445H61V1474ZM91 1474H120V1445H91V1474ZM121 1474H150V1445H121V1474ZM151 1474H180V1445H151V1474ZM181 1474H210V1445H181V1474ZM211 1474H240V1445H211V1474ZM241 1474H270V1445H241V1474ZM271 1474H300V1445H271V1474ZM301 1474H330V1445H301V1474ZM331 1474H360V1445H331V1474ZM361 1474H390V1445H361V1474ZM391 1474H420V1445H391V1474ZM421 1474H450V1445H421V1474ZM451 1474H480V1445H451V1474ZM481 1474H510V1445H481V1474ZM511 1474H540V1445H511V1474ZM541 1474H570V1445H541V1474ZM571 1474H600V1445H571V1474ZM601 1474H630V1445H601V1474ZM631 1474H660V1445H631V1474ZM661 1474H690V1445H661V1474ZM691 1474H720V1445H691V1474ZM721 1474H750V1445H721V1474ZM751 1474H780V1445H751V1474ZM781 1474H810V1445H781V1474ZM811 1474H840.001V1445H811V1474ZM841.001 1474H870.001V1445H841.001V1474ZM871.001 1474H900.001V1445H871.001V1474ZM901.001 1474H930.001V1445H901.001V1474ZM931.001 1474H960.001V1445H931.001V1474ZM961.001 1474H990.001V1445H961.001V1474ZM991.001 1474H1020V1445H991.001V1474ZM1021 1474H1050V1445H1021V1474ZM31 1384H53.7393C53.3933 1384.32 53.0553 1384.66 52.7275 1385H31V1414H47.9219C48.0788 1414.34 48.2423 1414.67 48.4131 1415H31V1444H60V1426.38C60.3295 1426.55 60.6628 1426.7 61 1426.85V1444H90V1421.45C90.3436 1421.11 90.6759 1420.75 91 1420.39V1444H120V1415H94.7246C94.8954 1414.67 95.0589 1414.34 95.2158 1414H120V1385H91V1385.64C90.4902 1385.07 89.9559 1384.52 89.3984 1384H90V1355H61V1379.18C60.6628 1379.33 60.3294 1379.49 60 1379.65V1355H31V1384ZM121 1444H150V1415H121V1444ZM151 1444H180V1415H151V1444ZM181 1444H210V1415H181V1444ZM211 1444H240V1415H211V1444ZM241 1444H270V1415H241V1444ZM271 1444H300V1415H271V1444ZM301 1444H330V1415H301V1444ZM331 1444H360V1415H331V1444ZM361 1444H390V1415H361V1444ZM391 1444H420V1415H391V1444ZM421 1444H450V1415H421V1444ZM451 1444H480V1415H451V1444ZM481 1444H510V1415H481V1444ZM511 1444H540V1415H511V1444ZM541 1444H570V1415H541V1444ZM571 1444H600V1415H571V1444ZM601 1444H630V1415H601V1444ZM631 1444H660V1415H631V1444ZM661 1444H690V1415H661V1444ZM691 1444H720V1415H691V1444ZM721 1444H750V1415H721V1444ZM751 1444H780V1415H751V1444ZM781 1444H810V1415H781V1444ZM811 1444H840.001V1415H811V1444ZM841.001 1444H870.001V1415H841.001V1444ZM871.001 1444H900.001V1415H871.001V1444ZM901.001 1444H930.001V1415H901.001V1444ZM931.001 1444H960.001V1415H931.001V1444ZM961.001 1444H990.001V1415H961.001V1444ZM991.001 1444H1020V1415H991.001V1444ZM1021 1444H1050V1415H1021V1444ZM121 1414H150V1385H121V1414ZM151 1414H180V1385H151V1414ZM181 1414H210V1385H181V1414ZM211 1414H240V1385H211V1414ZM241 1414H270V1385H241V1414ZM271 1414H300V1385H271V1414ZM301 1414H330V1385H301V1414ZM331 1414H360V1385H331V1414ZM361 1414H390V1385H361V1414ZM391 1414H420V1385H391V1414ZM421 1414H450V1385H421V1414ZM451 1414H480V1385H451V1414ZM481 1414H510V1385H481V1414ZM511 1414H540V1385H511V1414ZM541 1414H570V1385H541V1414ZM571 1414H600V1385H571V1414ZM601 1414H630V1385H601V1414ZM631 1414H660V1385H631V1414ZM661 1414H690V1385H661V1414ZM691 1414H720V1385H691V1414ZM721 1414H750V1385H721V1414ZM751 1414H780V1385H751V1414ZM781 1414H810V1385H781V1414ZM811 1414H840.001V1385H811V1414ZM841.001 1414H870.001V1385H841.001V1414ZM871.001 1414H900.001V1385H871.001V1414ZM901.001 1414H930.001V1385H901.001V1414ZM931.001 1414H960.001V1385H931.001V1414ZM961.001 1414H990.001V1385H961.001V1414ZM991.001 1414H1020V1385H991.001V1414ZM1021 1414H1050V1385H1021V1414ZM91 1384H120V1355H91V1384ZM121 1384H150V1355H121V1384ZM151 1384H180V1355H151V1384ZM181 1384H210V1355H181V1384ZM211 1384H240V1355H211V1384ZM241 1384H270V1355H241V1384ZM271 1384H300V1355H271V1384ZM301 1384H330V1355H301V1384ZM331 1384H360V1355H331V1384ZM361 1384H390V1355H361V1384ZM391 1384H420V1355H391V1384ZM421 1384H450V1355H421V1384ZM451 1384H480V1355H451V1384ZM481 1384H510V1355H481V1384ZM511 1384H540V1355H511V1384ZM541 1384H570V1355H541V1384ZM571 1384H600V1355H571V1384ZM601 1384H630V1355H601V1384ZM631 1384H660V1355H631V1384ZM661 1384H690V1355H661V1384ZM691 1384H720V1355H691V1384ZM721 1384H750V1355H721V1384ZM751 1384H780V1355H751V1384ZM781 1384H810V1355H781V1384ZM811 1384H840.001V1355H811V1384ZM841.001 1384H870.001V1355H841.001V1384ZM871.001 1384H900.001V1355H871.001V1384ZM901.001 1384H930.001V1355H901.001V1384ZM931.001 1384H960.001V1355H931.001V1384ZM961.001 1384H990.001V1355H961.001V1384ZM991.001 1384H1020V1355H991.001V1384ZM1021 1384H1050V1355H1021V1384ZM31 1354H60V1325H31V1354ZM61 1354H90V1325H61V1354ZM91 1354H120V1325H91V1354ZM121 1354H150V1325H121V1354ZM151 1354H180V1325H151V1354ZM181 1354H210V1325H181V1354ZM211 1354H240V1325H211V1354ZM241 1354H270V1325H241V1354ZM271 1354H300V1325H271V1354ZM301 1354H330V1325H301V1354ZM331 1354H360V1325H331V1354ZM361 1354H390V1325H361V1354ZM391 1354H420V1325H391V1354ZM421 1354H450V1325H421V1354ZM451 1354H480V1325H451V1354ZM481 1354H510V1325H481V1354ZM511 1354H540V1325H511V1354ZM541 1354H570V1325H541V1354ZM571 1354H600V1325H571V1354ZM601 1354H630V1325H601V1354ZM631 1354H660V1325H631V1354ZM661 1354H690V1325H661V1354ZM691 1354H720V1325H691V1354ZM721 1354H750V1325H721V1354ZM751 1354H780V1325H751V1354ZM781 1354H810V1325H781V1354ZM811 1354H840.001V1325H811V1354ZM841.001 1354H870.001V1325H841.001V1354ZM871.001 1354H900.001V1325H871.001V1354ZM901.001 1354H930.001V1325H901.001V1354ZM931.001 1354H960.001V1325H931.001V1354ZM961.001 1354H990.001V1325H961.001V1354ZM991.001 1354H1020V1325H991.001V1354ZM1021 1354H1050V1325H1021V1354ZM31 1324H60V1295H31V1324ZM61 1324H90V1295H61V1324ZM91 1324H120V1295H91V1324ZM121 1324H150V1295H121V1324ZM151 1324H180V1295H151V1324ZM181 1324H210V1295H181V1324ZM211 1324H240V1295H211V1324ZM241 1324H270V1295H241V1324ZM271 1324H300V1295H271V1324ZM301 1324H330V1295H301V1324ZM331 1324H360V1295H331V1324ZM361 1324H390V1295H361V1324ZM391 1324H420V1295H391V1324ZM421 1324H450V1295H421V1324ZM451 1324H480V1295H451V1324ZM481 1324H510V1295H481V1324ZM511 1324H540V1295H511V1324ZM541 1324H570V1295H541V1324ZM571 1324H600V1295H571V1324ZM601 1324H630V1295H601V1324ZM631 1324H660V1295H631V1324ZM661 1324H690V1295H661V1324ZM691 1324H720V1295H691V1324ZM721 1324H750V1295H721V1324ZM751 1324H780V1295H751V1324ZM781 1324H810V1295H781V1324ZM811 1324H840.001V1295H811V1324ZM841.001 1324H870.001V1295H841.001V1324ZM871.001 1324H900.001V1295H871.001V1324ZM901.001 1324H930.001V1295H901.001V1324ZM931.001 1324H960.001V1295H931.001V1324ZM961.001 1324H990.001V1295H961.001V1324ZM991.001 1324H1020V1295H991.001V1324ZM1021 1324H1050V1295H1021V1324ZM31 1294H60V1265H31V1294ZM31 1234H46.0098C45.9434 1234.33 45.8848 1234.66 45.8311 1235H31V1264H60V1262.52C60.3295 1262.68 60.6628 1262.84 61 1262.99V1264H63.6631C65.1108 1264.46 66.6131 1264.8 68.1582 1265H61V1294H90V1265H74.9805C76.5253 1264.8 78.0272 1264.46 79.4746 1264H90V1257.59C90.3436 1257.25 90.6759 1256.89 91 1256.53V1264H120V1235H97.3076C97.2539 1234.66 97.1943 1234.33 97.1279 1234H120V1205H91V1221.78C90.676 1221.41 90.3435 1221.06 90 1220.72V1205H61V1215.32C60.6628 1215.47 60.3294 1215.62 60 1215.79V1205H31V1234ZM91 1294H120V1265H91V1294ZM121 1294H150V1265H121V1294ZM151 1294H180V1265H151V1294ZM181 1294H210V1265H181V1294ZM211 1294H240V1265H211V1294ZM241 1294H270V1265H241V1294ZM271 1294H300V1265H271V1294ZM301 1294H330V1265H301V1294ZM331 1294H360V1265H331V1294ZM361 1294H390V1265H361V1294ZM391 1294H420V1265H391V1294ZM421 1294H450V1265H421V1294ZM451 1294H480V1265H451V1294ZM481 1294H510V1265H481V1294ZM511 1294H540V1265H511V1294ZM541 1294H570V1265H541V1294ZM571 1294H600V1265H571V1294ZM601 1294H630V1265H601V1294ZM631 1294H660V1265H631V1294ZM661 1294H690V1265H661V1294ZM691 1294H720V1265H691V1294ZM721 1294H750V1265H721V1294ZM751 1294H780V1265H751V1294ZM781 1294H810V1265H781V1294ZM811 1294H840.001V1265H811V1294ZM841.001 1294H870.001V1265H841.001V1294ZM871.001 1294H900.001V1265H871.001V1294ZM901.001 1294H930.001V1265H901.001V1294ZM931.001 1294H960.001V1265H931.001V1294ZM961.001 1294H990.001V1265H961.001V1294ZM991.001 1294H1020V1265H991.001V1294ZM1021 1294H1050V1265H1021V1294ZM121 1264H150V1235H121V1264ZM151 1264H180V1235H151V1264ZM181 1264H210V1235H181V1264ZM211 1264H240V1235H211V1264ZM241 1264H270V1235H241V1264ZM271 1264H300V1235H271V1264ZM301 1264H330V1235H301V1264ZM331 1264H360V1235H331V1264ZM361 1264H390V1235H361V1264ZM391 1264H420V1235H391V1264ZM421 1264H450V1235H421V1264ZM451 1264H480V1235H451V1264ZM481 1264H510V1235H481V1264ZM511 1264H540V1235H511V1264ZM541 1264H570V1235H541V1264ZM571 1264H600V1235H571V1264ZM601 1264H630V1235H601V1264ZM631 1264H660V1235H631V1264ZM661 1264H690V1235H661V1264ZM691 1264H720V1235H691V1264ZM721 1264H750V1235H721V1264ZM751 1264H780V1235H751V1264ZM781 1264H810V1235H781V1264ZM811 1264H840.001V1235H811V1264ZM841.001 1264H870.001V1235H841.001V1264ZM871.001 1264H900.001V1235H871.001V1264ZM901.001 1264H930.001V1235H901.001V1264ZM931.001 1264H960.001V1235H931.001V1264ZM961.001 1264H990.001V1235H961.001V1264ZM991.001 1264H1020V1235H991.001V1264ZM1021 1264H1050V1235H1021V1264ZM121 1234H150V1205H121V1234ZM151 1234H180V1205H151V1234ZM181 1234H210V1205H181V1234ZM211 1234H240V1205H211V1234ZM241 1234H270V1205H241V1234ZM271 1234H300V1205H271V1234ZM301 1234H330V1205H301V1234ZM331 1234H360V1205H331V1234ZM361 1234H390V1205H361V1234ZM391 1234H420V1205H391V1234ZM421 1234H450V1205H421V1234ZM451 1234H480V1205H451V1234ZM481 1234H510V1205H481V1234ZM511 1234H540V1205H511V1234ZM541 1234H570V1205H541V1234ZM571 1234H600V1205H571V1234ZM601 1234H630V1205H601V1234ZM631 1234H660V1205H631V1234ZM661 1234H690V1205H661V1234ZM691 1234H720V1205H691V1234ZM721 1234H750V1205H721V1234ZM751 1234H780V1205H751V1234ZM781 1234H810V1205H781V1234ZM811 1234H840.001V1205H811V1234ZM841.001 1234H870.001V1205H841.001V1234ZM871.001 1234H900.001V1205H871.001V1234ZM901.001 1234H930.001V1205H901.001V1234ZM931.001 1234H960.001V1205H931.001V1234ZM961.001 1234H990.001V1205H961.001V1234ZM991.001 1234H1020V1205H991.001V1234ZM1021 1234H1050V1205H1021V1234ZM31 1204H60V1175H31V1204ZM61 1204H90V1175H61V1204ZM91 1204H120V1175H91V1204ZM121 1204H150V1175H121V1204ZM151 1204H180V1175H151V1204ZM181 1204H210V1175H181V1204ZM211 1204H240V1175H211V1204ZM241 1204H270V1175H241V1204ZM271 1204H300V1175H271V1204ZM301 1204H330V1175H301V1204ZM331 1204H360V1175H331V1204ZM361 1204H390V1175H361V1204ZM391 1204H420V1175H391V1204ZM421 1204H450V1175H421V1204ZM451 1204H480V1175H451V1204ZM481 1204H510V1175H481V1204ZM511 1204H540V1175H511V1204ZM541 1204H570V1175H541V1204ZM571 1204H600V1175H571V1204ZM601 1204H630V1175H601V1204ZM631 1204H660V1175H631V1204ZM661 1204H690V1175H661V1204ZM691 1204H720V1175H691V1204ZM721 1204H750V1175H721V1204ZM751 1204H780V1175H751V1204ZM781 1204H810V1175H781V1204ZM811 1204H840.001V1175H811V1204ZM841.001 1204H870.001V1175H841.001V1204ZM871.001 1204H900.001V1175H871.001V1204ZM901.001 1204H930.001V1175H901.001V1204ZM931.001 1204H960.001V1175H931.001V1204ZM961.001 1204H990.001V1175H961.001V1204ZM991.001 1204H1020V1175H991.001V1204ZM1021 1204H1050V1175H1021V1204ZM31 1174H60V1145H31V1174ZM61 1174H90V1145H61V1174ZM91 1174H120V1145H91V1174ZM121 1174H150V1145H121V1174ZM151 1174H180V1145H151V1174ZM181 1174H210V1145H181V1174ZM211 1174H240V1145H211V1174ZM241 1174H270V1145H241V1174ZM271 1174H300V1145H271V1174ZM301 1174H330V1145H301V1174ZM331 1174H360V1145H331V1174ZM361 1174H390V1145H361V1174ZM391 1174H420V1145H391V1174ZM421 1174H450V1145H421V1174ZM451 1174H480V1145H451V1174ZM481 1174H510V1145H481V1174ZM511 1174H540V1145H511V1174ZM541 1174H570V1145H541V1174ZM571 1174H600V1145H571V1174ZM601 1174H630V1145H601V1174ZM631 1174H660V1145H631V1174ZM661 1174H690V1145H661V1174ZM691 1174H720V1145H691V1174ZM721 1174H750V1145H721V1174ZM751 1174H780V1145H751V1174ZM781 1174H810V1145H781V1174ZM811 1174H840.001V1145H811V1174ZM841.001 1174H870.001V1145H841.001V1174ZM871.001 1174H900.001V1145H871.001V1174ZM901.001 1174H930.001V1145H901.001V1174ZM931.001 1174H960.001V1145H931.001V1174ZM961.001 1174H990.001V1145H961.001V1174ZM991.001 1174H1020V1145H991.001V1174ZM1021 1174H1050V1145H1021V1174ZM31 1144H60V1115H31V1144ZM61 1144H90V1115H61V1144ZM91 1144H120V1115H91V1144ZM121 1144H150V1115H121V1144ZM151 1144H180V1115H151V1144ZM181 1144H210V1115H181V1144ZM211 1144H240V1115H211V1144ZM241 1144H270V1115H241V1144ZM271 1144H300V1115H271V1144ZM301 1144H330V1115H301V1144ZM331 1144H360V1115H331V1144ZM361 1144H390V1115H361V1144ZM391 1144H420V1115H391V1144ZM421 1144H450V1115H421V1144ZM451 1144H480V1115H451V1144ZM481 1144H510V1115H481V1144ZM511 1144H540V1115H511V1144ZM541 1144H570V1115H541V1144ZM571 1144H600V1115H571V1144ZM601 1144H630V1115H601V1144ZM631 1144H660V1115H631V1144ZM661 1144H690V1115H661V1144ZM691 1144H720V1115H691V1144ZM721 1144H750V1115H721V1144ZM751 1144H780V1115H751V1144ZM781 1144H810V1115H781V1144ZM811 1144H840.001V1115H811V1144ZM841.001 1144H870.001V1115H841.001V1144ZM871.001 1144H900.001V1115H871.001V1144ZM901.001 1144H930.001V1115H901.001V1144ZM931.001 1144H960.001V1115H931.001V1144ZM961.001 1144H990.001V1115H961.001V1144ZM991.001 1144H1020V1115H991.001V1144ZM1021 1144H1050V1115H1021V1144ZM31 1114H60V1085H31V1114ZM61 1114H90V1085H61V1114ZM91 1114H120V1085H91V1114ZM121 1114H150V1085H121V1114ZM151 1114H180V1085H151V1114ZM181 1114H210V1085H181V1114ZM211 1114H240V1085H211V1114ZM241 1114H270V1085H241V1114ZM271 1114H300V1085H271V1114ZM301 1114H330V1085H301V1114ZM331 1114H360V1085H331V1114ZM361 1114H390V1085H361V1114ZM391 1114H420V1085H391V1114ZM421 1114H450V1085H421V1114ZM451 1114H480V1085H451V1114ZM481 1114H510V1085H481V1114ZM511 1114H540V1085H511V1114ZM541 1114H570V1085H541V1114ZM571 1114H600V1085H571V1114ZM601 1114H630V1085H601V1114ZM631 1114H660V1085H631V1114ZM661 1114H690V1085H661V1114ZM691 1114H720V1085H691V1114ZM721 1114H750V1085H721V1114ZM751 1114H780V1085H751V1114ZM781 1114H810V1085H781V1114ZM811 1114H840.001V1085H811V1114ZM841.001 1114H870.001V1085H841.001V1114ZM871.001 1114H900.001V1085H871.001V1114ZM901.001 1114H930.001V1085H901.001V1114ZM931.001 1114H960.001V1085H931.001V1114ZM961.001 1114H990.001V1085H961.001V1114ZM991.001 1114H1020V1085H991.001V1114ZM1021 1114H1050V1085H1021V1114ZM31 1084H60V1055H31V1084ZM61 1084H90V1055H61V1084ZM91 1084H120V1055H91V1084ZM121 1084H150V1055H121V1084ZM151 1084H180V1055H151V1084ZM181 1084H210V1055H181V1084ZM211 1084H240V1055H211V1084ZM241 1084H270V1055H241V1084ZM271 1084H300V1055H271V1084ZM301 1084H330V1055H301V1084ZM331 1084H360V1055H331V1084ZM361 1084H390V1055H361V1084ZM391 1084H420V1055H391V1084ZM421 1084H450V1055H421V1084ZM451 1084H480V1055H451V1084ZM481 1084H510V1055H481V1084ZM511 1084H540V1055H511V1084ZM541 1084H570V1055H541V1084ZM571 1084H600V1055H571V1084ZM601 1084H630V1055H601V1084ZM631 1084H660V1055H631V1084ZM661 1084H690V1055H661V1084ZM691 1084H720V1055H691V1084ZM721 1084H750V1055H721V1084ZM751 1084H780V1055H751V1084ZM781 1084H810V1055H781V1084ZM811 1084H840.001V1055H811V1084ZM841.001 1084H870.001V1055H841.001V1084ZM871.001 1084H900.001V1055H871.001V1084ZM901.001 1084H930.001V1055H901.001V1084ZM931.001 1084H960.001V1055H931.001V1084ZM961.001 1084H990.001V1055H961.001V1084ZM991.001 1084H1020V1055H991.001V1084ZM1021 1084H1050V1055H1021V1084ZM31 1054H60V1025H31V1054ZM61 1054H90V1025H61V1054ZM91 1054H120V1025H91V1054ZM121 1054H150V1025H121V1054ZM151 1054H180V1025H151V1054ZM181 1054H210V1025H181V1054ZM211 1054H240V1025H211V1054ZM241 1054H270V1025H241V1054ZM271 1054H300V1025H271V1054ZM301 1054H330V1025H301V1054ZM331 1054H360V1025H331V1054ZM361 1054H390V1025H361V1054ZM391 1054H420V1025H391V1054ZM421 1054H450V1025H421V1054ZM451 1054H480V1025H451V1054ZM481 1054H510V1025H481V1054ZM511 1054H540V1025H511V1054ZM541 1054H570V1025H541V1054ZM571 1054H600V1025H571V1054ZM601 1054H630V1025H601V1054ZM631 1054H660V1025H631V1054ZM661 1054H690V1025H661V1054ZM691 1054H720V1025H691V1054ZM721 1054H750V1025H721V1054ZM751 1054H780V1025H751V1054ZM781 1054H810V1025H781V1054ZM811 1054H840.001V1025H811V1054ZM841.001 1054H870.001V1025H841.001V1054ZM871.001 1054H900.001V1025H871.001V1054ZM901.001 1054H930.001V1025H901.001V1054ZM931.001 1054H960.001V1025H931.001V1054ZM961.001 1054H990.001V1025H961.001V1054ZM991.001 1054H1020V1025H991.001V1054ZM1021 1054H1050V1025H1021V1054ZM31 1024H60V995H31V1024ZM61 1024H90V995H61V1024ZM91 1024H120V995H91V1024ZM121 1024H150V995H121V1024ZM151 1024H180V995H151V1024ZM181 1024H210V995H181V1024ZM211 1024H240V995H211V1024ZM241 1024H270V995H241V1024ZM271 1024H300V995H271V1024ZM301 1024H330V995H301V1024ZM331 1024H360V995H331V1024ZM361 1024H390V995H361V1024ZM391 1024H420V995H391V1024ZM421 1024H450V995H421V1024ZM451 1024H480V995H451V1024ZM481 1024H510V995H481V1024ZM511 1024H540V995H511V1024ZM541 1024H570V995H541V1024ZM571 1024H600V995H571V1024ZM601 1024H630V995H601V1024ZM631 1024H660V995H631V1024ZM661 1024H690V995H661V1024ZM691 1024H720V995H691V1024ZM721 1024H750V995H721V1024ZM751 1024H780V995H751V1024ZM781 1024H810V995H781V1024ZM811 1024H840.001V995H811V1024ZM841.001 1024H870.001V995H841.001V1024ZM871.001 1024H900.001V995H871.001V1024ZM901.001 1024H930.001V995H901.001V1024ZM931.001 1024H960.001V995H931.001V1024ZM961.001 1024H990.001V995H961.001V1024ZM991.001 1024H1020V995H991.001V1024ZM1021 1024H1050V995H1021V1024ZM31 994H60V965H31V994ZM61 994H90V965H61V994ZM91 994H120V965H91V994ZM121 994H150V965H121V994ZM151 994H180V965H151V994ZM181 994H210V965H181V994ZM211 994H240V965H211V994ZM241 994H270V965H241V994ZM271 994H300V965H271V994ZM301 994H330V965H301V994ZM331 994H360V965H331V994ZM361 994H390V965H361V994ZM391 994H420V965H391V994ZM421 994H450V965H421V994ZM451 994H480V965H451V994ZM481 994H510V965H481V994ZM511 994H540V965H511V994ZM541 994H570V965H541V994ZM571 994H600V965H571V994ZM601 994H630V965H601V994ZM631 994H660V965H631V994ZM661 994H690V965H661V994ZM691 994H720V965H691V994ZM721 994H750V965H721V994ZM751 994H780V965H751V994ZM781 994H810V965H781V994ZM811 994H840.001V965H811V994ZM841.001 994H870.001V965H841.001V994ZM871.001 994H900.001V965H871.001V994ZM901.001 994H930.001V965H901.001V994ZM931.001 994H960.001V965H931.001V994ZM961.001 994H990.001V965H961.001V994ZM991.001 994H1020V965H991.001V994ZM1021 994H1050V965H1021V994ZM31 964H60V935H31V964ZM61 964H90V935H61V964ZM91 964H120V935H91V964ZM121 964H150V935H121V964ZM151 964H180V935H151V964ZM181 964H210V935H181V964ZM211 964H240V935H211V964ZM241 964H270V935H241V964ZM271 964H300V935H271V964ZM301 964H330V935H301V964ZM331 964H360V935H331V964ZM361 964H390V935H361V964ZM391 964H420V935H391V964ZM421 964H450V935H421V964ZM451 964H480V935H451V964ZM481 964H510V935H481V964ZM511 964H540V935H511V964ZM541 964H570V935H541V964ZM571 964H600V935H571V964ZM601 964H630V935H601V964ZM631 964H660V935H631V964ZM661 964H690V935H661V964ZM691 964H720V935H691V964ZM721 964H750V935H721V964ZM751 964H780V935H751V964ZM781 964H810V935H781V964ZM811 964H840.001V935H811V964ZM841.001 964H870.001V935H841.001V964ZM871.001 964H900.001V935H871.001V964ZM901.001 964H930.001V935H901.001V964ZM931.001 964H960.001V935H931.001V964ZM961.001 964H990.001V935H961.001V964ZM991.001 964H1020V935H991.001V964ZM1021 964H1050V935H1021V964ZM31 934H60V905H31V934ZM61 934H90V905H61V934ZM91 934H120V905H91V934ZM121 934H150V905H121V934ZM151 934H180V905H151V934ZM181 934H210V905H181V934ZM211 934H240V905H211V934ZM241 934H270V905H241V934ZM271 934H300V905H271V934ZM301 934H330V905H301V934ZM331 934H360V905H331V934ZM361 934H390V905H361V934ZM391 934H420V905H391V934ZM421 934H450V905H421V934ZM451 934H480V905H451V934ZM481 934H510V905H481V934ZM511 934H540V905H511V934ZM541 934H570V905H541V934ZM571 934H600V905H571V934ZM601 934H630V905H601V934ZM631 934H660V905H631V934ZM661 934H690V905H661V934ZM691 934H720V905H691V934ZM721 934H750V905H721V934ZM751 934H780V905H751V934ZM781 934H810V905H781V934ZM811 934H840.001V905H811V934ZM841.001 934H870.001V905H841.001V934ZM871.001 934H900.001V905H871.001V934ZM901.001 934H930.001V905H901.001V934ZM931.001 934H960.001V905H931.001V934ZM961.001 934H990.001V905H961.001V934ZM991.001 934H1020V905H991.001V934ZM1021 934H1050V905H1021V934ZM31 904H60V875H31V904ZM61 904H90V875H61V904ZM91 904H120V875H91V904ZM121 904H150V875H121V904ZM151 904H180V875H151V904ZM181 904H210V875H181V904ZM211 904H240V875H211V904ZM241 904H270V875H241V904ZM271 904H300V875H271V904ZM301 904H330V875H301V904ZM331 904H360V875H331V904ZM361 904H390V875H361V904ZM391 904H420V875H391V904ZM421 904H450V875H421V904ZM451 904H480V875H451V904ZM481 904H510V875H481V904ZM511 904H540V875H511V904ZM541 904H570V875H541V904ZM571 904H600V875H571V904ZM601 904H630V875H601V904ZM631 904H660V875H631V904ZM661 904H690V875H661V904ZM691 904H720V875H691V904ZM721 904H750V875H721V904ZM751 904H780V875H751V904ZM781 904H810V875H781V904ZM811 904H840.001V875H811V904ZM841.001 904H870.001V875H841.001V904ZM871.001 904H900.001V875H871.001V904ZM901.001 904H930.001V875H901.001V904ZM931.001 904H960.001V875H931.001V904ZM961.001 904H990.001V875H961.001V904ZM991.001 904H1020V875H991.001V904ZM1021 904H1050V875H1021V904ZM31 874H60V845H31V874ZM61 874H90V845H61V874ZM91 874H120V845H91V874ZM121 874H150V845H121V874ZM151 874H180V845H151V874ZM181 874H210V845H181V874ZM211 874H240V845H211V874ZM241 874H270V845H241V874ZM271 874H300V845H271V874ZM301 874H330V845H301V874ZM331 874H360V845H331V874ZM361 874H390V845H361V874ZM391 874H420V845H391V874ZM421 874H450V845H421V874ZM451 874H480V845H451V874ZM481 874H510V845H481V874ZM511 874H540V845H511V874ZM541 874H570V845H541V874ZM571 874H600V845H571V874ZM601 874H630V845H601V874ZM631 874H660V845H631V874ZM661 874H690V845H661V874ZM691 874H720V845H691V874ZM721 874H750V845H721V874ZM751 874H780V845H751V874ZM781 874H810V845H781V874ZM811 874H840.001V845H811V874ZM841.001 874H870.001V845H841.001V874ZM871.001 874H900.001V845H871.001V874ZM901.001 874H930.001V845H901.001V874ZM931.001 874H960.001V845H931.001V874ZM961.001 874H990.001V845H961.001V874ZM991.001 874H1020V845H991.001V874ZM1021 874H1050V845H1021V874ZM31 844H60V815H31V844ZM61 844H90V815H61V844ZM91 844H120V815H91V844ZM121 844H150V815H121V844ZM151 844H180V815H151V844ZM181 844H210V815H181V844ZM211 844H240V815H211V844ZM241 844H270V815H241V844ZM271 844H300V815H271V844ZM301 844H330V815H301V844ZM331 844H360V815H331V844ZM361 844H390V815H361V844ZM391 844H420V815H391V844ZM421 844H450V815H421V844ZM451 844H480V815H451V844ZM481 844H510V815H481V844ZM511 844H540V815H511V844ZM541 844H570V815H541V844ZM571 844H600V815H571V844ZM601 844H630V815H601V844ZM631 844H660V815H631V844ZM661 844H690V815H661V844ZM691 844H720V815H691V844ZM721 844H750V815H721V844ZM751 844H780V815H751V844ZM781 844H810V815H781V844ZM811 844H840.001V815H811V844ZM841.001 844H870.001V815H841.001V844ZM871.001 844H900.001V815H871.001V844ZM901.001 844H930.001V815H901.001V844ZM931.001 844H960.001V815H931.001V844ZM961.001 844H990.001V815H961.001V844ZM991.001 844H1020V815H991.001V844ZM1021 844H1050V815H1021V844ZM31 814H60V785H31V814ZM61 814H90V785H61V814ZM91 814H120V785H91V814ZM121 814H150V785H121V814ZM151 814H180V785H151V814ZM181 814H210V785H181V814ZM211 814H240V785H211V814ZM241 814H270V785H241V814ZM271 814H300V785H271V814ZM301 814H330V785H301V814ZM331 814H360V785H331V814ZM361 814H390V785H361V814ZM391 814H420V785H391V814ZM421 814H450V785H421V814ZM451 814H480V785H451V814ZM481 814H510V785H481V814ZM511 814H540V785H511V814ZM541 814H570V785H541V814ZM571 814H600V785H571V814ZM601 814H630V785H601V814ZM631 814H660V785H631V814ZM661 814H690V785H661V814ZM691 814H720V785H691V814ZM721 814H750V785H721V814ZM751 814H780V785H751V814ZM781 814H810V785H781V814ZM811 814H840.001V785H811V814ZM841.001 814H870.001V785H841.001V814ZM871.001 814H900.001V785H871.001V814ZM901.001 814H930.001V785H901.001V814ZM931.001 814H960.001V785H931.001V814ZM961.001 814H990.001V785H961.001V814ZM991.001 814H1020V785H991.001V814ZM1021 814H1050V785H1021V814ZM31 784H60V755H31V784ZM61 784H90V755H61V784ZM91 784H120V755H91V784ZM121 784H150V755H121V784ZM151 784H180V755H151V784ZM181 784H210V755H181V784ZM211 784H240V755H211V784ZM241 784H270V755H241V784ZM271 784H300V755H271V784ZM301 784H330V755H301V784ZM331 784H360V755H331V784ZM361 784H390V755H361V784ZM391 784H420V755H391V784ZM421 784H450V755H421V784ZM451 784H480V755H451V784ZM481 784H510V755H481V784ZM511 784H540V755H511V784ZM541 784H570V755H541V784ZM571 784H600V755H571V784ZM601 784H630V755H601V784ZM631 784H660V755H631V784ZM661 784H690V755H661V784ZM691 784H720V755H691V784ZM721 784H750V755H721V784ZM751 784H780V755H751V784ZM781 784H810V755H781V784ZM811 784H840.001V755H811V784ZM841.001 784H870.001V755H841.001V784ZM871.001 784H900.001V755H871.001V784ZM901.001 784H930.001V755H901.001V784ZM931.001 784H960.001V755H931.001V784ZM961.001 784H990.001V755H961.001V784ZM991.001 784H1020V755H991.001V784ZM1021 784H1050V755H1021V784ZM31 754H60V725H31V754ZM61 754H90V725H61V754ZM91 754H120V725H91V754ZM121 754H150V725H121V754ZM151 754H180V725H151V754ZM181 754H210V725H181V754ZM211 754H240V725H211V754ZM241 754H270V725H241V754ZM271 754H300V725H271V754ZM301 754H330V725H301V754ZM331 754H360V725H331V754ZM361 754H390V725H361V754ZM391 754H420V725H391V754ZM421 754H450V725H421V754ZM451 754H480V725H451V754ZM481 754H510V725H481V754ZM511 754H540V725H511V754ZM541 754H570V725H541V754ZM571 754H600V725H571V754ZM601 754H630V725H601V754ZM631 754H660V725H631V754ZM661 754H690V725H661V754ZM691 754H720V725H691V754ZM721 754H750V725H721V754ZM751 754H780V725H751V754ZM781 754H810V725H781V754ZM811 754H840.001V725H811V754ZM841.001 754H870.001V725H841.001V754ZM871.001 754H900.001V725H871.001V754ZM901.001 754H930.001V725H901.001V754ZM931.001 754H960.001V725H931.001V754ZM961.001 754H990.001V725H961.001V754ZM991.001 754H1020V725H991.001V754ZM1021 754H1050V725H1021V754ZM31 664H53.8867C53.5359 664.324 53.1939 664.657 52.8613 665H31V694H47.8584C48.0129 694.337 48.1735 694.671 48.3418 695H31V724H60V706.519C60.3295 706.682 60.6628 706.839 61 706.988V724H90V701.589C90.3436 701.245 90.6759 700.891 91 700.528V724H120V695H94.7959C94.9642 694.671 95.1248 694.337 95.2793 694H120V665H91V665.776C90.4455 665.157 89.8617 664.564 89.251 664H90V635H61V659.316C60.6628 659.466 60.3294 659.623 60 659.786V635H31V664ZM121 724H150V695H121V724ZM151 724H180V695H151V724ZM181 724H210V695H181V724ZM211 724H240V695H211V724ZM241 724H270V695H241V724ZM271 724H300V695H271V724ZM301 724H330V695H301V724ZM331 724H360V695H331V724ZM361 724H390V695H361V724ZM391 724H420V695H391V724ZM421 724H450V695H421V724ZM451 724H480V695H451V724ZM481 724H510V695H481V724ZM511 724H540V695H511V724ZM541 724H570V695H541V724ZM571 724H600V695H571V724ZM601 724H630V695H601V724ZM631 724H660V695H631V724ZM661 724H690V695H661V724ZM691 724H720V695H691V724ZM721 724H750V695H721V724ZM751 724H780V695H751V724ZM781 724H810V695H781V724ZM811 724H840.001V695H811V724ZM841.001 724H870.001V695H841.001V724ZM871.001 724H900.001V695H871.001V724ZM901.001 724H930.001V695H901.001V724ZM931.001 724H960.001V695H931.001V724ZM961.001 724H990.001V695H961.001V724ZM991.001 724H1020V695H991.001V724ZM1021 724H1050V695H1021V724ZM121 694H150V665H121V694ZM151 694H180V665H151V694ZM181 694H210V665H181V694ZM211 694H240V665H211V694ZM241 694H270V665H241V694ZM271 694H300V665H271V694ZM301 694H330V665H301V694ZM331 694H360V665H331V694ZM361 694H390V665H361V694ZM391 694H420V665H391V694ZM421 694H450V665H421V694ZM451 694H480V665H451V694ZM481 694H510V665H481V694ZM511 694H540V665H511V694ZM541 694H570V665H541V694ZM571 694H600V665H571V694ZM601 694H630V665H601V694ZM631 694H660V665H631V694ZM661 694H690V665H661V694ZM691 694H720V665H691V694ZM721 694H750V665H721V694ZM751 694H780V665H751V694ZM781 694H810V665H781V694ZM811 694H840.001V665H811V694ZM841.001 694H870.001V665H841.001V694ZM871.001 694H900.001V665H871.001V694ZM901.001 694H930.001V665H901.001V694ZM931.001 694H960.001V665H931.001V694ZM961.001 694H990.001V665H961.001V694ZM991.001 694H1020V665H991.001V694ZM1021 694H1050V665H1021V694ZM91 664H120V635H91V664ZM121 664H150V635H121V664ZM151 664H180V635H151V664ZM181 664H210V635H181V664ZM211 664H240V635H211V664ZM241 664H270V635H241V664ZM271 664H300V635H271V664ZM301 664H330V635H301V664ZM331 664H360V635H331V664ZM361 664H390V635H361V664ZM391 664H420V635H391V664ZM421 664H450V635H421V664ZM451 664H480V635H451V664ZM481 664H510V635H481V664ZM511 664H540V635H511V664ZM541 664H570V635H541V664ZM571 664H600V635H571V664ZM601 664H630V635H601V664ZM631 664H660V635H631V664ZM661 664H690V635H661V664ZM691 664H720V635H691V664ZM721 664H750V635H721V664ZM751 664H780V635H751V664ZM781 664H810V635H781V664ZM811 664H840.001V635H811V664ZM841.001 664H870.001V635H841.001V664ZM871.001 664H900.001V635H871.001V664ZM901.001 664H930.001V635H901.001V664ZM931.001 664H960.001V635H931.001V664ZM961.001 664H990.001V635H961.001V664ZM991.001 664H1020V635H991.001V664ZM1021 664H1050V635H1021V664ZM31 634H60V605H31V634ZM61 634H90V605H61V634ZM91 634H120V605H91V634ZM121 634H150V605H121V634ZM151 634H180V605H151V634ZM181 634H210V605H181V634ZM211 634H240V605H211V634ZM241 634H270V605H241V634ZM271 634H300V605H271V634ZM301 634H330V605H301V634ZM331 634H360V605H331V634ZM361 634H390V605H361V634ZM391 634H420V605H391V634ZM421 634H450V605H421V634ZM451 634H480V605H451V634ZM481 634H510V605H481V634ZM511 634H540V605H511V634ZM541 634H570V605H541V634ZM571 634H600V605H571V634ZM601 634H630V605H601V634ZM631 634H660V605H631V634ZM661 634H690V605H661V634ZM691 634H720V605H691V634ZM721 634H750V605H721V634ZM751 634H780V605H751V634ZM781 634H810V605H781V634ZM811 634H840.001V605H811V634ZM841.001 634H870.001V605H841.001V634ZM871.001 634H900.001V605H871.001V634ZM901.001 634H930.001V605H901.001V634ZM931.001 634H960.001V605H931.001V634ZM961.001 634H990.001V605H961.001V634ZM991.001 634H1020V605H991.001V634ZM1021 634H1050V605H1021V634ZM31 604H60V575H31V604ZM61 604H90V575H61V604ZM91 604H120V575H91V604ZM121 604H150V575H121V604ZM151 604H180V575H151V604ZM181 604H210V575H181V604ZM211 604H240V575H211V604ZM241 604H270V575H241V604ZM271 604H300V575H271V604ZM301 604H330V575H301V604ZM331 604H360V575H331V604ZM361 604H390V575H361V604ZM391 604H420V575H391V604ZM421 604H450V575H421V604ZM451 604H480V575H451V604ZM481 604H510V575H481V604ZM511 604H540V575H511V604ZM541 604H570V575H541V604ZM571 604H600V575H571V604ZM601 604H630V575H601V604ZM631 604H660V575H631V604ZM661 604H690V575H661V604ZM691 604H720V575H691V604ZM721 604H750V575H721V604ZM751 604H780V575H751V604ZM781 604H810V575H781V604ZM811 604H840.001V575H811V604ZM841.001 604H870.001V575H841.001V604ZM871.001 604H900.001V575H871.001V604ZM901.001 604H930.001V575H901.001V604ZM931.001 604H960.001V575H931.001V604ZM961.001 604H990.001V575H961.001V604ZM991.001 604H1020V575H991.001V604ZM1021 604H1050V575H1021V604ZM31 574H60V545H31V574ZM31 514H46.0371C45.9689 514.331 45.9091 514.665 45.8535 515H31V544H60V542.655C60.3295 542.819 60.6628 542.975 61 543.125V544H63.2412C64.534 544.436 65.8725 544.771 67.2471 545H61V574H90V545H75.8906C77.2652 544.771 78.6037 544.436 79.8965 544H90V537.726C90.3436 537.382 90.6759 537.027 91 536.665V544H120V515H97.2852C97.2296 514.664 97.1688 514.331 97.1006 514H120V485H91V501.913C90.676 501.551 90.3435 501.197 90 500.854V485H61V495.453C60.6628 495.603 60.3294 495.759 60 495.923V485H31V514ZM91 574H120V545H91V574ZM121 574H150V545H121V574ZM151 574H180V545H151V574ZM181 574H210V545H181V574ZM211 574H240V545H211V574ZM241 574H270V545H241V574ZM271 574H300V545H271V574ZM301 574H330V545H301V574ZM331 574H360V545H331V574ZM361 574H390V545H361V574ZM391 574H420V545H391V574ZM421 574H450V545H421V574ZM451 574H480V545H451V574ZM481 574H510V545H481V574ZM511 574H540V545H511V574ZM541 574H570V545H541V574ZM571 574H600V545H571V574ZM601 574H630V545H601V574ZM631 574H660V545H631V574ZM661 574H690V545H661V574ZM691 574H720V545H691V574ZM721 574H750V545H721V574ZM751 574H780V545H751V574ZM781 574H810V545H781V574ZM811 574H840.001V545H811V574ZM841.001 574H870.001V545H841.001V574ZM871.001 574H900.001V545H871.001V574ZM901.001 574H930.001V545H901.001V574ZM931.001 574H960.001V545H931.001V574ZM961.001 574H990.001V545H961.001V574ZM991.001 574H1020V545H991.001V574ZM1021 574H1050V545H1021V574ZM121 544H150V515H121V544ZM151 544H180V515H151V544ZM181 544H210V515H181V544ZM211 544H240V515H211V544ZM241 544H270V515H241V544ZM271 544H300V515H271V544ZM301 544H330V515H301V544ZM331 544H360V515H331V544ZM361 544H390V515H361V544ZM391 544H420V515H391V544ZM421 544H450V515H421V544ZM451 544H480V515H451V544ZM481 544H510V515H481V544ZM511 544H540V515H511V544ZM541 544H570V515H541V544ZM571 544H600V515H571V544ZM601 544H630V515H601V544ZM631 544H660V515H631V544ZM661 544H690V515H661V544ZM691 544H720V515H691V544ZM721 544H750V515H721V544ZM751 544H780V515H751V544ZM781 544H810V515H781V544ZM811 544H840.001V515H811V544ZM841.001 544H870.001V515H841.001V544ZM871.001 544H900.001V515H871.001V544ZM901.001 544H930.001V515H901.001V544ZM931.001 544H960.001V515H931.001V544ZM961.001 544H990.001V515H961.001V544ZM991.001 544H1020V515H991.001V544ZM1021 544H1050V515H1021V544ZM121 514H150V485H121V514ZM151 514H180V485H151V514ZM181 514H210V485H181V514ZM211 514H240V485H211V514ZM241 514H270V485H241V514ZM271 514H300V485H271V514ZM301 514H330V485H301V514ZM331 514H360V485H331V514ZM361 514H390V485H361V514ZM391 514H420V485H391V514ZM421 514H450V485H421V514ZM451 514H480V485H451V514ZM481 514H510V485H481V514ZM511 514H540V485H511V514ZM541 514H570V485H541V514ZM571 514H600V485H571V514ZM601 514H630V485H601V514ZM631 514H660V485H631V514ZM661 514H690V485H661V514ZM691 514H720V485H691V514ZM721 514H750V485H721V514ZM751 514H780V485H751V514ZM781 514H810V485H781V514ZM811 514H840.001V485H811V514ZM841.001 514H870.001V485H841.001V514ZM871.001 514H900.001V485H871.001V514ZM901.001 514H930.001V485H901.001V514ZM931.001 514H960.001V485H931.001V514ZM961.001 514H990.001V485H961.001V514ZM991.001 514H1020V485H991.001V514ZM1021 514H1050V485H1021V514ZM31 484H60V455H31V484ZM61 484H90V455H61V484ZM91 484H120V455H91V484ZM121 484H150V455H121V484ZM151 484H180V455H151V484ZM181 484H210V455H181V484ZM211 484H240V455H211V484ZM241 484H270V455H241V484ZM271 484H300V455H271V484ZM301 484H330V455H301V484ZM331 484H360V455H331V484ZM361 484H390V455H361V484ZM391 484H420V455H391V484ZM421 484H450V455H421V484ZM451 484H480V455H451V484ZM481 484H510V455H481V484ZM511 484H540V455H511V484ZM541 484H570V455H541V484ZM571 484H600V455H571V484ZM601 484H630V455H601V484ZM631 484H660V455H631V484ZM661 484H690V455H661V484ZM691 484H720V455H691V484ZM721 484H750V455H721V484ZM751 484H780V455H751V484ZM781 484H810V455H781V484ZM811 484H840.001V455H811V484ZM841.001 484H870.001V455H841.001V484ZM871.001 484H900.001V455H871.001V484ZM901.001 484H930.001V455H901.001V484ZM931.001 484H960.001V455H931.001V484ZM961.001 484H990.001V455H961.001V484ZM991.001 484H1020V455H991.001V484ZM1021 484H1050V455H1021V484ZM31 454H60V425H31V454ZM61 454H90V425H61V454ZM91 454H120V425H91V454ZM121 454H150V425H121V454ZM151 454H180V425H151V454ZM181 454H210V425H181V454ZM211 454H240V425H211V454ZM241 454H270V425H241V454ZM271 454H300V425H271V454ZM301 454H330V425H301V454ZM331 454H360V425H331V454ZM361 454H390V425H361V454ZM391 454H420V425H391V454ZM421 454H450V425H421V454ZM451 454H480V425H451V454ZM481 454H510V425H481V454ZM511 454H540V425H511V454ZM541 454H570V425H541V454ZM571 454H600V425H571V454ZM601 454H630V425H601V454ZM631 454H660V425H631V454ZM661 454H690V425H661V454ZM691 454H720V425H691V454ZM721 454H750V425H721V454ZM751 454H780V425H751V454ZM781 454H810V425H781V454ZM811 454H840.001V425H811V454ZM841.001 454H870.001V425H841.001V454ZM871.001 454H900.001V425H871.001V454ZM901.001 454H930.001V425H901.001V454ZM931.001 454H960.001V425H931.001V454ZM961.001 454H990.001V425H961.001V454ZM991.001 454H1020V425H991.001V454ZM1021 454H1050V425H1021V454ZM31 424H60V395H31V424ZM61 424H90V395H61V424ZM91 424H120V395H91V424ZM121 424H150V395H121V424ZM151 424H180V395H151V424ZM181 424H210V395H181V424ZM211 424H240V395H211V424ZM241 424H270V395H241V424ZM271 424H300V395H271V424ZM301 424H330V395H301V424ZM331 424H360V395H331V424ZM361 424H390V395H361V424ZM391 424H420V395H391V424ZM421 424H450V395H421V424ZM451 424H480V395H451V424ZM481 424H510V395H481V424ZM511 424H540V395H511V424ZM541 424H570V395H541V424ZM571 424H600V395H571V424ZM601 424H630V395H601V424ZM631 424H660V395H631V424ZM661 424H690V395H661V424ZM691 424H720V395H691V424ZM721 424H750V395H721V424ZM751 424H780V395H751V424ZM781 424H810V395H781V424ZM811 424H840.001V395H811V424ZM841.001 424H870.001V395H841.001V424ZM871.001 424H900.001V395H871.001V424ZM901.001 424H930.001V395H901.001V424ZM931.001 424H960.001V395H931.001V424ZM961.001 424H990.001V395H961.001V424ZM991.001 424H1020V395H991.001V424ZM1021 424H1050V395H1021V424ZM31 334H56.7236C56.2638 334.319 55.8146 334.653 55.377 335H31V364H46.9434C47.0604 364.336 47.1823 364.67 47.3125 365H31V394H60V378.796C60.3295 378.959 60.6628 379.116 61 379.266V394H90V373.866C90.3436 373.523 90.6759 373.168 91 372.806V394H120V365H95.8252C95.9554 364.67 96.0773 364.336 96.1943 364H120V335H91V338.054C90.676 337.692 90.3435 337.338 90 336.994V335H87.7607C87.323 334.653 86.8739 334.319 86.4141 334H90V305H61V331.594C60.6628 331.743 60.3294 331.9 60 332.063V305H31V334ZM121 394H150V365H121V394ZM151 394H180V365H151V394ZM181 394H210V365H181V394ZM211 394H240V365H211V394ZM241 394H270V365H241V394ZM271 394H300V365H271V394ZM301 394H330V365H301V394ZM331 394H360V365H331V394ZM361 394H390V365H361V394ZM391 394H420V365H391V394ZM421 394H450V365H421V394ZM451 394H480V365H451V394ZM481 394H510V365H481V394ZM511 394H540V365H511V394ZM541 394H570V365H541V394ZM571 394H600V365H571V394ZM601 394H630V365H601V394ZM631 394H660V365H631V394ZM661 394H690V365H661V394ZM691 394H720V365H691V394ZM721 394H750V365H721V394ZM751 394H780V365H751V394ZM781 394H810V365H781V394ZM811 394H840.001V365H811V394ZM841.001 394H870.001V365H841.001V394ZM871.001 394H900.001V365H871.001V394ZM901.001 394H930.001V365H901.001V394ZM931.001 394H960.001V365H931.001V394ZM961.001 394H990.001V365H961.001V394ZM991.001 394H1020V365H991.001V394ZM1021 394H1050V365H1021V394ZM121 364H150V335H121V364ZM151 364H180V335H151V364ZM181 364H210V335H181V364ZM211 364H240V335H211V364ZM241 364H270V335H241V364ZM271 364H300V335H271V364ZM301 364H330V335H301V364ZM331 364H360V335H331V364ZM361 364H390V335H361V364ZM391 364H420V335H391V364ZM421 364H450V335H421V364ZM451 364H480V335H451V364ZM481 364H510V335H481V364ZM511 364H540V335H511V364ZM541 364H570V335H541V364ZM571 364H600V335H571V364ZM601 364H630V335H601V364ZM631 364H660V335H631V364ZM661 364H690V335H661V364ZM691 364H720V335H691V364ZM721 364H750V335H721V364ZM751 364H780V335H751V364ZM781 364H810V335H781V364ZM811 364H840.001V335H811V364ZM841.001 364H870.001V335H841.001V364ZM871.001 364H900.001V335H871.001V364ZM901.001 364H930.001V335H901.001V364ZM931.001 364H960.001V335H931.001V364ZM961.001 364H990.001V335H961.001V364ZM991.001 364H1020V335H991.001V364ZM1021 364H1050V335H1021V364ZM91 334H120V305H91V334ZM121 334H150V305H121V334ZM151 334H180V305H151V334ZM181 334H210V305H181V334ZM211 334H240V305H211V334ZM241 334H270V305H241V334ZM271 334H300V305H271V334ZM301 334H330V305H301V334ZM331 334H360V305H331V334ZM361 334H390V305H361V334ZM391 334H420V305H391V334ZM421 334H450V305H421V334ZM451 334H480V305H451V334ZM481 334H510V305H481V334ZM511 334H540V305H511V334ZM541 334H570V305H541V334ZM571 334H600V305H571V334ZM601 334H630V305H601V334ZM631 334H660V305H631V334ZM661 334H690V305H661V334ZM691 334H720V305H691V334ZM721 334H750V305H721V334ZM751 334H780V305H751V334ZM781 334H810V305H781V334ZM811 334H840.001V305H811V334ZM841.001 334H870.001V305H841.001V334ZM871.001 334H900.001V305H871.001V334ZM901.001 334H930.001V305H901.001V334ZM931.001 334H960.001V305H931.001V334ZM961.001 334H990.001V305H961.001V334ZM991.001 334H1020V305H991.001V334ZM1021 334H1050V305H1021V334ZM31 304H60V275H31V304ZM61 304H90V275H61V304ZM91 304H120V275H91V304ZM121 304H150V275H121V304ZM151 304H180V275H151V304ZM181 304H210V275H181V304ZM211 304H240V275H211V304ZM241 304H270V275H241V304ZM271 304H300V275H271V304ZM301 304H330V275H301V304ZM331 304H360V275H331V304ZM361 304H390V275H361V304ZM391 304H420V275H391V304ZM421 304H450V275H421V304ZM451 304H480V275H451V304ZM481 304H510V275H481V304ZM511 304H540V275H511V304ZM541 304H570V275H541V304ZM571 304H600V275H571V304ZM601 304H630V275H601V304ZM631 304H660V275H631V304ZM661 304H690V275H661V304ZM691 304H720V275H691V304ZM721 304H750V275H721V304ZM751 304H780V275H751V304ZM781 304H810V275H781V304ZM811 304H840.001V275H811V304ZM841.001 304H870.001V275H841.001V304ZM871.001 304H900.001V275H871.001V304ZM901.001 304H930.001V275H901.001V304ZM931.001 304H960.001V275H931.001V304ZM961.001 304H990.001V275H961.001V304ZM991.001 304H1020V275H991.001V304ZM1021 304H1050V275H1021V304ZM31 274H60V245H31V274ZM61 274H90V245H61V274ZM91 274H120V245H91V274ZM121 274H150V245H121V274ZM151 274H180V245H151V274ZM181 274H210V245H181V274ZM211 274H240V245H211V274ZM241 274H270V245H241V274ZM271 274H300V245H271V274ZM301 274H330V245H301V274ZM331 274H360V245H331V274ZM361 274H390V245H361V274ZM391 274H420V245H391V274ZM421 274H450V245H421V274ZM451 274H480V245H451V274ZM481 274H510V245H481V274ZM511 274H540V245H511V274ZM541 274H570V245H541V274ZM571 274H600V245H571V274ZM601 274H630V245H601V274ZM631 274H660V245H631V274ZM661 274H690V245H661V274ZM691 274H720V245H691V274ZM721 274H750V245H721V274ZM751 274H780V245H751V274ZM781 274H810V245H781V274ZM811 274H840.001V245H811V274ZM841.001 274H870.001V245H841.001V274ZM871.001 274H900.001V245H871.001V274ZM901.001 274H930.001V245H901.001V274ZM931.001 274H960.001V245H931.001V274ZM961.001 274H990.001V245H961.001V274ZM991.001 274H1020V245H991.001V274ZM1021 274H1050V245H1021V274ZM31 244H60V215H31V244ZM31 184H46.6172C46.517 184.331 46.4222 184.664 46.335 185H31V214H58.2812C59.1558 214.519 60.0634 214.988 61 215.404V244H90V215H83.0068C83.6383 214.691 84.2549 214.357 84.8564 214H90V210.005C90.3436 209.661 90.6759 209.307 91 208.944V214H120V185H96.8027C96.7155 184.664 96.6207 184.331 96.5205 184H120V155H91V174.192C90.676 173.83 90.3435 173.476 90 173.133V155H61V167.732C60.6628 167.882 60.3294 168.039 60 168.202V155H31V184ZM91 244H120V215H91V244ZM121 244H150V215H121V244ZM151 244H180V215H151V244ZM181 244H210V215H181V244ZM211 244H240V215H211V244ZM241 244H270V215H241V244ZM271 244H300V215H271V244ZM301 244H330V215H301V244ZM331 244H360V215H331V244ZM361 244H390V215H361V244ZM391 244H420V215H391V244ZM421 244H450V215H421V244ZM451 244H480V215H451V244ZM481 244H510V215H481V244ZM511 244H540V215H511V244ZM541 244H570V215H541V244ZM571 244H600V215H571V244ZM601 244H630V215H601V244ZM631 244H660V215H631V244ZM661 244H690V215H661V244ZM691 244H720V215H691V244ZM721 244H750V215H721V244ZM751 244H780V215H751V244ZM781 244H810V215H781V244ZM811 244H840.001V215H811V244ZM841.001 244H870.001V215H841.001V244ZM871.001 244H900.001V215H871.001V244ZM901.001 244H930.001V215H901.001V244ZM931.001 244H960.001V215H931.001V244ZM961.001 244H990.001V215H961.001V244ZM991.001 244H1020V215H991.001V244ZM1021 244H1050V215H1021V244ZM121 214H150V185H121V214ZM151 214H180V185H151V214ZM181 214H210V185H181V214ZM211 214H240V185H211V214ZM241 214H270V185H241V214ZM271 214H300V185H271V214ZM301 214H330V185H301V214ZM331 214H360V185H331V214ZM361 214H390V185H361V214ZM391 214H420V185H391V214ZM421 214H450V185H421V214ZM451 214H480V185H451V214ZM481 214H510V185H481V214ZM511 214H540V185H511V214ZM541 214H570V185H541V214ZM571 214H600V185H571V214ZM601 214H630V185H601V214ZM631 214H660V185H631V214ZM661 214H690V185H661V214ZM691 214H720V185H691V214ZM721 214H750V185H721V214ZM751 214H780V185H751V214ZM781 214H810V185H781V214ZM811 214H840.001V185H811V214ZM841.001 214H870.001V185H841.001V214ZM871.001 214H900.001V185H871.001V214ZM901.001 214H930.001V185H901.001V214ZM931.001 214H960.001V185H931.001V214ZM961.001 214H990.001V185H961.001V214ZM991.001 214H1020V185H991.001V214ZM1021 214H1050V185H1021V214ZM121 184H150V155H121V184ZM151 184H180V155H151V184ZM181 184H210V155H181V184ZM211 184H240V155H211V184ZM241 184H270V155H241V184ZM271 184H300V155H271V184ZM301 184H330V155H301V184ZM331 184H360V155H331V184ZM361 184H390V155H361V184ZM391 184H420V155H391V184ZM421 184H450V155H421V184ZM451 184H480V155H451V184ZM481 184H510V155H481V184ZM511 184H540V155H511V184ZM541 184H570V155H541V184ZM571 184H600V155H571V184ZM601 184H630V155H601V184ZM631 184H660V155H631V184ZM661 184H690V155H661V184ZM691 184H720V155H691V184ZM721 184H750V155H721V184ZM751 184H780V155H751V184ZM781 184H810V155H781V184ZM811 184H840.001V155H811V184ZM841.001 184H870.001V155H841.001V184ZM871.001 184H900.001V155H871.001V184ZM901.001 184H930.001V155H901.001V184ZM931.001 184H960.001V155H931.001V184ZM961.001 184H990.001V155H961.001V184ZM991.001 184H1020V155H991.001V184ZM1021 184H1050V155H1021V184ZM31 154H60V125H31V154ZM61 154H90V125H61V154ZM91 154H120V125H91V154ZM121 154H150V125H121V154ZM151 154H180V125H151V154ZM181 154H210V125H181V154ZM211 154H240V125H211V154ZM241 154H270V125H241V154ZM271 154H300V125H271V154ZM301 154H330V125H301V154ZM331 154H360V125H331V154ZM361 154H390V125H361V154ZM391 154H420V125H391V154ZM421 154H450V125H421V154ZM451 154H480V125H451V154ZM481 154H510V125H481V154ZM511 154H540V125H511V154ZM541 154H570V125H541V154ZM571 154H600V125H571V154ZM601 154H630V125H601V154ZM631 154H660V125H631V154ZM661 154H690V125H661V154ZM691 154H720V125H691V154ZM721 154H750V125H721V154ZM751 154H780V125H751V154ZM781 154H810V125H781V154ZM811 154H840.001V125H811V154ZM841.001 154H870.001V125H841.001V154ZM871.001 154H900.001V125H871.001V154ZM901.001 154H930.001V125H901.001V154ZM931.001 154H960.001V125H931.001V154ZM961.001 154H990.001V125H961.001V154ZM991.001 154H1020V125H991.001V154ZM1021 154H1050V125H1021V154ZM31 124H60V95H31V124ZM61 124H90V95H61V124ZM91 124H120V95H91V124ZM121 124H150V95H121V124ZM151 124H180V95H151V124ZM181 124H210V95H181V124ZM211 124H240V95H211V124ZM241 124H270V95H241V124ZM271 124H300V95H271V124ZM301 124H330V95H301V124ZM331 124H360V95H331V124ZM361 124H390V95H361V124ZM391 124H420V95H391V124ZM421 124H450V95H421V124ZM451 124H480V95H451V124ZM481 124H510V95H481V124ZM511 124H540V95H511V124ZM541 124H570V95H541V124ZM571 124H600V95H571V124ZM601 124H630V95H601V124ZM631 124H660V95H631V124ZM661 124H690V95H661V124ZM691 124H720V95H691V124ZM721 124H750V95H721V124ZM751 124H780V95H751V124ZM781 124H810V95H781V124ZM811 124H840.001V95H811V124ZM841.001 124H870.001V95H841.001V124ZM871.001 124H900.001V95H871.001V124ZM901.001 124H930.001V95H901.001V124ZM931.001 124H960.001V95H931.001V124ZM961.001 124H990.001V95H961.001V124ZM991.001 124H1020V95H991.001V124ZM1021 124H1050V95H1021V124ZM31 94H60V65H31V94ZM61 94H90V65H61V94ZM91 94H120V65H91V94ZM121 94H150V65H121V94ZM151 94H180V65H151V94ZM181 94H210V65H181V94ZM211 94H240V65H211V94ZM241 94H270V65H241V94ZM271 94H300V65H271V94ZM301 94H330V65H301V94ZM331 94H360V65H331V94ZM361 94H390V65H361V94ZM391 94H420V65H391V94ZM421 94H450V65H421V94ZM451 94H480V65H451V94ZM481 94H510V65H481V94ZM511 94H540V65H511V94ZM541 94H570V65H541V94ZM571 94H600V65H571V94ZM601 94H630V65H601V94ZM631 94H660V65H631V94ZM661 94H690V65H661V94ZM691 94H720V65H691V94ZM721 94H750V65H721V94ZM751 94H780V65H751V94ZM781 94H810V65H781V94ZM811 94H840.001V65H811V94ZM841.001 94H870.001V65H841.001V94ZM871.001 94H900.001V65H871.001V94ZM901.001 94H930.001V65H901.001V94ZM931.001 94H960.001V65H931.001V94ZM961.001 94H990.001V65H961.001V94ZM991.001 94H1020V65H991.001V94ZM1021 94H1050V65H1021V94ZM31 64H60V35H31V64ZM61 64H90V35H61V64ZM91 64H120V35H91V64ZM121 64H150V35H121V64ZM151 64H180V35H151V64ZM181 64H210V35H181V64ZM211 64H240V35H211V64ZM241 64H270V35H241V64ZM271 64H300V35H271V64ZM301 64H330V35H301V64ZM331 64H360V35H331V64ZM361 64H390V35H361V64ZM391 64H420V35H391V64ZM421 64H450V35H421V64ZM451 64H480V35H451V64ZM481 64H510V35H481V64ZM511 64H540V35H511V64ZM541 64H570V35H541V64ZM571 64H600V35H571V64ZM601 64H630V35H601V64ZM631 64H660V35H631V64ZM661 64H690V35H661V64ZM691 64H720V35H691V64ZM721 64H750V35H721V64ZM751 64H780V35H751V64ZM781 64H810V35H781V64ZM811 64H840.001V35H811V64ZM841.001 64H870.001V35H841.001V64ZM871.001 64H900.001V35H871.001V64ZM901.001 64H930.001V35H901.001V64ZM931.001 64H960.001V35H931.001V64ZM961.001 64H990.001V35H961.001V64ZM991.001 64H1020V35H991.001V64ZM1021 64H1050V35H1021V64Z" fill="#2B2217" fill-opacity="0.07"/>
<rect x="166.5" y="140.982" width="147" height="215.517" rx="4.98305" fill="#D4CFC4"/>
<path fill-rule="evenodd" clip-rule="evenodd" d="M251.969 230.688H227.031C225.614 230.688 224.255 231.251 223.253 232.253C222.251 233.255 221.688 234.614 221.688 236.031V253.94L225.115 251.446C226.193 250.663 227.494 250.245 228.827 250.256C230.16 250.266 231.455 250.703 232.521 251.503L235.827 253.983L244.263 246.751C245.423 245.758 246.907 245.224 248.434 245.253C249.96 245.281 251.424 245.869 252.546 246.904L257.312 251.304V236.031C257.312 234.614 256.75 233.255 255.747 232.253C254.745 231.251 253.386 230.688 251.969 230.688ZM262.656 257.399V236.031C262.656 233.197 261.53 230.478 259.526 228.474C257.522 226.47 254.803 225.344 251.969 225.344H227.031C224.197 225.344 221.478 226.47 219.474 228.474C217.47 230.478 216.344 233.197 216.344 236.031V260.969C216.344 263.803 217.47 266.522 219.474 268.526C221.478 270.53 224.197 271.656 227.031 271.656H251.969C254.803 271.656 257.522 270.53 259.526 268.526C261.53 266.522 262.656 263.803 262.656 260.969V257.399ZM257.312 258.575L248.923 250.83C248.762 250.682 248.553 250.598 248.335 250.594C248.118 250.591 247.906 250.667 247.74 250.808L237.676 259.437L236.048 260.833L234.334 259.547L229.311 255.782C229.159 255.668 228.975 255.607 228.785 255.605C228.595 255.604 228.41 255.663 228.257 255.775L221.688 260.545V260.969C221.688 262.386 222.251 263.745 223.253 264.747C224.255 265.75 225.614 266.312 227.031 266.312H251.969C253.386 266.312 254.745 265.75 255.747 264.747C256.75 263.745 257.312 262.386 257.312 260.969V258.575ZM237.719 241.375C237.719 242.792 237.156 244.151 236.154 245.154C235.151 246.156 233.792 246.719 232.375 246.719C230.958 246.719 229.599 246.156 228.596 245.154C227.594 244.151 227.031 242.792 227.031 241.375C227.031 239.958 227.594 238.599 228.596 237.596C229.599 236.594 230.958 236.031 232.375 236.031C233.792 236.031 235.151 236.594 236.154 237.596C237.156 238.599 237.719 239.958 237.719 241.375Z" fill="#2B2217"/>
</svg>
