<svg width="19" height="18" viewBox="0 0 19 18" fill="none" xmlns="http://www.w3.org/2000/svg">
<path d="M7.52525 2.4375H9.97475C10.7938 2.4375 11.4433 2.4375 11.966 2.48025C12.5015 2.52375 12.9538 2.61525 13.3678 2.82525C14.038 3.16713 14.5828 3.71244 14.924 4.383C15.1348 4.7955 15.2263 5.2485 15.2698 5.784C15.3125 6.30675 15.3125 6.95625 15.3125 7.77525V7.8C15.3125 7.94918 15.2532 8.09226 15.1477 8.19775C15.0423 8.30324 14.8992 8.3625 14.75 8.3625C14.6008 8.3625 14.4577 8.30324 14.3523 8.19775C14.2468 8.09226 14.1875 7.94918 14.1875 7.8C14.1875 6.951 14.1875 6.34725 14.1485 5.8755C14.111 5.4105 14.0383 5.12175 13.922 4.893C13.6883 4.43447 13.3155 4.06167 12.857 3.828C12.6283 3.71175 12.3395 3.63975 11.8745 3.6015C11.402 3.56325 10.799 3.5625 9.95 3.5625H7.55C6.701 3.5625 6.09725 3.5625 5.6255 3.6015C5.1605 3.639 4.87175 3.71175 4.643 3.828C4.18447 4.06167 3.81167 4.43447 3.578 4.893C3.46175 5.12175 3.38975 5.4105 3.3515 5.8755C3.31325 6.348 3.3125 6.951 3.3125 7.8V10.1475C3.36154 10.0941 3.41155 10.0416 3.4625 9.99C3.6935 9.7575 3.9365 9.56175 4.23875 9.45075C4.69596 9.28365 5.19754 9.28365 5.65475 9.45075C5.95625 9.56175 6.19925 9.75675 6.4295 9.98925C6.653 10.2143 6.9035 10.5143 7.2065 10.878L7.22225 10.8975C7.22761 10.9041 7.23432 10.9095 7.24193 10.9134C7.24955 10.9172 7.25789 10.9194 7.2664 10.9197C7.27492 10.9201 7.28341 10.9186 7.29132 10.9154C7.29922 10.9122 7.30636 10.9074 7.31225 10.9013L9.581 8.55075C9.869 8.25375 10.1083 8.0055 10.3205 7.8195C10.541 7.626 10.769 7.46475 11.045 7.3725C11.4678 7.23175 11.9249 7.23175 12.3478 7.3725C12.698 7.4895 12.9778 7.72125 13.265 7.99725C13.3208 8.04783 13.3658 8.10908 13.3974 8.17739C13.4291 8.24569 13.4467 8.31965 13.4493 8.39489C13.4518 8.47013 13.4392 8.54511 13.4122 8.61539C13.3853 8.68568 13.3445 8.74983 13.2923 8.80406C13.24 8.85828 13.1775 8.90148 13.1083 8.93108C13.039 8.96068 12.9646 8.97608 12.8893 8.97638C12.814 8.97668 12.7395 8.96186 12.67 8.93281C12.6006 8.90376 12.5376 8.86106 12.485 8.80725C12.2188 8.5515 12.0905 8.47275 11.9923 8.43975C11.8002 8.37587 11.5926 8.37587 11.4005 8.43975C11.327 8.4645 11.2303 8.51775 11.0623 8.66475C10.8898 8.81625 10.682 9.03075 10.3745 9.3495L8.1215 11.682C8.00591 11.8018 7.86637 11.8959 7.71199 11.9581C7.5576 12.0204 7.39183 12.0494 7.22548 12.0433C7.05912 12.0372 6.89592 11.9962 6.7465 11.9228C6.59707 11.8494 6.46478 11.7454 6.35825 11.6175C6.035 11.2305 5.81525 10.968 5.63075 10.782C5.45075 10.5998 5.34575 10.536 5.2685 10.5075C5.06049 10.4314 4.83226 10.4314 4.62425 10.5075C4.54775 10.536 4.44275 10.5998 4.262 10.782C4.0775 10.968 3.85775 11.2305 3.5345 11.6175L3.488 11.6738C3.44403 11.7265 3.40126 11.7803 3.35975 11.835L3.35675 11.8395C3.34843 11.8569 3.34238 11.8753 3.33875 11.8943V11.9385L3.34625 12.0533L3.34775 12.0788C3.38525 12.5715 3.458 12.8708 3.578 13.1063C3.81167 13.5648 4.18447 13.9376 4.643 14.1713C4.87175 14.2883 5.1605 14.3603 5.6255 14.3985C6.098 14.4368 6.701 14.4375 7.55 14.4375H11C11.074 14.4372 11.1472 14.4515 11.2156 14.4797C11.284 14.5079 11.3461 14.5493 11.3984 14.6016C11.4507 14.6539 11.4921 14.716 11.5203 14.7844C11.5485 14.8528 11.5628 14.926 11.5625 15C11.5625 15.1492 11.5032 15.2923 11.3977 15.3977C11.2923 15.5032 11.1492 15.5625 11 15.5625H7.52525C6.70625 15.5625 6.05675 15.5625 5.534 15.5198C5.16575 15.4898 4.8365 15.4373 4.532 15.3383C4.39523 15.2931 4.26189 15.2383 4.133 15.174C3.46272 14.8326 2.91769 14.2879 2.576 13.6178C2.36525 13.2038 2.27375 12.7515 2.23025 12.216L2.225 12.1485L2.22425 12.1358C2.22025 12.0883 2.217 12.0383 2.2145 11.9858C2.1875 11.5058 2.1875 10.9283 2.1875 10.2248V7.77525C2.1875 6.95625 2.1875 6.30675 2.23025 5.784C2.27375 5.2485 2.36525 4.79625 2.57525 4.383C2.91701 3.71249 3.46233 3.16743 4.133 2.826C4.5455 2.61525 4.9985 2.52375 5.534 2.48025C6.05675 2.4375 6.70625 2.4375 7.52525 2.4375Z" fill="white"/>
<path d="M14.9375 10.5C14.9375 10.3508 14.8782 10.2077 14.7727 10.1023C14.6673 9.99676 14.5242 9.9375 14.375 9.9375C14.2258 9.9375 14.0827 9.99676 13.9773 10.1023C13.8718 10.2077 13.8125 10.3508 13.8125 10.5V13.6425L12.8975 12.7275C12.846 12.6722 12.7839 12.6279 12.7149 12.5972C12.6459 12.5664 12.5714 12.5499 12.4959 12.5486C12.4204 12.5472 12.3453 12.5611 12.2753 12.5894C12.2053 12.6177 12.1416 12.6598 12.0882 12.7132C12.0348 12.7666 11.9927 12.8303 11.9644 12.9003C11.9361 12.9703 11.9222 13.0454 11.9236 13.1209C11.9249 13.1964 11.9414 13.2709 11.9722 13.3399C12.0029 13.4089 12.0472 13.471 12.1025 13.5225L13.9775 15.3975C14.083 15.5028 14.2259 15.562 14.375 15.562C14.5241 15.562 14.667 15.5028 14.7725 15.3975L16.6475 13.5225C16.7028 13.471 16.7471 13.4089 16.7778 13.3399C16.8086 13.2709 16.8251 13.1964 16.8264 13.1209C16.8278 13.0454 16.8139 12.9703 16.7856 12.9003C16.7573 12.8303 16.7152 12.7666 16.6618 12.7132C16.6084 12.6598 16.5447 12.6177 16.4747 12.5894C16.4047 12.5611 16.3296 12.5472 16.2541 12.5486C16.1786 12.5499 16.1041 12.5664 16.0351 12.5972C15.9661 12.6279 15.904 12.6722 15.8525 12.7275L14.9375 13.6425V10.5ZM7.25 4.6875C6.97915 4.6875 6.71095 4.74085 6.46072 4.8445C6.21048 4.94815 5.98311 5.10007 5.79159 5.29159C5.60007 5.48311 5.44815 5.71048 5.3445 5.96072C5.24085 6.21095 5.1875 6.47915 5.1875 6.75C5.1875 7.02085 5.24085 7.28905 5.3445 7.53928C5.44815 7.78952 5.60007 8.01689 5.79159 8.20841C5.98311 8.39993 6.21048 8.55185 6.46072 8.6555C6.71095 8.75915 6.97915 8.8125 7.25 8.8125C7.79701 8.8125 8.32161 8.5952 8.70841 8.20841C9.0952 7.82161 9.3125 7.29701 9.3125 6.75C9.3125 6.20299 9.0952 5.67839 8.70841 5.29159C8.32161 4.9048 7.79701 4.6875 7.25 4.6875ZM6.3125 6.75C6.3125 6.50136 6.41127 6.2629 6.58709 6.08709C6.7629 5.91127 7.00136 5.8125 7.25 5.8125C7.49864 5.8125 7.7371 5.91127 7.91291 6.08709C8.08873 6.2629 8.1875 6.50136 8.1875 6.75C8.1875 6.99864 8.08873 7.2371 7.91291 7.41291C7.7371 7.58873 7.49864 7.6875 7.25 7.6875C7.00136 7.6875 6.7629 7.58873 6.58709 7.41291C6.41127 7.2371 6.3125 6.99864 6.3125 6.75Z" fill="white"/>
</svg>
