<svg width="32" height="30" viewBox="0 0 32 30" fill="none" xmlns="http://www.w3.org/2000/svg">
<path d="M15.7539 0.5C15.9185 0.500065 16.0541 0.536884 16.1719 0.603516C16.2528 0.649322 16.3362 0.733261 16.4043 0.90332L16.4082 0.912109L20.2031 9.89648L20.3203 10.1738L20.6201 10.2002L30.3262 11.0469C30.5263 11.083 30.6458 11.1453 30.7168 11.2061L30.7188 11.208C30.8134 11.2882 30.898 11.3994 30.9668 11.5557C31.0121 11.6604 31.0215 11.7668 30.9854 11.8955C30.9497 12.0223 30.8752 12.1402 30.7393 12.251L30.7334 12.2549L30.7275 12.2607L23.3525 18.6543L23.124 18.8525L23.1934 19.1465L25.4238 28.6338L25.4287 28.6543L25.4346 28.6748C25.4865 28.8333 25.4746 28.9472 25.4297 29.0459C25.3654 29.1868 25.2789 29.2815 25.1699 29.3477L25.165 29.3516C25.0606 29.4168 24.9596 29.4578 24.8613 29.4805L24.7637 29.4971C24.6757 29.5068 24.548 29.4899 24.3672 29.4023L16.0117 24.3584L15.7539 24.2031L15.4951 24.3584L7.1416 29.4023C6.96156 29.4895 6.83237 29.5069 6.74219 29.4971C6.64519 29.4851 6.54563 29.4566 6.44238 29.4072L6.33594 29.3496C6.22677 29.2816 6.14209 29.187 6.08008 29.0498C6.03567 28.9515 6.02251 28.8336 6.07422 28.668L6.0791 28.6514L6.08398 28.6338L8.31348 19.1465L8.38281 18.8525L8.1543 18.6543L0.779297 12.2607L0.773438 12.2549L0.767578 12.251L0.676758 12.166C0.597018 12.0804 0.54918 11.9906 0.522461 11.8955C0.486525 11.7676 0.495699 11.6623 0.541992 11.5576C0.610261 11.4035 0.693705 11.2887 0.789062 11.2041C0.862352 11.144 0.983872 11.0839 1.18262 11.0469L10.8867 10.2002L11.1875 10.1738L11.3047 9.89648L15.0996 0.912109L15.1006 0.908203C15.172 0.734855 15.2577 0.648843 15.3389 0.602539C15.4544 0.536711 15.5891 0.5 15.7539 0.5Z" stroke="#2D2822"/>
</svg>
