<svg width="14" height="14" viewBox="0 0 14 14" fill="none" xmlns="http://www.w3.org/2000/svg">
<path d="M7.25 10.5965C7.381 10.5965 7.49075 10.5523 7.57925 10.4638C7.66725 10.3753 7.71125 10.2655 7.71125 10.1345C7.71125 10.004 7.667 9.8945 7.5785 9.806C7.49 9.7175 7.3805 9.673 7.25 9.6725C7.1195 9.672 7.01 9.71625 6.9215 9.80525C6.833 9.89425 6.78875 10.0038 6.78875 10.1338C6.78875 10.2638 6.833 10.3735 6.9215 10.463C7.01 10.5525 7.1195 10.5975 7.25 10.5965ZM7.25 8.11475C7.357 8.11475 7.44625 8.07875 7.51775 8.00675C7.58925 7.93475 7.625 7.84575 7.625 7.73975V3.98975C7.625 3.88325 7.589 3.79425 7.517 3.72275C7.445 3.65125 7.35575 3.61525 7.24925 3.61475C7.14275 3.61425 7.05375 3.65025 6.98225 3.72275C6.91075 3.79525 6.875 3.88425 6.875 3.98975V7.73975C6.875 7.84575 6.911 7.93475 6.983 8.00675C7.055 8.07875 7.1435 8.11475 7.25 8.11475ZM7.25225 14C6.31875 14 5.44125 13.823 4.61975 13.469C3.79825 13.1145 3.0835 12.6335 2.4755 12.026C1.8675 11.4185 1.38625 10.7045 1.03175 9.884C0.67725 9.0635 0.5 8.18625 0.5 7.25225C0.5 6.31825 0.67725 5.44075 1.03175 4.61975C1.38575 3.79825 1.866 3.0835 2.4725 2.4755C3.079 1.8675 3.79325 1.38625 4.61525 1.03175C5.43725 0.67725 6.31475 0.5 7.24775 0.5C8.18075 0.5 9.05825 0.67725 9.88025 1.03175C10.7017 1.38575 11.4165 1.86625 12.0245 2.47325C12.6325 3.08025 13.1137 3.7945 13.4682 4.616C13.8227 5.4375 14 6.31475 14 7.24775C14 8.18075 13.823 9.05825 13.469 9.88025C13.115 10.7023 12.634 11.417 12.026 12.0245C11.418 12.632 10.704 13.1133 9.884 13.4683C9.064 13.8233 8.18675 14.0005 7.25225 14ZM7.25 13.25C8.925 13.25 10.3437 12.6688 11.5062 11.5063C12.6687 10.3438 13.25 8.925 13.25 7.25C13.25 5.575 12.6687 4.15625 11.5062 2.99375C10.3437 1.83125 8.925 1.25 7.25 1.25C5.575 1.25 4.15625 1.83125 2.99375 2.99375C1.83125 4.15625 1.25 5.575 1.25 7.25C1.25 8.925 1.83125 10.3438 2.99375 11.5063C4.15625 12.6688 5.575 13.25 7.25 13.25Z" fill="#F1494B"/>
</svg>
